  0
SECTION
  2
HEADER
  9
$ACADVER
  1
AC1009
  9
$INSBASE
 10
0.0
 20
0.0
 30
0.0
  9
$EXTMIN
 10
2761.2602253057211783
 20
1313.2956197537039316
 30
0.0
  9
$EXTMAX
 10
4288.0708677735747187
 20
2267.0504563898298329
 30
0.0
  9
$LIMMIN
 10
0.0
 20
0.0
  9
$LIMMAX
 10
420.0
 20
297.0
  9
$ORTHOMODE
 70
     0
  9
$REGENMODE
 70
     1
  9
$FILLMODE
 70
     1
  9
$QTEXTMODE
 70
     0
  9
$MIRRTEXT
 70
     0
  9
$DRAGMODE
 70
     2
  9
$LTSCALE
 40
1.0
  9
$OSMODE
 70
    39
  9
$ATTMODE
 70
     1
  9
$TEXTSIZE
 40
2.5
  9
$TRACEWID
 40
1.0
  9
$TEXTSTYLE
  7
STANDARD
  9
$CLAYER
  8
0
  9
$CELTYPE
  6
BYLAYER
  9
$CECOLOR
 62
   256
  9
$DIMSCALE
 40
1.0
  9
$DIMASZ
 40
2.5
  9
$DIMEXO
 40
0.625
  9
$DIMDLI
 40
3.75
  9
$DIMRND
 40
0.0
  9
$DIMDLE
 40
0.0
  9
$DIMEXE
 40
1.25
  9
$DIMTP
 40
0.0
  9
$DIMTM
 40
0.0
  9
$DIMTXT
 40
2.5
  9
$DIMCEN
 40
2.5
  9
$DIMTSZ
 40
0.0
  9
$DIMTOL
 70
     0
  9
$DIMLIM
 70
     0
  9
$DIMTIH
 70
     0
  9
$DIMTOH
 70
     0
  9
$DIMSE1
 70
     0
  9
$DIMSE2
 70
     0
  9
$DIMTAD
 70
     1
  9
$DIMZIN
 70
     8
  9
$DIMBLK
  1

  9
$DIMASO
 70
     1
  9
$DIMSHO
 70
     1
  9
$DIMPOST
  1

  9
$DIMAPOST
  1

  9
$DIMALT
 70
     0
  9
$DIMALTD
 70
     3
  9
$DIMALTF
 40
0.03937007874016
  9
$DIMLFAC
 40
1.0
  9
$DIMTOFL
 70
     1
  9
$DIMTVP
 40
0.0
  9
$DIMTIX
 70
     0
  9
$DIMSOXD
 70
     0
  9
$DIMSAH
 70
     0
  9
$DIMBLK1
  1

  9
$DIMBLK2
  1

  9
$DIMSTYLE
  2
ISO-25
  9
$DIMCLRD
 70
     0
  9
$DIMCLRE
 70
     0
  9
$DIMCLRT
 70
     0
  9
$DIMTFAC
 40
1.0
  9
$DIMGAP
 40
0.625
  9
$LUNITS
 70
     2
  9
$LUPREC
 70
     4
  9
$SKETCHINC
 40
1.0
  9
$FILLETRAD
 40
0.0
  9
$AUNITS
 70
     0
  9
$AUPREC
 70
     0
  9
$MENU
  1
.
  9
$ELEVATION
 40
0.0
  9
$PELEVATION
 40
0.0
  9
$THICKNESS
 40
0.0
  9
$LIMCHECK
 70
     0
  9
$BLIPMODE
 70
     0
  9
$CHAMFERA
 40
0.0
  9
$CHAMFERB
 40
0.0
  9
$SKPOLY
 70
     0
  9
$TDCREATE
 40
2458030.1176851848140359
  9
$TDUPDATE
 40
2458030.1233796300366521
  9
$TDINDWG
 40
0.0056944444
  9
$TDUSRTIMER
 40
0.0056944444
  9
$USRTIMER
 70
     1
  9
$ANGBASE
 50
0.0
  9
$ANGDIR
 70
     0
  9
$PDMODE
 70
     0
  9
$PDSIZE
 40
0.0
  9
$PLINEWID
 40
0.0
  9
$COORDS
 70
     1
  9
$SPLFRAME
 70
     0
  9
$SPLINETYPE
 70
     6
  9
$SPLINESEGS
 70
     8
  9
$ATTDIA
 70
     1
  9
$ATTREQ
 70
     1
  9
$HANDLING
 70
     1
  9
$HANDSEED
  5
B50
  9
$SURFTAB1
 70
     6
  9
$SURFTAB2
 70
     6
  9
$SURFTYPE
 70
     6
  9
$SURFU
 70
     6
  9
$SURFV
 70
     6
  9
$UCSNAME
  2

  9
$UCSORG
 10
0.0
 20
0.0
 30
0.0
  9
$UCSXDIR
 10
1.0
 20
0.0
 30
0.0
  9
$UCSYDIR
 10
0.0
 20
1.0
 30
0.0
  9
$PUCSNAME
  2

  9
$PUCSORG
 10
0.0
 20
0.0
 30
0.0
  9
$PUCSXDIR
 10
1.0
 20
0.0
 30
0.0
  9
$PUCSYDIR
 10
0.0
 20
1.0
 30
0.0
  9
$USERI1
 70
     0
  9
$USERI2
 70
     0
  9
$USERI3
 70
     0
  9
$USERI4
 70
     0
  9
$USERI5
 70
     0
  9
$USERR1
 40
0.0
  9
$USERR2
 40
0.0
  9
$USERR3
 40
0.0
  9
$USERR4
 40
0.0
  9
$USERR5
 40
0.0
  9
$WORLDVIEW
 70
     1
  9
$SHADEDGE
 70
     3
  9
$SHADEDIF
 70
    70
  9
$TILEMODE
 70
     1
  9
$MAXACTVP
 70
    64
  9
$PLIMCHECK
 70
     0
  9
$PEXTMIN
 10
0.0
 20
0.0
 30
0.0
  9
$PEXTMAX
 10
0.0
 20
0.0
 30
0.0
  9
$PLIMMIN
 10
0.0
 20
0.0
  9
$PLIMMAX
 10
12.0
 20
9.0
  9
$UNITMODE
 70
     0
  9
$VISRETAIN
 70
     1
  9
$PLINEGEN
 70
     0
  9
$PSLTSCALE
 70
     1
  0
ENDSEC
  0
SECTION
  2
TABLES
  0
TABLE
  2
VPORT
 70
     1
  0
VPORT
  2
*ACTIVE
 70
     0
 10
0.0
 20
0.0
 11
1.0
 21
1.0
 12
3383.450144330574858
 22
2014.2374036249439087
 13
0.0
 23
0.0
 14
10.0
 24
10.0
 15
10.0
 25
10.0
 16
0.0
 26
0.0
 36
1.0
 17
0.0
 27
0.0
 37
0.0
 40
621.1478951117031784
 41
2.252669039145907
 42
50.0
 43
0.0
 44
0.0
 50
0.0
 51
0.0
 71
     0
 72
  1000
 73
     1
 74
     3
 75
     0
 76
     1
 77
     0
 78
     0
  0
ENDTAB
  0
TABLE
  2
LTYPE
 70
     1
  0
LTYPE
  2
CONTINUOUS
 70
     0
  3
Solid line
 72
    65
 73
     0
 40
0.0
  0
ENDTAB
  0
TABLE
  2
LAYER
 70
     1
  0
LAYER
  2
0
 70
     0
 62
     7
  6
CONTINUOUS
  0
ENDTAB
  0
TABLE
  2
STYLE
 70
     2
  0
STYLE
  2
STANDARD
 70
     0
 40
0.0
 41
1.0
 50
0.0
 71
     0
 42
2.5
  3
txt
  4

  0
STYLE
  2
ANNOTATIVE
 70
     0
 40
0.0
 41
1.0
 50
0.0
 71
     0
 42
2.5
  3
txt
  4

  0
ENDTAB
  0
TABLE
  2
VIEW
 70
     0
  0
ENDTAB
  0
TABLE
  2
UCS
 70
     0
  0
ENDTAB
  0
TABLE
  2
APPID
 70
     8
  0
APPID
  2
ACAD
 70
     0
  0
APPID
  2
ACAD_PSEXT
 70
     0
  0
APPID
  2
ACADANNOPO
 70
     0
  0
APPID
  2
ACADANNOTATIVE
 70
     0
  0
APPID
  2
ACAD_DSTYLE_DIMJAG
 70
     0
  0
APPID
  2
ACAD_DSTYLE_DIMTALN
 70
     0
  0
APPID
  2
ACAD_MLEADERVER
 70
     0
  0
APPID
  2
ACAD_NAV_VCDISPLAY
 70
     0
  0
ENDTAB
  0
TABLE
  2
DIMSTYLE
 70
     3
  0
DIMSTYLE
  2
STANDARD
 70
     0
  3

  4

  5

  6

  7

 40
1.0
 41
0.18
 42
0.0625
 43
0.38
 44
0.18
 45
0.0
 46
0.0
 47
0.0
 48
0.0
140
0.18
141
0.09
142
0.0
143
25.3999999999999986
144
1.0
145
0.0
146
1.0
147
0.09
 71
     0
 72
     0
 73
     1
 74
     1
 75
     0
 76
     0
 77
     0
 78
     0
170
     0
171
     2
172
     0
173
     0
174
     0
175
     0
176
     0
177
     0
178
     0
  0
DIMSTYLE
  2
ANNOTATIVE
 70
     0
  3

  4

  5

  6

  7

 40
0.0
 41
2.5
 42
0.625
 43
3.75
 44
1.25
 45
0.0
 46
0.0
 47
0.0
 48
0.0
140
2.5
141
2.5
142
0.0
143
0.03937007874016
144
1.0
145
0.0
146
1.0
147
0.625
 71
     0
 72
     0
 73
     0
 74
     0
 75
     0
 76
     0
 77
     1
 78
     8
170
     0
171
     3
172
     1
173
     0
174
     0
175
     0
176
     0
177
     0
178
     0
  0
DIMSTYLE
  2
ISO-25
 70
     0
  3

  4

  5

  6

  7

 40
1.0
 41
2.5
 42
0.625
 43
3.75
 44
1.25
 45
0.0
 46
0.0
 47
0.0
 48
0.0
140
2.5
141
2.5
142
0.0
143
0.03937007874016
144
1.0
145
0.0
146
1.0
147
0.625
 71
     0
 72
     0
 73
     0
 74
     0
 75
     0
 76
     0
 77
     1
 78
     8
170
     0
171
     3
172
     1
173
     0
174
     0
175
     0
176
     0
177
     0
178
     0
  0
ENDTAB
  0
ENDSEC
  0
SECTION
  2
BLOCKS
  0
BLOCK
  8
0
  2
$MODEL_SPACE
 70
     0
 10
0.0
 20
0.0
 30
0.0
  3
$MODEL_SPACE
  1

  0
ENDBLK
  5
21
  8
0
  0
BLOCK
 67
     1
  8
0
  2
$PAPER_SPACE
 70
     0
 10
0.0
 20
0.0
 30
0.0
  3
$PAPER_SPACE
  1

  0
ENDBLK
  5
D5
 67
     1
  8
0
  0
ENDSEC
  0
SECTION
  2
ENTITIES
  0
ARC
  5
6E5
  8
0
  6
CONTINUOUS
 62
     7
 10
3328.6802219666460587
 20
1824.1747296542039294
 30
0.0
 40
2.000000000000175
 50
224.9999999999907914
 51
315.0000000000092086
  0
LINE
  5
6E6
  8
0
  6
CONTINUOUS
 62
     7
 10
3330.0944355289461782
 20
1822.7605160918039928
 30
0.0
 11
3342.8223575903462006
 21
1835.4884381532040152
 31
0.0
  0
ARC
  5
6E7
  8
0
  6
CONTINUOUS
 62
     7
 10
3341.4081440279460367
 20
1836.9026517155039073
 30
0.0
 40
2.0000000000000151
 50
315.0000000000092086
 51
44.9999999999907772
  0
LINE
  5
6E8
  8
0
  6
CONTINUOUS
 62
     7
 10
3342.8223575903462006
 20
1838.3168652779040713
 30
0.0
 11
3342.1152508091468007
 21
1839.0239720591039259
 31
0.0
  0
ARC
  5
6E9
  8
0
  6
CONTINUOUS
 62
     7
 10
3340.7010372467461821
 20
1837.6097584967039893
 30
0.0
 40
2.000000000000175
 50
44.9999999999907772
 51
135.0000000000092086
  0
LINE
  5
6EA
  8
0
  6
CONTINUOUS
 62
     7
 10
3339.2868236844460625
 20
1839.0239720591039259
 30
0.0
 11
3326.5589016230469497
 21
1826.2960499977039035
 31
0.0
  0
ARC
  5
6EB
  8
0
  6
CONTINUOUS
 62
     7
 10
3327.9731151854462041
 20
1824.8818364354040114
 30
0.0
 40
2.0000000000000151
 50
135.0000000000092086
 51
224.9999999999907914
  0
LINE
  5
6EC
  8
0
  6
CONTINUOUS
 62
     7
 10
3326.5589016230469497
 20
1823.4676228730040748
 30
0.0
 11
3327.2660084042458948
 21
1822.7605160918039928
 31
0.0
  0
CIRCLE
  5
6ED
  8
0
  6
CONTINUOUS
 62
     7
 10
2939.3726101220458986
 20
1871.4602635601040674
 30
0.0
 40
2.1000000000000232
  0
CIRCLE
  5
6EE
  8
0
  6
CONTINUOUS
 62
     7
 10
3165.1226101220458986
 20
1873.5852635601040674
 30
0.0
 40
1.5999999999999091
  0
CIRCLE
  5
6EF
  8
0
  6
CONTINUOUS
 62
     7
 10
3202.1226101220458986
 20
1873.5852635601040674
 30
0.0
 40
1.6000000000001351
  0
CIRCLE
  5
6F0
  8
0
  6
CONTINUOUS
 62
     7
 10
3202.1226101220458986
 20
1889.8352635601040674
 30
0.0
 40
1.6000000000001351
  0
CIRCLE
  5
6F1
  8
0
  6
CONTINUOUS
 62
     7
 10
3165.1226101220458986
 20
1889.8352635601040674
 30
0.0
 40
1.5999999999999091
  0
CIRCLE
  5
6F2
  8
0
  6
CONTINUOUS
 62
     7
 10
2968.3726101220468081
 20
1930.2102635601040674
 30
0.0
 40
1.6000000000010439
  0
CIRCLE
  5
6F3
  8
0
  6
CONTINUOUS
 62
     7
 10
3266.8726101220458986
 20
2226.2102635601040674
 30
0.0
 40
2.0999999999999082
  0
CIRCLE
  5
6F4
  8
0
  6
CONTINUOUS
 62
     7
 10
2939.3726101220458986
 20
2160.9602635601040674
 30
0.0
 40
2.1000000000000232
  0
CIRCLE
  5
6F5
  8
0
  6
CONTINUOUS
 62
     7
 10
3150.3726101220468081
 20
1930.2102635601040674
 30
0.0
 40
1.6000000000001351
  0
CIRCLE
  5
6F6
  8
0
  6
CONTINUOUS
 62
     7
 10
3031.8726101220468081
 20
2226.2102635601040674
 30
0.0
 40
2.0999999999999082
  0
CIRCLE
  5
6F7
  8
0
  6
CONTINUOUS
 62
     7
 10
3150.3726101220468081
 20
2142.2102635601040674
 30
0.0
 40
1.6000000000001351
  0
CIRCLE
  5
6F8
  8
0
  6
CONTINUOUS
 62
     7
 10
3031.8726101220468081
 20
1806.2102635601040674
 30
0.0
 40
2.0999999999999082
  0
CIRCLE
  5
6F9
  8
0
  6
CONTINUOUS
 62
     7
 10
3266.8726101220458986
 20
1806.2102635601040674
 30
0.0
 40
2.0999999999999082
  0
CIRCLE
  5
6FA
  8
0
  6
CONTINUOUS
 62
     7
 10
2968.3726101220468081
 20
2142.2102635601040674
 30
0.0
 40
1.6000000000001351
  0
ARC
  5
6FB
  8
0
  6
CONTINUOUS
 62
     7
 10
2957.3370762161471248
 20
1836.9026517155039073
 30
0.0
 40
1.999999999999853
 50
135.0000000000092086
 51
224.9999999999907914
  0
LINE
  5
6FC
  8
0
  6
CONTINUOUS
 62
     7
 10
2955.9228626537469609
 20
1835.4884381532040152
 30
0.0
 11
2968.6507847150460293
 21
1822.7605160918039928
 31
0.0
  0
ARC
  5
6FD
  8
0
  6
CONTINUOUS
 62
     7
 10
2970.0649982774471027
 20
1824.1747296542039294
 30
0.0
 40
2.000000000000095
 50
224.9999999999907914
 51
315.0000000000092086
  0
LINE
  5
6FE
  8
0
  6
CONTINUOUS
 62
     7
 10
2971.4792118398459024
 20
1822.7605160918039928
 30
0.0
 11
2972.1863186210462118
 21
1823.4676228730040748
 31
0.0
  0
ARC
  5
6FF
  8
0
  6
CONTINUOUS
 62
     7
 10
2970.7721050586460478
 20
1824.8818364354040114
 30
0.0
 40
1.9999999999999341
 50
315.0000000000092086
 51
44.9999999999907772
  0
LINE
  5
700
  8
0
  6
CONTINUOUS
 62
     7
 10
2972.1863186210462118
 20
1826.2960499977039035
 30
0.0
 11
2959.4583965596470989
 21
1839.0239720591039259
 31
0.0
  0
ARC
  5
701
  8
0
  6
CONTINUOUS
 62
     7
 10
2958.0441829972460255
 20
1837.6097584967039893
 30
0.0
 40
2.000000000000095
 50
44.9999999999907772
 51
135.0000000000092086
  0
LINE
  5
702
  8
0
  6
CONTINUOUS
 62
     7
 10
2956.629969434945906
 20
1839.0239720591039259
 30
0.0
 11
2955.9228626537469609
 21
1838.3168652779040713
 31
0.0
  0
LINE
  5
703
  8
0
  6
CONTINUOUS
 62
     7
 10
2948.1226101220458986
 20
2215.9602635601040674
 30
0.0
 11
2929.3726101220458986
 21
2215.9602635601040674
 31
0.0
  0
ARC
  5
704
  8
0
  6
CONTINUOUS
 62
     7
 10
2948.1226101220458986
 20
2217.4602635601040674
 30
0.0
 40
1.500000000000113
 50
270.0
 51
0.0
  0
LINE
  5
705
  8
0
  6
CONTINUOUS
 62
     7
 10
2949.6226101220458986
 20
2236.2102635601040674
 30
0.0
 11
2949.6226101220458986
 21
2217.4602635601040674
 31
0.0
  0
LINE
  5
706
  8
0
  6
CONTINUOUS
 62
     7
 10
3349.1226101220468081
 20
2236.2102635601040674
 30
0.0
 11
2949.6226101220458986
 21
2236.2102635601040674
 31
0.0
  0
LINE
  5
707
  8
0
  6
CONTINUOUS
 62
     7
 10
3349.1226101220468081
 20
2217.4602635601040674
 30
0.0
 11
3349.1226101220468081
 21
2236.2102635601040674
 31
0.0
  0
ARC
  5
708
  8
0
  6
CONTINUOUS
 62
     7
 10
3350.6226101220468081
 20
2217.4602635601040674
 30
0.0
 40
1.5
 50
180.0
 51
270.0
  0
LINE
  5
709
  8
0
  6
CONTINUOUS
 62
     7
 10
3369.3726101220458986
 20
2215.9602635601040674
 30
0.0
 11
3350.6226101220468081
 21
2215.9602635601040674
 31
0.0
  0
LINE
  5
70A
  8
0
  6
CONTINUOUS
 62
     7
 10
3369.3726101220458986
 20
1816.4602635601040674
 30
0.0
 11
3369.3726101220458986
 21
2215.9602635601040674
 31
0.0
  0
LINE
  5
70B
  8
0
  6
CONTINUOUS
 62
     7
 10
3350.6226101220468081
 20
1816.4602635601040674
 30
0.0
 11
3369.3726101220458986
 21
1816.4602635601040674
 31
0.0
  0
ARC
  5
70C
  8
0
  6
CONTINUOUS
 62
     7
 10
3350.6226101220468081
 20
1814.9602635601040674
 30
0.0
 40
1.4999999999998841
 50
90.0
 51
180.0
  0
LINE
  5
70D
  8
0
  6
CONTINUOUS
 62
     7
 10
3349.1226101220468081
 20
1796.2102635601040674
 30
0.0
 11
3349.1226101220468081
 21
1814.9602635601040674
 31
0.0
  0
LINE
  5
70E
  8
0
  6
CONTINUOUS
 62
     7
 10
2949.6226101220458986
 20
1796.2102635601040674
 30
0.0
 11
3349.1226101220468081
 21
1796.2102635601040674
 31
0.0
  0
LINE
  5
70F
  8
0
  6
CONTINUOUS
 62
     7
 10
2949.6226101220458986
 20
1814.9602635601040674
 30
0.0
 11
2949.6226101220458986
 21
1796.2102635601040674
 31
0.0
  0
ARC
  5
710
  8
0
  6
CONTINUOUS
 62
     7
 10
2948.1226101220458986
 20
1814.9602635601040674
 30
0.0
 40
1.500000000000113
 50
0.0
 51
90.0
  0
LINE
  5
711
  8
0
  6
CONTINUOUS
 62
     7
 10
2929.3726101220458986
 20
1816.4602635601040674
 30
0.0
 11
2948.1226101220458986
 21
1816.4602635601040674
 31
0.0
  0
LINE
  5
712
  8
0
  6
CONTINUOUS
 62
     7
 10
2929.3726101220458986
 20
2215.9602635601040674
 30
0.0
 11
2929.3726101220458986
 21
1816.4602635601040674
 31
0.0
  0
CIRCLE
  5
713
  8
0
  6
CONTINUOUS
 62
     7
 10
3178.3726101220468081
 20
2208.7102635601040674
 30
0.0
 40
1.5000000000047731
  0
CIRCLE
  5
714
  8
0
  6
CONTINUOUS
 62
     7
 10
3178.3726101220468081
 20
2177.7102635601040674
 30
0.0
 40
1.5000000000047731
  0
CIRCLE
  5
715
  8
0
  6
CONTINUOUS
 62
     7
 10
3147.3726101220458986
 20
2177.7102635601040674
 30
0.0
 40
1.500000000005002
  0
CIRCLE
  5
716
  8
0
  6
CONTINUOUS
 62
     7
 10
3147.3726101220458986
 20
2208.7102635601040674
 30
0.0
 40
1.500000000005002
  0
CIRCLE
  5
717
  8
0
  6
CONTINUOUS
 62
     7
 10
3162.8726101220468081
 20
2193.2102635601040674
 30
0.0
 40
11.0000000000047695
  0
CIRCLE
  5
718
  8
0
  6
CONTINUOUS
 62
     7
 10
3256.3726101220468081
 20
1974.2102635601040674
 30
0.0
 40
1.9999999999943141
  0
CIRCLE
  5
719
  8
0
  6
CONTINUOUS
 62
     7
 10
3306.3726101220468081
 20
1974.2102635601040674
 30
0.0
 40
1.9999999999943141
  0
CIRCLE
  5
71A
  8
0
  6
CONTINUOUS
 62
     7
 10
3306.3726101220468081
 20
2124.2102635601040674
 30
0.0
 40
1.999999999994543
  0
CIRCLE
  5
71B
  8
0
  6
CONTINUOUS
 62
     7
 10
3256.3726101220468081
 20
2124.2102635601040674
 30
0.0
 40
1.9999999999943141
  0
ARC
  5
71C
  8
0
  6
CONTINUOUS
 62
     7
 10
2967.7835201514458277
 20
2205.9643193400038399
 30
0.0
 40
2.0000000000000151
 50
14.9999999999944507
 51
135.0000000000092086
  0
LINE
  5
71D
  8
0
  6
CONTINUOUS
 62
     7
 10
2966.369306589047028
 20
2207.3785329024040038
 30
0.0
 11
2958.2043407797459622
 21
2199.2135670931052118
 31
0.0
  0
ARC
  5
71E
  8
0
  6
CONTINUOUS
 62
     7
 10
2959.6185543421461261
 20
2197.7993535307041384
 30
0.0
 40
2.000000000000095
 50
135.0000000000092086
 51
255.0000000000055991
  0
LINE
  5
71F
  8
0
  6
CONTINUOUS
 62
     7
 10
2959.1009162519458187
 20
2195.8675018781041217
 30
0.0
 11
2970.2544669684471046
 21
2192.8789169709039015
 31
0.0
  0
ARC
  5
720
  8
0
  6
CONTINUOUS
 62
     7
 10
2970.7721050586460478
 20
2194.8107686235039182
 30
0.0
 40
2.0000000000000311
 50
255.0000000000055991
 51
14.9999999999944507
  0
LINE
  5
721
  8
0
  6
CONTINUOUS
 62
     7
 10
2972.7039567112460645
 20
2195.3284067137051352
 30
0.0
 11
2969.7153718040458443
 21
2206.4819574302041474
 31
0.0
  0
ARC
  5
722
  8
0
  6
CONTINUOUS
 62
     7
 10
3330.9617000926459696
 20
2205.9643193400038399
 30
0.0
 40
2.00000000000006
 50
44.9999999999907772
 51
165.0000000000055138
  0
LINE
  5
723
  8
0
  6
CONTINUOUS
 62
     7
 10
3329.0298484400459529
 20
2206.4819574302041474
 30
0.0
 11
3326.0412635328461874
 21
2195.3284067137051352
 31
0.0
  0
ARC
  5
724
  8
0
  6
CONTINUOUS
 62
     7
 10
3327.9731151854462041
 20
2194.8107686235039182
 30
0.0
 40
2.00000000000006
 50
165.0000000000055138
 51
284.9999999999943725
  0
LINE
  5
725
  8
0
  6
CONTINUOUS
 62
     7
 10
3328.4907532756469664
 20
2192.8789169709039015
 30
0.0
 11
3339.6443039921459786
 21
2195.8675018781041217
 31
0.0
  0
ARC
  5
726
  8
0
  6
CONTINUOUS
 62
     7
 10
3339.1266659019470353
 20
2197.7993535307041384
 30
0.0
 40
1.99999999999995
 50
284.9999999999943725
 51
44.9999999999907772
  0
LINE
  5
727
  8
0
  6
CONTINUOUS
 62
     7
 10
3340.540879464345835
 20
2199.2135670931052118
 30
0.0
 11
3332.375913655047043
 21
2207.3785329024040038
 31
0.0
  0
CIRCLE
  5
728
  8
0
  6
CONTINUOUS
 62
     7
 10
3359.3726101220458986
 20
1871.4602635601040674
 30
0.0
 40
2.1000000000001351
  0
CIRCLE
  5
729
  8
0
  6
CONTINUOUS
 62
     7
 10
3359.3726101220458986
 20
2160.9602635601040674
 30
0.0
 40
2.1000000000001351
  0
CIRCLE
  5
72A
  8
0
  6
CONTINUOUS
 62
     7
 10
3225.3726101220468081
 20
2216.2102635601040674
 30
0.0
 40
4.0000000000052278
  0
CIRCLE
  5
72B
  8
0
  6
CONTINUOUS
 62
     7
 10
3100.3726101220468081
 20
2216.2102635601040674
 30
0.0
 40
4.0000000000047731
  0
CIRCLE
  5
72C
  8
0
  6
CONTINUOUS
 62
     7
 10
2974.3726101220458986
 20
1846.2102635601040674
 30
0.0
 40
4.0
  0
CIRCLE
  5
72D
  8
0
  6
CONTINUOUS
 62
     7
 10
3324.3726101220468081
 20
1846.2102635601040674
 30
0.0
 40
4.0
  0
ARC
  5
72E
  8
0
  6
CONTINUOUS
 62
     7
 10
2978.3726101220458986
 20
2132.2102635601040674
 30
0.0
 40
1.4999999999998841
 50
90.0
 51
180.0
  0
ARC
  5
72F
  8
0
  6
CONTINUOUS
 62
     7
 10
3140.3726101220458986
 20
2132.2102635601040674
 30
0.0
 40
1.4999999999998841
 50
0.0
 51
90.0
  0
ARC
  5
730
  8
0
  6
CONTINUOUS
 62
     7
 10
3140.3726101220458986
 20
1940.2102635601040674
 30
0.0
 40
1.5
 50
270.0
 51
0.0
  0
ARC
  5
731
  8
0
  6
CONTINUOUS
 62
     7
 10
2978.3726101220458986
 20
1940.2102635601040674
 30
0.0
 40
1.4999999999998841
 50
180.0
 51
270.0
  0
LINE
  5
732
  8
0
  6
CONTINUOUS
 62
     7
 10
3140.3726101220458986
 20
2133.7102635601040674
 30
0.0
 11
2978.3726101220458986
 21
2133.7102635601040674
 31
0.0
  0
LINE
  5
733
  8
0
  6
CONTINUOUS
 62
     7
 10
3141.8726101220458986
 20
1940.2102635601040674
 30
0.0
 11
3141.8726101220458986
 21
2132.2102635601040674
 31
0.0
  0
LINE
  5
734
  8
0
  6
CONTINUOUS
 62
     7
 10
2978.3726101220458986
 20
1938.7102635601040674
 30
0.0
 11
3140.3726101220458986
 21
1938.7102635601040674
 31
0.0
  0
LINE
  5
735
  8
0
  6
CONTINUOUS
 62
     7
 10
2976.8726101220458986
 20
2132.2102635601040674
 30
0.0
 11
2976.8726101220458986
 21
1940.2102635601040674
 31
0.0
  0
ARC
  5
736
  8
0
  6
CONTINUOUS
 62
     7
 10
2983.3726101220458986
 20
2127.2102635601040674
 30
0.0
 40
1.5000000000002249
 50
90.0
 51
180.0
  0
LINE
  5
737
  8
0
  6
CONTINUOUS
 62
     7
 10
3136.8726101220458986
 20
2127.2102635601040674
 30
0.0
 11
3136.8726101220458986
 21
1945.2102635601040674
 31
0.0
  0
ARC
  5
738
  8
0
  6
CONTINUOUS
 62
     7
 10
2983.3726101220458986
 20
1945.2102635601040674
 30
0.0
 40
1.5000000000002249
 50
180.0
 51
270.0
  0
ARC
  5
739
  8
0
  6
CONTINUOUS
 62
     7
 10
3135.3726101220458986
 20
1945.2102635601040674
 30
0.0
 40
1.5000000000002249
 50
270.0
 51
0.0
  0
ARC
  5
73A
  8
0
  6
CONTINUOUS
 62
     7
 10
3135.3726101220458986
 20
2127.2102635601040674
 30
0.0
 40
1.5000000000002249
 50
0.0
 51
90.0
  0
LINE
  5
73B
  8
0
  6
CONTINUOUS
 62
     7
 10
3135.3726101220458986
 20
1943.7102635601040674
 30
0.0
 11
2983.3726101220458986
 21
1943.7102635601040674
 31
0.0
  0
LINE
  5
73C
  8
0
  6
CONTINUOUS
 62
     7
 10
2983.3726101220458986
 20
2128.7102635601040674
 30
0.0
 11
3135.3726101220458986
 21
2128.7102635601040674
 31
0.0
  0
LINE
  5
73D
  8
0
  6
CONTINUOUS
 62
     7
 10
2981.8726101220458986
 20
1945.2102635601040674
 30
0.0
 11
2981.8726101220458986
 21
2127.2102635601040674
 31
0.0
  0
CIRCLE
  5
73E
  8
0
  6
CONTINUOUS
 62
     7
 10
3444.810722726459062
 20
2226.2102635601040674
 30
0.0
 40
2.099999999999965
  0
CIRCLE
  5
73F
  8
0
  6
CONTINUOUS
 62
     7
 10
3398.810722726459062
 20
2226.2102635601040674
 30
0.0
 40
2.099999999999965
  0
CIRCLE
  5
740
  8
0
  6
CONTINUOUS
 62
     7
 10
3401.810722726459062
 20
2156.2102635601040674
 30
0.0
 40
2.099999999999965
  0
CIRCLE
  5
741
  8
0
  6
CONTINUOUS
 62
     7
 10
3401.810722726459062
 20
2016.2102635601040674
 30
0.0
 40
2.099999999999965
  0
CIRCLE
  5
742
  8
0
  6
CONTINUOUS
 62
     7
 10
3401.810722726459062
 20
1876.2102635601040674
 30
0.0
 40
2.0999999999999921
  0
CIRCLE
  5
743
  8
0
  6
CONTINUOUS
 62
     7
 10
3444.810722726459062
 20
1806.2102635601040674
 30
0.0
 40
2.0999999999999921
  0
CIRCLE
  5
744
  8
0
  6
CONTINUOUS
 62
     7
 10
3398.810722726459062
 20
1806.2102635601040674
 30
0.0
 40
2.0999999999999921
  0
LINE
  5
745
  8
0
  6
CONTINUOUS
 62
     7
 10
3438.5784889041578936
 20
1831.7648253241040948
 30
0.0
 11
3417.3652852355589857
 21
1852.9780289927039121
 31
0.0
  0
ARC
  5
746
  8
0
  6
CONTINUOUS
 62
     7
 10
3415.5975192909590987
 20
1851.2102635601040674
 30
0.0
 40
2.5000000000000502
 50
44.9999999999907914
 51
224.9999999999907914
  0
LINE
  5
747
  8
0
  6
CONTINUOUS
 62
     7
 10
3413.8297537743578687
 20
1849.4424975314038875
 30
0.0
 11
3435.0429555802588766
 21
1828.2292938628040702
 31
0.0
  0
ARC
  5
748
  8
0
  6
CONTINUOUS
 62
     7
 10
3436.810722726459062
 20
1829.9970601245040598
 30
0.0
 40
2.500000000000091
 50
224.9999999999907914
 51
44.9999999999907914
  0
LINE
  5
749
  8
0
  6
CONTINUOUS
 62
     7
 10
3438.5784889041578936
 20
1881.7648260691039468
 30
0.0
 11
3417.3652852355589857
 21
1902.9780297377039915
 31
0.0
  0
ARC
  5
74A
  8
0
  6
CONTINUOUS
 62
     7
 10
3415.5975192909590987
 20
1901.2102635601040674
 30
0.0
 40
2.5000000000002189
 50
44.9999999999907914
 51
224.9999999999907914
  0
LINE
  5
74B
  8
0
  6
CONTINUOUS
 62
     7
 10
3413.8297537743578687
 20
1899.4424982765040113
 30
0.0
 11
3435.0429555802588766
 21
1878.2292946079039666
 31
0.0
  0
ARC
  5
74C
  8
0
  6
CONTINUOUS
 62
     7
 10
3436.810722726459062
 20
1879.9970601245040598
 30
0.0
 40
2.500000000000099
 50
224.9999999999907914
 51
44.9999999999907914
  0
LINE
  5
74D
  8
0
  6
CONTINUOUS
 62
     7
 10
3438.5784889041578936
 20
1931.7648305395039188
 30
0.0
 11
3417.3652852355589857
 21
1952.9780342081039635
 31
0.0
  0
ARC
  5
74E
  8
0
  6
CONTINUOUS
 62
     7
 10
3415.5975192909590987
 20
1951.2102635601040674
 30
0.0
 40
2.5000000000000391
 50
44.9999999999907914
 51
224.9999999999907914
  0
LINE
  5
74F
  8
0
  6
CONTINUOUS
 62
     7
 10
3413.8297537743578687
 20
1949.4424952963040596
 30
0.0
 11
3435.0429555802588766
 21
1928.2292916277040149
 31
0.0
  0
ARC
  5
750
  8
0
  6
CONTINUOUS
 62
     7
 10
3436.810722726459062
 20
1929.9970601245040598
 30
0.0
 40
2.5000000000000191
 50
224.9999999999907914
 51
44.9999999999907914
  0
LINE
  5
751
  8
0
  6
CONTINUOUS
 62
     7
 10
3438.5784889041578936
 20
1981.7648275593039671
 30
0.0
 11
3417.3652852355589857
 21
2002.9780312278039673
 31
0.0
  0
ARC
  5
752
  8
0
  6
CONTINUOUS
 62
     7
 10
3415.5975192908590543
 20
2001.2102635601040674
 30
0.0
 40
2.5000000000001799
 50
44.9999999999907914
 51
224.9999999999907914
  0
LINE
  5
753
  8
0
  6
CONTINUOUS
 62
     7
 10
3413.8297537743578687
 20
1999.4424923160040635
 30
0.0
 11
3435.0429555802588766
 21
1978.2292886474040188
 31
0.0
  0
ARC
  5
754
  8
0
  6
CONTINUOUS
 62
     7
 10
3436.810722726459062
 20
1979.9970601245040598
 30
0.0
 40
2.50000000000006
 50
224.9999999999907914
 51
44.9999999999907914
  0
LINE
  5
755
  8
0
  6
CONTINUOUS
 62
     7
 10
3438.5784889041578936
 20
2031.7648245790039709
 30
0.0
 11
3417.3652852355589857
 21
2052.978043148803863
 31
0.0
  0
ARC
  5
756
  8
0
  6
CONTINUOUS
 62
     7
 10
3415.5975192908590543
 20
2051.2102635601040674
 30
0.0
 40
2.500000000000099
 50
44.9999999999907914
 51
224.9999999999907914
  0
LINE
  5
757
  8
0
  6
CONTINUOUS
 62
     7
 10
3413.8297537743578687
 20
2049.4425042370039591
 30
0.0
 11
3435.0429555802588766
 21
2028.2293005684039144
 31
0.0
  0
ARC
  5
758
  8
0
  6
CONTINUOUS
 62
     7
 10
3436.810722726459062
 20
2029.9970601245040598
 30
0.0
 40
2.5000000000000191
 50
224.9999999999907914
 51
44.9999999999907914
  0
LINE
  5
759
  8
0
  6
CONTINUOUS
 62
     7
 10
3438.5784889041578936
 20
2081.7648215988037919
 30
0.0
 11
3417.3652852355589857
 21
2102.9780252674040639
 31
0.0
  0
ARC
  5
75A
  8
0
  6
CONTINUOUS
 62
     7
 10
3415.5975192908590543
 20
2101.2102635601040674
 30
0.0
 40
2.500000000000099
 50
44.9999999999907914
 51
224.9999999999907914
  0
LINE
  5
75B
  8
0
  6
CONTINUOUS
 62
     7
 10
3413.8297537743578687
 20
2099.4424863556041601
 30
0.0
 11
3435.0429555802588766
 21
2078.229282687003888
 31
0.0
  0
ARC
  5
75C
  8
0
  6
CONTINUOUS
 62
     7
 10
3436.810722726459062
 20
2079.9970601245040598
 30
0.0
 40
2.5000000000000191
 50
224.9999999999907914
 51
44.9999999999907914
  0
LINE
  5
75D
  8
0
  6
CONTINUOUS
 62
     7
 10
3438.5784889041578936
 20
2131.7648335197040979
 30
0.0
 11
3417.3652852355589857
 21
2152.9780371883039152
 31
0.0
  0
ARC
  5
75E
  8
0
  6
CONTINUOUS
 62
     7
 10
3415.5975192908590543
 20
2151.2102635601040674
 30
0.0
 40
2.500000000000099
 50
44.9999999999907914
 51
224.9999999999907914
  0
LINE
  5
75F
  8
0
  6
CONTINUOUS
 62
     7
 10
3413.8297537743578687
 20
2149.4424982765040113
 30
0.0
 11
3435.0429555802588766
 21
2128.229294607904194
 31
0.0
  0
ARC
  5
760
  8
0
  6
CONTINUOUS
 62
     7
 10
3436.810722726459062
 20
2129.9970601245040598
 30
0.0
 40
2.500000000000099
 50
224.9999999999907914
 51
44.9999999999907914
  0
LINE
  5
761
  8
0
  6
CONTINUOUS
 62
     7
 10
3438.5784889041578936
 20
2181.764815638303844
 30
0.0
 11
3417.3652852355589857
 21
2202.9780193069041161
 31
0.0
  0
ARC
  5
762
  8
0
  6
CONTINUOUS
 62
     7
 10
3415.5975192908590543
 20
2201.2102635601040674
 30
0.0
 40
2.5000000000000191
 50
44.9999999999907914
 51
224.9999999999907914
  0
LINE
  5
763
  8
0
  6
CONTINUOUS
 62
     7
 10
3413.8297537743578687
 20
2199.4425101974038625
 30
0.0
 11
3435.0429555802588766
 21
2178.2293065288040452
 31
0.0
  0
ARC
  5
764
  8
0
  6
CONTINUOUS
 62
     7
 10
3436.810722726459062
 20
2179.9970601245040598
 30
0.0
 40
2.500000000000099
 50
224.9999999999907914
 51
44.9999999999907914
  0
LINE
  5
765
  8
0
  6
CONTINUOUS
 62
     7
 10
3386.8107224284590302
 20
1796.2102635601040674
 30
0.0
 11
3456.810722726459062
 21
1796.2102635601040674
 31
0.0
  0
LINE
  5
766
  8
0
  6
CONTINUOUS
 62
     7
 10
3386.8107224284590302
 20
2236.2102611759041793
 30
0.0
 11
3386.8107224284590302
 21
1796.2102635601040674
 31
0.0
  0
LINE
  5
767
  8
0
  6
CONTINUOUS
 62
     7
 10
3456.810722726459062
 20
2236.2102611759041793
 30
0.0
 11
3386.8107224284590302
 21
2236.2102611759041793
 31
0.0
  0
LINE
  5
768
  8
0
  6
CONTINUOUS
 62
     7
 10
3456.810722726459062
 20
2212.2102721431037935
 30
0.0
 11
3456.810722726459062
 21
2236.2102611759041793
 31
0.0
  0
LINE
  5
769
  8
0
  6
CONTINUOUS
 62
     7
 10
3454.7396548028591496
 20
2210.1391895511042094
 30
0.0
 11
3456.810722726459062
 21
2212.2102721431037935
 31
0.0
  0
ARC
  5
76A
  8
0
  6
CONTINUOUS
 62
     7
 10
3461.810722726459062
 20
2203.0681279363047906
 30
0.0
 40
10.0
 50
135.0000000000092086
 51
180.0
  0
LINE
  5
76B
  8
0
  6
CONTINUOUS
 62
     7
 10
3451.8107228382591529
 20
1829.3523981073039977
 30
0.0
 11
3451.8107228382591529
 21
2203.068141529804052
 31
0.0
  0
ARC
  5
76C
  8
0
  6
CONTINUOUS
 62
     7
 10
3461.810722726459062
 20
1829.3523991838039819
 30
0.0
 40
10.0
 50
180.0
 51
224.9999999999907914
  0
LINE
  5
76D
  8
0
  6
CONTINUOUS
 62
     7
 10
3456.810722726459062
 20
1820.2102637687039532
 30
0.0
 11
3454.7396548028591496
 21
1822.2813314595039174
 31
0.0
  0
LINE
  5
76E
  8
0
  6
CONTINUOUS
 62
     7
 10
3456.810722726459062
 20
1796.2102635601040674
 30
0.0
 11
3456.810722726459062
 21
1820.2102637687039532
 31
0.0
  0
LINE
  5
76F
  8
0
  6
CONTINUOUS
 62
     7
 10
3438.5784889041578936
 20
2156.7648394802049552
 30
0.0
 11
3417.3652852355589857
 21
2177.978043148803863
 31
0.0
  0
ARC
  5
770
  8
0
  6
CONTINUOUS
 62
     7
 10
3415.5975192908590543
 20
2176.2102635601040674
 30
0.0
 40
2.500000000000099
 50
44.9999999999907914
 51
224.9999999999907914
  0
LINE
  5
771
  8
0
  6
CONTINUOUS
 62
     7
 10
3413.8297537743578687
 20
2174.4425042370039591
 30
0.0
 11
3435.0429555802588766
 21
2153.2293005684041418
 31
0.0
  0
ARC
  5
772
  8
0
  6
CONTINUOUS
 62
     7
 10
3436.810722726459062
 20
2154.9970601245040598
 30
0.0
 40
2.5000000000001799
 50
224.9999999999907914
 51
44.9999999999907914
  0
LINE
  5
773
  8
0
  6
CONTINUOUS
 62
     7
 10
3438.5784889041578936
 20
2106.7648275593041944
 30
0.0
 11
3417.3652852355589857
 21
2127.9780312278039673
 31
0.0
  0
ARC
  5
774
  8
0
  6
CONTINUOUS
 62
     7
 10
3415.5975192908590543
 20
2126.2102635601040674
 30
0.0
 40
2.50000000000006
 50
44.9999999999907914
 51
224.9999999999907914
  0
LINE
  5
775
  8
0
  6
CONTINUOUS
 62
     7
 10
3413.8297537743578687
 20
2124.4424923160040635
 30
0.0
 11
3435.0429555802588766
 21
2103.2292886474037914
 31
0.0
  0
ARC
  5
776
  8
0
  6
CONTINUOUS
 62
     7
 10
3436.810722726459062
 20
2104.9970601245040598
 30
0.0
 40
2.5000000000001799
 50
224.9999999999907914
 51
44.9999999999907914
  0
LINE
  5
777
  8
0
  6
CONTINUOUS
 62
     7
 10
3438.5784889041578936
 20
2056.764815638303844
 30
0.0
 11
3417.3652852355589857
 21
2077.9780193069041161
 31
0.0
  0
ARC
  5
778
  8
0
  6
CONTINUOUS
 62
     7
 10
3415.5975192908590543
 20
2076.2102635601040674
 30
0.0
 40
2.500000000000099
 50
44.9999999999907914
 51
224.9999999999907914
  0
LINE
  5
779
  8
0
  6
CONTINUOUS
 62
     7
 10
3413.8297537743578687
 20
2074.4425101974038625
 30
0.0
 11
3435.0429555802588766
 21
2053.2293065288040452
 31
0.0
  0
ARC
  5
77A
  8
0
  6
CONTINUOUS
 62
     7
 10
3436.810722726459062
 20
2054.9970601245040598
 30
0.0
 40
2.5000000000000191
 50
224.9999999999907914
 51
44.9999999999907914
  0
LINE
  5
77B
  8
0
  6
CONTINUOUS
 62
     7
 10
3438.5784889041578936
 20
2006.7648335197040979
 30
0.0
 11
3417.3652852355589857
 21
2027.9780371883039152
 31
0.0
  0
ARC
  5
77C
  8
0
  6
CONTINUOUS
 62
     7
 10
3415.5975192908590543
 20
2026.2102635601040674
 30
0.0
 40
2.50000000000006
 50
44.9999999999907914
 51
224.9999999999907914
  0
LINE
  5
77D
  8
0
  6
CONTINUOUS
 62
     7
 10
3413.8297537743578687
 20
2024.4424982765040113
 30
0.0
 11
3435.0429555802588766
 21
2003.2292946079039666
 31
0.0
  0
ARC
  5
77E
  8
0
  6
CONTINUOUS
 62
     7
 10
3436.810722726459062
 20
2004.9970601245040598
 30
0.0
 40
2.5000000000000191
 50
224.9999999999907914
 51
44.9999999999907914
  0
LINE
  5
77F
  8
0
  6
CONTINUOUS
 62
     7
 10
3438.5784889041578936
 20
1956.7648215988040192
 30
0.0
 11
3417.3652852355589857
 21
1977.9780252674040639
 31
0.0
  0
ARC
  5
780
  8
0
  6
CONTINUOUS
 62
     7
 10
3415.5975192908590543
 20
1976.2102635601040674
 30
0.0
 40
2.50000000000006
 50
44.9999999999907914
 51
224.9999999999907914
  0
LINE
  5
781
  8
0
  6
CONTINUOUS
 62
     7
 10
3413.8297537743578687
 20
1974.442501256703963
 30
0.0
 11
3435.0429555802588766
 21
1953.2292975881030088
 31
0.0
  0
ARC
  5
782
  8
0
  6
CONTINUOUS
 62
     7
 10
3436.810722726459062
 20
1954.9970601245040598
 30
0.0
 40
2.5000000000000191
 50
224.9999999999907914
 51
44.9999999999907914
  0
LINE
  5
783
  8
0
  6
CONTINUOUS
 62
     7
 10
3438.5784889041578936
 20
1906.7648245790039709
 30
0.0
 11
3417.3652852355589857
 21
1927.9780282476040156
 31
0.0
  0
ARC
  5
784
  8
0
  6
CONTINUOUS
 62
     7
 10
3415.5975192909590987
 20
1926.2102635601040674
 30
0.0
 40
2.5000000000000191
 50
44.9999999999907914
 51
224.9999999999907914
  0
LINE
  5
785
  8
0
  6
CONTINUOUS
 62
     7
 10
3413.8297537743578687
 20
1924.4424893358041118
 30
0.0
 11
3435.0429555802588766
 21
1903.2292931178039908
 31
0.0
  0
ARC
  5
786
  8
0
  6
CONTINUOUS
 62
     7
 10
3436.810722726459062
 20
1904.9970601245040598
 30
0.0
 40
2.500000000000079
 50
224.9999999999907914
 51
44.9999999999907914
  0
LINE
  5
787
  8
0
  6
CONTINUOUS
 62
     7
 10
3438.5784889041578936
 20
1856.7648275593039671
 30
0.0
 11
3417.3652852355589857
 21
1877.9780312278039673
 31
0.0
  0
ARC
  5
788
  8
0
  6
CONTINUOUS
 62
     7
 10
3415.5975192909590987
 20
1876.2102635601040674
 30
0.0
 40
2.5000000000002189
 50
44.9999999999907914
 51
224.9999999999907914
  0
LINE
  5
789
  8
0
  6
CONTINUOUS
 62
     7
 10
3413.8297537743578687
 20
1874.4424997666039872
 30
0.0
 11
3435.0429555802588766
 21
1853.2292923727040943
 31
0.0
  0
ARC
  5
78A
  8
0
  6
CONTINUOUS
 62
     7
 10
3436.810722726459062
 20
1854.9970601245040598
 30
0.0
 40
2.500000000000099
 50
224.9999999999907914
 51
44.9999999999907914
  0
CIRCLE
  5
7D8
  8
0
  6
CONTINUOUS
 62
     7
 10
3851.7870520059750561
 20
1900.7018673880379538
 30
0.0
 40
2.099999999999965
  0
CIRCLE
  5
7D9
  8
0
  6
CONTINUOUS
 62
     7
 10
3851.7870520059750561
 20
1953.7018673880379538
 30
0.0
 40
2.099999999999965
  0
CIRCLE
  5
7DA
  8
0
  6
CONTINUOUS
 62
     7
 10
3899.7870520059750561
 20
1953.7018673880379538
 30
0.0
 40
2.0
  0
ARC
  5
7DB
  8
0
  6
CONTINUOUS
 62
     7
 10
3872.2123878893748952
 20
1898.7018673880379538
 30
0.0
 40
10.0
 50
270.0
 51
328.2763970423152955
  0
LINE
  5
7DC
  8
0
  6
CONTINUOUS
 62
     7
 10
3872.2123871747749035
 20
1888.7018644078380021
 30
0.0
 11
3836.7870520059759656
 21
1888.7018644078380021
 31
0.0
  0
LINE
  5
7DD
  8
0
  6
CONTINUOUS
 62
     7
 10
3836.7870520059759656
 20
1888.7018644078380021
 30
0.0
 11
3836.7870520059759656
 21
1963.7018673880379538
 31
0.0
  0
LINE
  5
7DE
  8
0
  6
CONTINUOUS
 62
     7
 10
3836.7870520059759656
 20
1963.7018673880379538
 30
0.0
 11
3911.7870549861750078
 21
1963.7018673880379538
 31
0.0
  0
LINE
  5
7DF
  8
0
  6
CONTINUOUS
 62
     7
 10
3911.7870549861750078
 20
1963.7018673880379538
 30
0.0
 11
3911.7870549861750078
 21
1946.5432361527380181
 31
0.0
  0
ARC
  5
7E0
  8
0
  6
CONTINUOUS
 62
     7
 10
3901.7870520059750561
 20
1946.5432358119380751
 30
0.0
 40
10.0000000000000693
 50
328.2763970423152955
 51
0.0
  0
CIRCLE
  5
7E1
  8
0
  6
CONTINUOUS
 62
     7
 10
3867.2870520059759656
 20
1902.3518673880380447
 30
0.0
 40
4.0000000000002274
  0
LINE
  5
7E2
  8
0
  6
CONTINUOUS
 62
     7
 10
3910.2929975096749331
 20
1941.2850149734379102
 30
0.0
 11
3880.7183350626751235
 21
1893.4436448677379303
 31
0.0
  0
CIRCLE
  5
7E3
  8
0
  6
CONTINUOUS
 62
     7
 10
3903.1766933453768615
 20
1876.7449758280390597
 30
0.0
 40
2.0999999999999082
  0
CIRCLE
  5
7E4
  8
0
  6
CONTINUOUS
 62
     7
 10
3951.1766933453768615
 20
1876.7449758280390597
 30
0.0
 40
2.0999999999999082
  0
LINE
  5
7E5
  8
0
  6
CONTINUOUS
 62
     7
 10
3891.1766903651769098
 20
1886.7449758280390597
 30
0.0
 11
3966.1766933453768615
 21
1886.7449758280390597
 31
0.0
  0
LINE
  5
7E6
  8
0
  6
CONTINUOUS
 62
     7
 10
3966.1766933453768615
 20
1886.7449758280390597
 30
0.0
 11
3966.176693345375952
 21
1811.7449728477390636
 31
0.0
  0
LINE
  5
7E7
  8
0
  6
CONTINUOUS
 62
     7
 10
3966.176693345375952
 20
1811.7449728477390636
 30
0.0
 11
3930.7513581765761046
 21
1811.7449728477390636
 31
0.0
  0
ARC
  5
7E8
  8
0
  6
CONTINUOUS
 62
     7
 10
3930.7513574620770669
 20
1821.7449758280390597
 30
0.0
 40
10.0000000000000693
 50
211.7236029576795033
 51
270.0
  0
LINE
  5
7E9
  8
0
  6
CONTINUOUS
 62
     7
 10
3922.2454102886767942
 20
1816.4867533076389918
 30
0.0
 11
3892.6707478416769845
 21
1864.3281234134390161
 31
0.0
  0
ARC
  5
7EA
  8
0
  6
CONTINUOUS
 62
     7
 10
3901.1766933453768615
 20
1869.5863442519389537
 30
0.0
 40
10.0000000000000693
 50
180.0
 51
211.7236029576795033
  0
LINE
  5
7EB
  8
0
  6
CONTINUOUS
 62
     7
 10
3891.1766903651769098
 20
1869.5863445926390796
 30
0.0
 11
3891.1766903651769098
 21
1886.7449758280390597
 31
0.0
  0
CIRCLE
  5
7EC
  8
0
  6
CONTINUOUS
 62
     7
 10
3935.6766933454759965
 20
1825.3949758280389233
 30
0.0
 40
3.999999999991132
  0
CIRCLE
  5
7ED
  8
0
  6
CONTINUOUS
 62
     7
 10
3951.176693345375952
 20
1823.7449758280390597
 30
0.0
 40
2.0999999999999082
  0
CIRCLE
  5
7EE
  8
0
  6
CONTINUOUS
 62
     7
 10
3873.2964288646548994
 20
2026.8639777006899294
 30
0.0
 40
2.0999999999999921
  0
CIRCLE
  5
7EF
  8
0
  6
CONTINUOUS
 62
     7
 10
3845.2964288646548994
 20
2059.8639777006901568
 30
0.0
 40
2.0999999999999921
  0
LINE
  5
7F0
  8
0
  6
CONTINUOUS
 62
     7
 10
3835.2964288646548994
 20
2069.8639777006901568
 30
0.0
 11
3835.2964288646548994
 21
1979.8639741243900971
 31
0.0
  0
LINE
  5
7F1
  8
0
  6
CONTINUOUS
 62
     7
 10
3910.2964318448548511
 20
2069.8639777006901568
 30
0.0
 11
3835.2964288646548994
 21
2069.8639777006901568
 31
0.0
  0
LINE
  5
7F2
  8
0
  6
CONTINUOUS
 62
     7
 10
3910.2964318448548511
 20
2053.3226084412899581
 30
0.0
 11
3910.2964318448548511
 21
2069.8639777006901568
 31
0.0
  0
ARC
  5
7F3
  8
0
  6
CONTINUOUS
 62
     7
 10
3900.2964288646548994
 20
2053.3226084413900026
 30
0.0
 40
10.0
 50
321.8427734126028099
 51
0.0
  0
LINE
  5
7F4
  8
0
  6
CONTINUOUS
 62
     7
 10
3858.2992601299552007
 20
1983.6857643427899802
 30
0.0
 11
3908.1596127802549745
 21
2047.1443932952900013
 31
0.0
  0
ARC
  5
7F5
  8
0
  6
CONTINUOUS
 62
     7
 10
3850.4360761398547766
 20
1989.8639777006899294
 30
0.0
 40
9.9999999999999911
 50
270.0
 51
321.8427734126028099
  0
LINE
  5
7F6
  8
0
  6
CONTINUOUS
 62
     7
 10
3835.2964288646548994
 20
1979.8639741243900971
 30
0.0
 11
3850.4360756928549563
 21
1979.8639741243900971
 31
0.0
  0
CIRCLE
  5
7F7
  8
0
  6
CONTINUOUS
 62
     7
 10
3898.2964288646548994
 20
2059.8639777006901568
 30
0.0
 40
2.0999999999999801
  0
CIRCLE
  5
7F8
  8
0
  6
CONTINUOUS
 62
     7
 10
3845.2964288646548994
 20
1991.8639777006899294
 30
0.0
 40
2.1000000000000001
  0
CIRCLE
  5
7F9
  8
0
  6
CONTINUOUS
 62
     7
 10
3931.4791799323547821
 20
2021.5030514861900883
 30
0.0
 40
2.0999999999999921
  0
CIRCLE
  5
7FA
  8
0
  6
CONTINUOUS
 62
     7
 10
3959.4791799323547821
 20
1988.5030514862899054
 30
0.0
 40
2.1000000000000001
  0
LINE
  5
7FB
  8
0
  6
CONTINUOUS
 62
     7
 10
3969.4791799323547821
 20
1978.5030514862899054
 30
0.0
 11
3969.4791799323547821
 21
2068.503055062490148
 31
0.0
  0
LINE
  5
7FC
  8
0
  6
CONTINUOUS
 62
     7
 10
3894.4791769520547859
 20
1978.5030514862899054
 30
0.0
 11
3969.4791799323547821
 21
1978.5030514862899054
 31
0.0
  0
LINE
  5
7FD
  8
0
  6
CONTINUOUS
 62
     7
 10
3894.4791769520547859
 20
1995.0444207455900596
 30
0.0
 11
3894.4791769520547859
 21
1978.5030514862899054
 31
0.0
  0
ARC
  5
7FE
  8
0
  6
CONTINUOUS
 62
     7
 10
3904.4791799323547821
 20
1995.0444207455900596
 30
0.0
 40
10.0000000000000497
 50
141.8427734126028099
 51
180.0
  0
LINE
  5
7FF
  8
0
  6
CONTINUOUS
 62
     7
 10
3946.4763486669548911
 20
2064.6812648441900819
 30
0.0
 11
3896.6159960166551173
 21
2001.2226358916900608
 31
0.0
  0
ARC
  5
800
  8
0
  6
CONTINUOUS
 62
     7
 10
3954.3395326571549049
 20
2058.5030514862901327
 30
0.0
 40
10.0000000000000302
 50
90.0
 51
141.8427734126028099
  0
LINE
  5
801
  8
0
  6
CONTINUOUS
 62
     7
 10
3969.4791799323547821
 20
2068.503055062490148
 30
0.0
 11
3954.3395331041551799
 21
2068.503055062490148
 31
0.0
  0
CIRCLE
  5
802
  8
0
  6
CONTINUOUS
 62
     7
 10
3906.4791799323547821
 20
1988.5030514862899054
 30
0.0
 40
2.1000000000000001
  0
CIRCLE
  5
803
  8
0
  6
CONTINUOUS
 62
     7
 10
3959.4791799323547821
 20
2056.5030514862901327
 30
0.0
 40
2.0999999999999921
  0
CIRCLE
  5
804
  8
0
  6
CONTINUOUS
 62
     7
 10
3079.1941618981468309
 20
2051.4201518057038811
 30
0.0
 40
1.5
  0
CIRCLE
  5
805
  8
0
  6
CONTINUOUS
 62
     7
 10
3059.1941618981468309
 20
2112.4201518041040799
 30
0.0
 40
2.1000000000000232
  0
ARC
  5
806
  8
0
  6
CONTINUOUS
 62
     7
 10
3116.5797827372462052
 20
2091.9201518041040799
 30
0.0
 40
1.500000000000113
 50
270.0
 51
90.0
  0
LINE
  5
807
  8
0
  6
CONTINUOUS
 62
     7
 10
3108.5797818812470723
 20
2093.4201526401047886
 30
0.0
 11
3116.5797831925469836
 21
2093.4201526401047886
 31
0.0
  0
ARC
  5
808
  8
0
  6
CONTINUOUS
 62
     7
 10
3108.5797827372462052
 20
2091.9201518041040799
 30
0.0
 40
1.500000000000113
 50
90.0
 51
270.0
  0
LINE
  5
809
  8
0
  6
CONTINUOUS
 62
     7
 10
3116.5797831925469836
 20
2090.4201502857040396
 30
0.0
 11
3108.5797818812470723
 21
2090.4201502857040396
 31
0.0
  0
ARC
  5
80A
  8
0
  6
CONTINUOUS
 62
     7
 10
3116.5797827372462052
 20
2060.9201518041040799
 30
0.0
 40
1.500000000000113
 50
270.0
 51
90.0
  0
LINE
  5
80B
  8
0
  6
CONTINUOUS
 62
     7
 10
3108.5797818812470723
 20
2062.4201531468038411
 30
0.0
 11
3116.5797831925469836
 21
2062.4201531468038411
 31
0.0
  0
ARC
  5
80C
  8
0
  6
CONTINUOUS
 62
     7
 10
3108.5797827372462052
 20
2060.9201518041040799
 30
0.0
 40
1.500000000000113
 50
90.0
 51
270.0
  0
LINE
  5
80D
  8
0
  6
CONTINUOUS
 62
     7
 10
3116.5797831925469836
 20
2059.420150792404911
 30
0.0
 11
3108.5797818812470723
 21
2059.420150792404911
 31
0.0
  0
LINE
  5
80E
  8
0
  6
CONTINUOUS
 62
     7
 10
3077.5797842504462096
 20
2093.4201526401047886
 30
0.0
 11
3085.5797818365472267
 21
2093.4201526401047886
 31
0.0
  0
ARC
  5
80F
  8
0
  6
CONTINUOUS
 62
     7
 10
3077.5797827372462052
 20
2091.9201518041040799
 30
0.0
 40
1.500000000000113
 50
90.0
 51
270.0
  0
LINE
  5
810
  8
0
  6
CONTINUOUS
 62
     7
 10
3085.5797818365472267
 20
2090.4201502857040396
 30
0.0
 11
3077.5797842504462096
 21
2090.4201502857040396
 31
0.0
  0
ARC
  5
811
  8
0
  6
CONTINUOUS
 62
     7
 10
3085.5797827372471147
 20
2060.9201518041040799
 30
0.0
 40
1.500000000000113
 50
270.0
 51
90.0
  0
LINE
  5
812
  8
0
  6
CONTINUOUS
 62
     7
 10
3077.5797842504462096
 20
2062.4201531468038411
 30
0.0
 11
3085.5797818365472267
 21
2062.4201531468038411
 31
0.0
  0
ARC
  5
813
  8
0
  6
CONTINUOUS
 62
     7
 10
3077.5797827372462052
 20
2060.9201518041040799
 30
0.0
 40
1.500000000000113
 50
90.0
 51
270.0
  0
LINE
  5
814
  8
0
  6
CONTINUOUS
 62
     7
 10
3085.5797818365472267
 20
2059.420150792404911
 30
0.0
 11
3077.5797842504462096
 21
2059.420150792404911
 31
0.0
  0
CIRCLE
  5
815
  8
0
  6
CONTINUOUS
 62
     7
 10
3109.1941618981468309
 20
2051.4201518057038811
 30
0.0
 40
1.5
  0
CIRCLE
  5
816
  8
0
  6
CONTINUOUS
 62
     7
 10
3014.4662398373470751
 20
2067.6922297427040576
 30
0.0
 40
1.4999999999137099
  0
LINE
  5
817
  8
0
  6
CONTINUOUS
 62
     7
 10
3009.1941645803472056
 20
2037.4201509116039688
 30
0.0
 11
2989.1941613020458135
 21
2037.4201509116039688
 31
0.0
  0
LINE
  5
818
  8
0
  6
CONTINUOUS
 62
     7
 10
2989.1941613020458135
 20
2037.4201509116039688
 30
0.0
 11
2989.1941613020458135
 21
2122.4201518057038811
 31
0.0
  0
LINE
  5
819
  8
0
  6
CONTINUOUS
 62
     7
 10
2989.1941613020458135
 20
2122.4201518057038811
 30
0.0
 11
3129.1941618981459214
 21
2122.4201518057038811
 31
0.0
  0
LINE
  5
81A
  8
0
  6
CONTINUOUS
 62
     7
 10
3129.1941618981459214
 20
2122.4201518057038811
 30
0.0
 11
3129.1941618981459214
 21
2056.6214817522040903
 31
0.0
  0
ARC
  5
81B
  8
0
  6
CONTINUOUS
 62
     7
 10
3119.1941618981468309
 20
2056.6214806213038173
 30
0.0
 40
10.0000000000000409
 50
274.7636416907034231
 51
0.0
  0
LINE
  5
81C
  8
0
  6
CONTINUOUS
 62
     7
 10
3120.0246168734461207
 20
2046.6560247300039919
 30
0.0
 11
3009.1941645803472056
 21
2037.4201509116039688
 31
0.0
  0
CIRCLE
  5
81D
  8
0
  6
CONTINUOUS
 62
     7
 10
3039.9220839600470754
 20
2093.1480738654049674
 30
0.0
 40
1.4999999999137099
  0
CIRCLE
  5
81E
  8
0
  6
CONTINUOUS
 62
     7
 10
2999.1941618986461435
 20
2047.4201518057041085
 30
0.0
 40
2.0999999999999082
  0
CIRCLE
  5
81F
  8
0
  6
CONTINUOUS
 62
     7
 10
2999.1941618981468309
 20
2112.4201518041040799
 30
0.0
 40
2.1000000000000232
  0
CIRCLE
  5
820
  8
0
  6
CONTINUOUS
 62
     7
 10
3119.1941618981468309
 20
2112.4201518041040799
 30
0.0
 40
2.1000000000000232
  0
ARC
  5
821
  8
0
  6
CONTINUOUS
 62
     7
 10
3085.5797827372471147
 20
2091.9201518041040799
 30
0.0
 40
1.500000000000113
 50
270.0
 51
90.0
  0
CIRCLE
  5
822
  8
0
  6
CONTINUOUS
 62
     7
 10
3027.1941618986461435
 20
2080.4201518041040799
 30
0.0
 40
7.9999999992954809
  0
CIRCLE
  5
823
  8
0
  6
CONTINUOUS
 62
     7
 10
3027.1941618986461435
 20
2080.4201518041040799
 30
0.0
 40
4.9999999992954818
  0
LINE
  5
824
  8
0
  6
CONTINUOUS
 62
     7
 10
3061.8095069969458564
 20
2015.9169198335039255
 30
0.0
 11
3061.8095069969458564
 21
2023.9169211448040642
 31
0.0
  0
ARC
  5
825
  8
0
  6
CONTINUOUS
 62
     7
 10
3060.3095070207459685
 20
2023.9169208468040324
 30
0.0
 40
1.5
 50
0.0
 51
180.0
  0
LINE
  5
826
  8
0
  6
CONTINUOUS
 62
     7
 10
3058.8095069127462011
 20
2023.9169211448040642
 30
0.0
 11
3058.8095069127462011
 21
2015.9169198335039255
 31
0.0
  0
ARC
  5
827
  8
0
  6
CONTINUOUS
 62
     7
 10
3060.3095070207459685
 20
2015.9169208468040324
 30
0.0
 40
1.5
 50
180.0
 51
0.0
  0
ARC
  5
828
  8
0
  6
CONTINUOUS
 62
     7
 10
3082.3095070207459685
 20
1967.8614080921040568
 30
0.0
 40
20.0
 50
146.3099324739984866
 51
180.0
  0
LINE
  5
829
  8
0
  6
CONTINUOUS
 62
     7
 10
3062.3095070207459685
 20
1953.9169208468040324
 30
0.0
 11
3062.3095070207459685
 21
1967.8614079342039531
 31
0.0
  0
LINE
  5
82A
  8
0
  6
CONTINUOUS
 62
     7
 10
2987.3095040405460168
 20
1953.9169208468040324
 30
0.0
 11
3062.3095070207459685
 21
1953.9169208468040324
 31
0.0
  0
LINE
  5
82B
  8
0
  6
CONTINUOUS
 62
     7
 10
2987.3095040405460168
 20
2028.9169238270039841
 30
0.0
 11
2987.3095040405460168
 21
1953.9169208468040324
 31
0.0
  0
LINE
  5
82C
  8
0
  6
CONTINUOUS
 62
     7
 10
3077.3095066854461948
 20
2028.9169238270039841
 30
0.0
 11
2987.3095040405460168
 21
2028.9169238270039841
 31
0.0
  0
ARC
  5
82D
  8
0
  6
CONTINUOUS
 62
     7
 10
3077.3095070207459685
 20
2023.9169208468040324
 30
0.0
 40
5.0
 50
0.0
 51
90.0
  0
LINE
  5
82E
  8
0
  6
CONTINUOUS
 62
     7
 10
3082.3095065736461038
 20
2009.9724331261040788
 30
0.0
 11
3082.3095065736461038
 21
2023.9169211448040642
 31
0.0
  0
ARC
  5
82F
  8
0
  6
CONTINUOUS
 62
     7
 10
3062.3095070207459685
 20
2009.9724336014039636
 30
0.0
 40
20.0
 50
326.309932473998515
 51
0.0
  0
LINE
  5
830
  8
0
  6
CONTINUOUS
 62
     7
 10
3065.668501165645921
 20
1978.9554127813039486
 30
0.0
 11
3078.9505128944460921
 21
1998.8784292103039206
 31
0.0
  0
LINE
  5
831
  8
0
  6
CONTINUOUS
 62
     7
 10
3042.8095066184459938
 20
2015.9169198335039255
 30
0.0
 11
3042.8095066184459938
 21
2023.9169211448040642
 31
0.0
  0
ARC
  5
832
  8
0
  6
CONTINUOUS
 62
     7
 10
3041.3095070207459685
 20
2023.9169208468040324
 30
0.0
 40
1.5
 50
0.0
 51
180.0
  0
LINE
  5
833
  8
0
  6
CONTINUOUS
 62
     7
 10
3039.8095061266458288
 20
2023.9169211448040642
 30
0.0
 11
3039.8095061266458288
 21
2015.9169198335039255
 31
0.0
  0
ARC
  5
834
  8
0
  6
CONTINUOUS
 62
     7
 10
3041.3095070207459685
 20
2015.9169208468040324
 30
0.0
 40
1.5
 50
180.0
 51
0.0
  0
CIRCLE
  5
835
  8
0
  6
CONTINUOUS
 62
     7
 10
3012.5815849593468556
 20
2008.6448429081040103
 30
0.0
 40
1.500000000000113
  0
CIRCLE
  5
836
  8
0
  6
CONTINUOUS
 62
     7
 10
3038.0374290820459464
 20
1983.1889987854040101
 30
0.0
 40
1.4999999999998841
  0
CIRCLE
  5
837
  8
0
  6
CONTINUOUS
 62
     7
 10
2997.3095070207459685
 20
2018.9169208468040324
 30
0.0
 40
2.1000000000000232
  0
CIRCLE
  5
838
  8
0
  6
CONTINUOUS
 62
     7
 10
2997.3095070207459685
 20
1963.9169208468040324
 30
0.0
 40
2.1000000000001351
  0
CIRCLE
  5
839
  8
0
  6
CONTINUOUS
 62
     7
 10
3052.3095070207459685
 20
1963.9169208468040324
 30
0.0
 40
2.1000000000001351
  0
CIRCLE
  5
83A
  8
0
  6
CONTINUOUS
 62
     7
 10
3025.3095070207459685
 20
1995.9169208468040324
 30
0.0
 40
8.0
  0
CIRCLE
  5
83B
  8
0
  6
CONTINUOUS
 62
     7
 10
3025.3095070207459685
 20
1995.9169208468040324
 30
0.0
 40
5.0
  0
ARC
  5
83C
  8
0
  6
CONTINUOUS
 62
     7
 10
3112.3185738992460756
 20
2030.7427062612039208
 30
0.0
 40
5.000000000000119
 50
44.9999999999907772
 51
135.0000000000092086
  0
LINE
  5
83D
  8
0
  6
CONTINUOUS
 62
     7
 10
3115.8541077261461396
 20
2034.2782402461039055
 30
0.0
 11
3126.4607092068458769
 21
2023.6716387654039409
 31
0.0
  0
ARC
  5
83E
  8
0
  6
CONTINUOUS
 62
     7
 10
3115.8541078051462137
 20
2013.0650367315040512
 30
0.0
 40
15.0000000000001208
 50
315.0000000000092086
 51
44.9999999999907772
  0
LINE
  5
83F
  8
0
  6
CONTINUOUS
 62
     7
 10
3126.460709865446006
 20
2002.4584351454041098
 30
0.0
 11
3115.854108384745814
 21
1991.8518336647039177
 31
0.0
  0
ARC
  5
840
  8
0
  6
CONTINUOUS
 62
     7
 10
3112.3185738992460756
 20
1995.3873672018039542
 30
0.0
 40
5.000000000000119
 50
224.9999999999907914
 51
315.0000000000092086
  0
LINE
  5
841
  8
0
  6
CONTINUOUS
 62
     7
 10
3108.7830394138459269
 20
1991.8518336647039177
 30
0.0
 11
3098.1764379330461452
 21
2002.4584351454041098
 31
0.0
  0
ARC
  5
842
  8
0
  6
CONTINUOUS
 62
     7
 10
3108.783039993346847
 20
2013.0650367315040512
 30
0.0
 40
15.0000000000000302
 50
135.0000000000092086
 51
224.9999999999907914
  0
LINE
  5
843
  8
0
  6
CONTINUOUS
 62
     7
 10
3098.1764385916458195
 20
2023.6716387654039409
 30
0.0
 11
3108.7830400723460116
 21
2034.2782402461039055
 31
0.0
  0
CIRCLE
  5
844
  8
0
  6
CONTINUOUS
 62
     7
 10
3112.3185738992460756
 20
1995.0650367315040512
 30
0.0
 40
1.500000000000093
  0
CIRCLE
  5
845
  8
0
  6
CONTINUOUS
 62
     7
 10
3112.3185738992460756
 20
2013.0650367315040512
 30
0.0
 40
8.0000000000086651
  0
CIRCLE
  5
846
  8
0
  6
CONTINUOUS
 62
     7
 10
3112.3185738992460756
 20
2031.0650367315040512
 30
0.0
 40
1.5000000000000111
  0
ARC
  5
847
  8
0
  6
CONTINUOUS
 62
     7
 10
3112.6621849953457968
 20
1970.1396487933041044
 30
0.0
 40
5.000000000000119
 50
315.0000000000092086
 51
44.9999999999907772
  0
LINE
  5
848
  8
0
  6
CONTINUOUS
 62
     7
 10
3116.1977189803469628
 20
1966.6041149664040404
 30
0.0
 11
3105.5911174996458612
 21
1955.9975134857040757
 31
0.0
  0
ARC
  5
849
  8
0
  6
CONTINUOUS
 62
     7
 10
3094.9845154657459716
 20
1966.6041148874039663
 30
0.0
 40
15.0000000000000302
 50
224.9999999999907914
 51
315.0000000000092086
  0
LINE
  5
84A
  8
0
  6
CONTINUOUS
 62
     7
 10
3084.3779138796458028
 20
1955.997512827203991
 30
0.0
 11
3073.7713123988460211
 21
1966.6041143079039557
 31
0.0
  0
ARC
  5
84B
  8
0
  6
CONTINUOUS
 62
     7
 10
3077.3068459360470115
 20
1970.1396487933041044
 30
0.0
 40
5.000000000000119
 50
135.0000000000092086
 51
224.9999999999907914
  0
LINE
  5
84C
  8
0
  6
CONTINUOUS
 62
     7
 10
3073.7713123988460211
 20
1973.6751832788040701
 30
0.0
 11
3084.3779138796458028
 21
1984.2817847595040348
 31
0.0
  0
ARC
  5
84D
  8
0
  6
CONTINUOUS
 62
     7
 10
3094.9845154657459716
 20
1973.6751826993040595
 30
0.0
 40
14.9999999999999591
 50
44.9999999999907772
 51
135.0000000000092086
  0
LINE
  5
84E
  8
0
  6
CONTINUOUS
 62
     7
 10
3105.5911174996458612
 20
1984.2817841010039501
 30
0.0
 11
3116.1977189803469628
 21
1973.675182620203941
 31
0.0
  0
CIRCLE
  5
84F
  8
0
  6
CONTINUOUS
 62
     7
 10
3076.9845154657459716
 20
1970.1396487933041044
 30
0.0
 40
1.5000000000000111
  0
CIRCLE
  5
850
  8
0
  6
CONTINUOUS
 62
     7
 10
3094.9845154657459716
 20
1970.1396487933041044
 30
0.0
 40
8.0000000000086651
  0
CIRCLE
  5
851
  8
0
  6
CONTINUOUS
 62
     7
 10
3112.9845154657459716
 20
1970.1396487933041044
 30
0.0
 40
1.4999999999999301
  0
CIRCLE
  5
86B
  8
0
  6
CONTINUOUS
 62
     7
 10
3773.5861750820167799
 20
2156.7102635601040674
 30
0.0
 40
1.5
  0
CIRCLE
  5
86C
  8
0
  6
CONTINUOUS
 62
     7
 10
3773.5861750820167799
 20
2187.7102635601040674
 30
0.0
 40
1.499999999999942
  0
CIRCLE
  5
86D
  8
0
  6
CONTINUOUS
 62
     7
 10
3804.5861750820167799
 20
2156.7102635601040674
 30
0.0
 40
1.5
  0
CIRCLE
  5
86E
  8
0
  6
CONTINUOUS
 62
     7
 10
3773.5861750820167799
 20
1885.7102635601040674
 30
0.0
 40
1.5
  0
CIRCLE
  5
86F
  8
0
  6
CONTINUOUS
 62
     7
 10
3773.5861750820167799
 20
1854.7102635601040674
 30
0.0
 40
1.500000000000014
  0
CIRCLE
  5
870
  8
0
  6
CONTINUOUS
 62
     7
 10
3804.5861750820167799
 20
1885.7102635601040674
 30
0.0
 40
1.5
  0
CIRCLE
  5
871
  8
0
  6
CONTINUOUS
 62
     7
 10
3804.5861750820167799
 20
1854.7102635601040674
 30
0.0
 40
1.500000000000014
  0
CIRCLE
  5
872
  8
0
  6
CONTINUOUS
 62
     7
 10
3790.0861750820167799
 20
2021.2102635601040674
 30
0.0
 40
2.099999999999965
  0
CIRCLE
  5
873
  8
0
  6
CONTINUOUS
 62
     7
 10
3808.1361750820169618
 20
1956.2102635601040674
 30
0.0
 40
2.599999999999965
  0
CIRCLE
  5
874
  8
0
  6
CONTINUOUS
 62
     7
 10
3808.1361750820169618
 20
2113.2102635601040674
 30
0.0
 40
2.600000000000021
  0
CIRCLE
  5
875
  8
0
  6
CONTINUOUS
 62
     7
 10
3808.1361750820169618
 20
1988.2102635601040674
 30
0.0
 40
2.5999999999999921
  0
CIRCLE
  5
876
  8
0
  6
CONTINUOUS
 62
     7
 10
3755.0861750820167799
 20
2106.2102635601040674
 30
0.0
 40
2.099999999999965
  0
CIRCLE
  5
877
  8
0
  6
CONTINUOUS
 62
     7
 10
3755.0861750820167799
 20
2231.2102635601040674
 30
0.0
 40
2.099999999999965
  0
CIRCLE
  5
878
  8
0
  6
CONTINUOUS
 62
     7
 10
3810.0861750820158704
 20
2231.2102635601040674
 30
0.0
 40
2.099999999999965
  0
CIRCLE
  5
879
  8
0
  6
CONTINUOUS
 62
     7
 10
3808.1361750820169618
 20
2081.2102635601040674
 30
0.0
 40
2.600000000000021
  0
CIRCLE
  5
87A
  8
0
  6
CONTINUOUS
 62
     7
 10
3810.0861750820158704
 20
1811.2102635601040674
 30
0.0
 40
2.1000000000000001
  0
CIRCLE
  5
87B
  8
0
  6
CONTINUOUS
 62
     7
 10
3755.0861750820167799
 20
1811.2102635601040674
 30
0.0
 40
2.1000000000000001
  0
CIRCLE
  5
87C
  8
0
  6
CONTINUOUS
 62
     7
 10
3755.0861750820167799
 20
1936.2102635601040674
 30
0.0
 40
2.0999999999999921
  0
LINE
  5
87D
  8
0
  6
CONTINUOUS
 62
     7
 10
3745.0861750820167799
 20
1796.2102635601040674
 30
0.0
 11
3745.0861750820167799
 21
2246.2102635601040674
 31
0.0
  0
LINE
  5
87E
  8
0
  6
CONTINUOUS
 62
     7
 10
3745.0861750820167799
 20
2246.2102635601040674
 30
0.0
 11
3820.0861750820167799
 21
2246.2102635601040674
 31
0.0
  0
LINE
  5
87F
  8
0
  6
CONTINUOUS
 62
     7
 10
3820.0861750820167799
 20
2246.2102635601040674
 30
0.0
 11
3820.0861750820167799
 21
1796.2102635601040674
 31
0.0
  0
LINE
  5
880
  8
0
  6
CONTINUOUS
 62
     7
 10
3820.0861750820167799
 20
1796.2102635601040674
 30
0.0
 11
3745.0861750820167799
 21
1796.2102635601040674
 31
0.0
  0
CIRCLE
  5
881
  8
0
  6
CONTINUOUS
 62
     7
 10
3806.4361750820180532
 20
2215.7102635601040674
 30
0.0
 40
3.9999999999982929
  0
CIRCLE
  5
882
  8
0
  6
CONTINUOUS
 62
     7
 10
3806.4361750820180532
 20
1826.7102635601040674
 30
0.0
 40
4.0000000000097913
  0
CIRCLE
  5
883
  8
0
  6
CONTINUOUS
 62
     7
 10
3804.5861750820167799
 20
2187.7102635601040674
 30
0.0
 40
1.5
  0
CIRCLE
  5
884
  8
0
  6
CONTINUOUS
 62
     7
 10
3959.9188723182969625
 20
2102.3842266660949463
 30
0.0
 40
1.9999999999921541
  0
ARC
  5
885
  8
0
  6
CONTINUOUS
 62
     7
 10
3928.4188723182969625
 20
2094.3842266660949463
 30
0.0
 40
2.0
 50
180.0
 51
270.0
  0
LINE
  5
886
  8
0
  6
CONTINUOUS
 62
     7
 10
3926.4188711857968883
 20
2094.3842267610948511
 30
0.0
 11
3926.4188711857968883
 21
2111.7537823032957931
 31
0.0
  0
ARC
  5
887
  8
0
  6
CONTINUOUS
 62
     7
 10
3928.4188723182969625
 20
2111.7537822044951099
 30
0.0
 40
2.0000000000000351
 50
145.0079798014029109
 51
180.0
  0
LINE
  5
888
  8
0
  6
CONTINUOUS
 62
     7
 10
3926.780406883996875
 20
2112.9007060539947815
 30
0.0
 11
3931.6111919795971517
 21
2119.8018249582951285
 31
0.0
  0
ARC
  5
889
  8
0
  6
CONTINUOUS
 62
     7
 10
3923.4188723182969625
 20
2125.5364489742951264
 30
0.0
 40
10.0
 50
325.0079798014028825
 51
0.0
  0
LINE
  5
88A
  8
0
  6
CONTINUOUS
 62
     7
 10
3933.4188704704970405
 20
2125.5364492994949615
 30
0.0
 11
3933.4188704704970405
 21
2228.384234057095
 31
0.0
  0
ARC
  5
88B
  8
0
  6
CONTINUOUS
 62
     7
 10
3929.4188723182969625
 20
2228.3842266660949463
 30
0.0
 40
4.0
 50
0.0
 51
90.0
  0
ARC
  5
88C
  8
0
  6
CONTINUOUS
 62
     7
 10
3929.4188723182969625
 20
2236.3842266660949463
 30
0.0
 40
4.0
 50
180.0
 51
270.0
  0
LINE
  5
88D
  8
0
  6
CONTINUOUS
 62
     7
 10
3925.4188728844978868
 20
2236.384220467195064
 30
0.0
 11
3925.4188728844978868
 21
2238.3842245202949925
 31
0.0
  0
ARC
  5
88E
  8
0
  6
CONTINUOUS
 62
     7
 10
3929.4188723182969625
 20
2238.3842266660949463
 30
0.0
 40
4.0
 50
90.0
 51
180.0
  0
LINE
  5
88F
  8
0
  6
CONTINUOUS
 62
     7
 10
3929.4188735401971826
 20
2242.3842326265948941
 30
0.0
 11
3945.4427496855969366
 21
2242.3842326265948941
 31
0.0
  0
ARC
  5
890
  8
0
  6
CONTINUOUS
 62
     7
 10
3945.4427497146971291
 20
2238.3842266660949463
 30
0.0
 40
4.0000000000001581
 50
16.6992442340042295
 51
90.0
  0
LINE
  5
891
  8
0
  6
CONTINUOUS
 62
     7
 10
3949.2740542953970362
 20
2239.5336255889951644
 30
0.0
 11
3960.4188721021969286
 21
2202.3842260700948827
 31
0.0
  0
LINE
  5
892
  8
0
  6
CONTINUOUS
 62
     7
 10
3960.4188721021969286
 20
2202.3842260700948827
 30
0.0
 11
3960.4188721021969286
 21
2125.5364492994949615
 31
0.0
  0
ARC
  5
893
  8
0
  6
CONTINUOUS
 62
     7
 10
3970.418872318297872
 20
2125.5364489742951264
 30
0.0
 40
10.0
 50
180.0
 51
214.9920201985970039
  0
LINE
  5
894
  8
0
  6
CONTINUOUS
 62
     7
 10
3962.2265529213968875
 20
2119.8018249582951285
 30
0.0
 11
3967.057336154397035
 21
2112.9007060539947815
 31
0.0
  0
ARC
  5
895
  8
0
  6
CONTINUOUS
 62
     7
 10
3965.4188723182969625
 20
2111.7537822044951099
 30
0.0
 40
2.0
 50
0.0
 51
34.9920201985970891
  0
LINE
  5
896
  8
0
  6
CONTINUOUS
 62
     7
 10
3967.4188723182969625
 20
2111.7537823032957931
 30
0.0
 11
3967.4188723182969625
 21
2094.3842267610948511
 31
0.0
  0
ARC
  5
897
  8
0
  6
CONTINUOUS
 62
     7
 10
3965.4188723182969625
 20
2094.3842266660949463
 30
0.0
 40
2.0
 50
270.0
 51
0.0
  0
LINE
  5
898
  8
0
  6
CONTINUOUS
 62
     7
 10
3965.4188722232970576
 20
2092.3842266660949463
 30
0.0
 11
3928.4188715135969687
 21
2092.3842266660949463
 31
0.0
  0
CIRCLE
  5
899
  8
0
  6
CONTINUOUS
 62
     7
 10
3933.9188723182969625
 20
2102.3842266660949463
 30
0.0
 40
1.9999999999921541
  0
CIRCLE
  5
89A
  8
0
  6
CONTINUOUS
 62
     7
 10
3697.2205276647318897
 20
1952.2102635601040674
 30
0.0
 40
1.599999999999935
  0
CIRCLE
  5
89B
  8
0
  6
CONTINUOUS
 62
     7
 10
3697.2205276647318897
 20
2090.2102635601040674
 30
0.0
 40
1.5999999999999091
  0
CIRCLE
  5
89C
  8
0
  6
CONTINUOUS
 62
     7
 10
3710.7043480478318997
 20
1811.2102635601040674
 30
0.0
 40
2.0999999999999921
  0
CIRCLE
  5
89D
  8
0
  6
CONTINUOUS
 62
     7
 10
3710.7043480478318997
 20
2231.2102635601040674
 30
0.0
 40
2.1000000000000232
  0
CIRCLE
  5
89E
  8
0
  6
CONTINUOUS
 62
     7
 10
3664.7043480478318997
 20
2231.2102635601040674
 30
0.0
 40
2.1000000000000232
  0
CIRCLE
  5
89F
  8
0
  6
CONTINUOUS
 62
     7
 10
3667.7043480478318997
 20
2146.2102635601040674
 30
0.0
 40
2.099999999999965
  0
CIRCLE
  5
8A0
  8
0
  6
CONTINUOUS
 62
     7
 10
3667.7043480478318997
 20
1896.2102635601040674
 30
0.0
 40
2.0999999999999921
  0
ARC
  5
8A1
  8
0
  6
CONTINUOUS
 62
     7
 10
3727.7043480478318997
 20
1835.3523991838039819
 30
0.0
 40
10.0000000000000409
 50
180.0
 51
224.9999999999907914
  0
LINE
  5
8A2
  8
0
  6
CONTINUOUS
 62
     7
 10
3720.6332801241328525
 20
1828.2813324430039756
 30
0.0
 11
3722.7043480478318997
 21
1826.2102628895040652
 31
0.0
  0
LINE
  5
8A3
  8
0
  6
CONTINUOUS
 62
     7
 10
3722.7043480478318997
 20
1826.2102628895040652
 30
0.0
 11
3722.7043480478318997
 21
1796.2102635601040674
 31
0.0
  0
LINE
  5
8A4
  8
0
  6
CONTINUOUS
 62
     7
 10
3722.7043480478318997
 20
1796.2102635601040674
 30
0.0
 11
3652.704347749831868
 21
1796.2102635601040674
 31
0.0
  0
LINE
  5
8A5
  8
0
  6
CONTINUOUS
 62
     7
 10
3652.704347749831868
 20
1796.2102635601040674
 30
0.0
 11
3652.704347749831868
 21
2246.2102516391041718
 31
0.0
  0
LINE
  5
8A6
  8
0
  6
CONTINUOUS
 62
     7
 10
3652.704347749831868
 20
2246.2102516391041718
 30
0.0
 11
3722.7043480478318997
 21
2246.2102516391041718
 31
0.0
  0
LINE
  5
8A7
  8
0
  6
CONTINUOUS
 62
     7
 10
3722.7043480478318997
 20
2246.2102516391041718
 30
0.0
 11
3722.7043480478318997
 21
2216.2102504470040003
 31
0.0
  0
LINE
  5
8A8
  8
0
  6
CONTINUOUS
 62
     7
 10
3722.7043480478318997
 20
2216.2102504470040003
 30
0.0
 11
3720.6332801241328525
 21
2214.1391976574041109
 31
0.0
  0
ARC
  5
8A9
  8
0
  6
CONTINUOUS
 62
     7
 10
3727.7043480478318997
 20
2207.0681279363038811
 30
0.0
 40
10.0000000000000799
 50
135.0000000000092086
 51
180.0
  0
LINE
  5
8AA
  8
0
  6
CONTINUOUS
 62
     7
 10
3717.7043481596319907
 20
2207.068119833703804
 30
0.0
 11
3717.7043481596319907
 21
2111.8705316284040236
 31
0.0
  0
ARC
  5
8AB
  8
0
  6
CONTINUOUS
 62
     7
 10
3727.7043480478318997
 20
2111.8705175979039268
 30
0.0
 40
10.0000000000000302
 50
180.0
 51
240.0000000000032117
  0
LINE
  5
8AC
  8
0
  6
CONTINUOUS
 62
     7
 10
3722.7043480478318997
 20
1939.210270235804046
 30
0.0
 11
3722.7043480478318997
 21
2103.2102747657040709
 31
0.0
  0
ARC
  5
8AD
  8
0
  6
CONTINUOUS
 62
     7
 10
3727.7043480478318997
 20
1930.5500095222039363
 30
0.0
 40
10.0000000000000302
 50
119.9999999999968026
 51
180.0
  0
LINE
  5
8AE
  8
0
  6
CONTINUOUS
 62
     7
 10
3717.7043481596319907
 20
1930.5500133731040933
 30
0.0
 11
3717.7043481596319907
 21
1835.352399090804056
 31
0.0
  0
ARC
  5
8AF
  8
0
  6
CONTINUOUS
 62
     7
 10
3686.7043480478318997
 20
2069.2102635601040674
 30
0.0
 40
2.0
 50
90.0
 51
180.0
  0
LINE
  5
8B0
  8
0
  6
CONTINUOUS
 62
     7
 10
3684.7043492697312104
 20
2069.2102654674040423
 30
0.0
 11
3684.7043492697312104
 21
1973.2102646329039999
 31
0.0
  0
ARC
  5
8B1
  8
0
  6
CONTINUOUS
 62
     7
 10
3686.7043480478318997
 20
1973.2102635601040674
 30
0.0
 40
2.0
 50
180.0
 51
270.0
  0
LINE
  5
8B2
  8
0
  6
CONTINUOUS
 62
     7
 10
3710.7043479435319568
 20
1971.2102605798040713
 30
0.0
 11
3686.7043495975322003
 21
1971.2102605798040713
 31
0.0
  0
ARC
  5
8B3
  8
0
  6
CONTINUOUS
 62
     7
 10
3710.7043480478318997
 20
1973.2102635601040674
 30
0.0
 40
2.0
 50
270.0
 51
0.0
  0
LINE
  5
8B4
  8
0
  6
CONTINUOUS
 62
     7
 10
3712.7043482713320373
 20
2069.2102654674040423
 30
0.0
 11
3712.7043482713320373
 21
1973.2102646329039999
 31
0.0
  0
ARC
  5
8B5
  8
0
  6
CONTINUOUS
 62
     7
 10
3710.7043480478318997
 20
2069.2102635601040674
 30
0.0
 40
2.0
 50
0.0
 51
90.0
  0
LINE
  5
8B6
  8
0
  6
CONTINUOUS
 62
     7
 10
3710.7043479435319568
 20
2071.2102695205039709
 30
0.0
 11
3686.7043495975322003
 21
2071.2102695205039709
 31
0.0
  0
CIRCLE
  5
8B7
  8
0
  6
CONTINUOUS
 62
     7
 10
3664.7043480478318997
 20
1811.2102635601040674
 30
0.0
 40
2.0999999999999921
  0
CIRCLE
  5
8B8
  8
0
  6
CONTINUOUS
 62
     7
 10
3574.0563331277789985
 20
2231.2102635601040674
 30
0.0
 40
2.099999999999985
  0
CIRCLE
  5
8B9
  8
0
  6
CONTINUOUS
 62
     7
 10
3620.0563331277789985
 20
2231.2102635601040674
 30
0.0
 40
2.0999999999999921
  0
CIRCLE
  5
8BA
  8
0
  6
CONTINUOUS
 62
     7
 10
3577.0563331277789985
 20
2161.2102635601040674
 30
0.0
 40
2.0999999999999921
  0
CIRCLE
  5
8BB
  8
0
  6
CONTINUOUS
 62
     7
 10
3577.0563331277789985
 20
1881.2102635601040674
 30
0.0
 40
2.099999999999965
  0
ARC
  5
8BC
  8
0
  6
CONTINUOUS
 62
     7
 10
3606.9363331277791076
 20
2090.7133135601047798
 30
0.0
 40
1.5
 50
0.0
 51
90.0
  0
LINE
  5
8BD
  8
0
  6
CONTINUOUS
 62
     7
 10
3606.9363331277791076
 20
2092.2133135601047798
 30
0.0
 11
3600.4301331277802092
 21
2092.2133135601047798
 31
0.0
  0
ARC
  5
8BE
  8
0
  6
CONTINUOUS
 62
     7
 10
3600.4301331277802092
 20
2090.7133135601047798
 30
0.0
 40
1.5
 50
90.0
 51
180.0
  0
LINE
  5
8BF
  8
0
  6
CONTINUOUS
 62
     7
 10
3598.9301331277802092
 20
2090.7133135601047798
 30
0.0
 11
3598.9301331277802092
 21
2075.7108135601038157
 31
0.0
  0
ARC
  5
8C0
  8
0
  6
CONTINUOUS
 62
     7
 10
3600.4301331277802092
 20
2075.7108135601038157
 30
0.0
 40
1.5
 50
180.0
 51
270.0
  0
LINE
  5
8C1
  8
0
  6
CONTINUOUS
 62
     7
 10
3600.4301331277802092
 20
2074.2108135601038157
 30
0.0
 11
3606.9363331277791076
 21
2074.2108135601038157
 31
0.0
  0
ARC
  5
8C2
  8
0
  6
CONTINUOUS
 62
     7
 10
3606.9363331277791076
 20
2075.7108135601038157
 30
0.0
 40
1.5000000000000271
 50
270.0
 51
0.0
  0
LINE
  5
8C3
  8
0
  6
CONTINUOUS
 62
     7
 10
3608.4363331277791076
 20
2075.7108135601038157
 30
0.0
 11
3608.4363331277791076
 21
2090.7133135601047798
 31
0.0
  0
CIRCLE
  5
8C4
  8
0
  6
CONTINUOUS
 62
     7
 10
3603.6863331277791076
 20
2117.7872331603039129
 30
0.0
 40
1.499999999999829
  0
CIRCLE
  5
8C5
  8
0
  6
CONTINUOUS
 62
     7
 10
3603.6863331277791076
 20
2145.2872331603039129
 30
0.0
 40
1.499999999999829
  0
CIRCLE
  5
8C6
  8
0
  6
CONTINUOUS
 62
     7
 10
3603.6832331277792036
 20
2068.6319635601039408
 30
0.0
 40
1.5000000000000551
  0
CIRCLE
  5
8C7
  8
0
  6
CONTINUOUS
 62
     7
 10
3603.6832331277792036
 20
2097.7921635601041999
 30
0.0
 40
1.500000000000113
  0
CIRCLE
  5
8C8
  8
0
  6
CONTINUOUS
 62
     7
 10
3601.0563331277789985
 20
2192.2102635601040674
 30
0.0
 40
11.0
  0
ARC
  5
8C9
  8
0
  6
CONTINUOUS
 62
     7
 10
3609.4882990010778485
 20
1929.9686635601040052
 30
0.0
 40
1.5
 50
270.0
 51
0.0
  0
LINE
  5
8CA
  8
0
  6
CONTINUOUS
 62
     7
 10
3610.9882990010778485
 20
1929.9686635601040052
 30
0.0
 11
3610.9882990010778485
 21
1942.5686635601039143
 31
0.0
  0
ARC
  5
8CB
  8
0
  6
CONTINUOUS
 62
     7
 10
3609.4882990010778485
 20
1942.5686635601039143
 30
0.0
 40
1.5000000000002249
 50
0.0
 51
90.0
  0
LINE
  5
8CC
  8
0
  6
CONTINUOUS
 62
     7
 10
3609.4882990010778485
 20
1944.0686635601039143
 30
0.0
 11
3597.888299001078849
 21
1944.0686635601039143
 31
0.0
  0
ARC
  5
8CD
  8
0
  6
CONTINUOUS
 62
     7
 10
3597.888299001078849
 20
1942.5686635601039143
 30
0.0
 40
1.5
 50
90.0
 51
180.0
  0
LINE
  5
8CE
  8
0
  6
CONTINUOUS
 62
     7
 10
3596.388299001078849
 20
1942.5686635601039143
 30
0.0
 11
3596.388299001078849
 21
1929.9686635601040052
 31
0.0
  0
ARC
  5
8CF
  8
0
  6
CONTINUOUS
 62
     7
 10
3597.888299001078849
 20
1929.9686635601040052
 30
0.0
 40
1.5
 50
180.0
 51
270.0
  0
LINE
  5
8D0
  8
0
  6
CONTINUOUS
 62
     7
 10
3597.888299001078849
 20
1928.4686635601040052
 30
0.0
 11
3609.4882990010778485
 21
1928.4686635601040052
 31
0.0
  0
LINE
  5
8D1
  8
0
  6
CONTINUOUS
 62
     7
 10
3562.056333127779908
 20
1796.2102635601040674
 30
0.0
 11
3632.0563331277789985
 21
1796.2102635601040674
 31
0.0
  0
LINE
  5
8D2
  8
0
  6
CONTINUOUS
 62
     7
 10
3562.056333127779908
 20
2246.2102635601040674
 30
0.0
 11
3562.056333127779908
 21
1796.2102635601040674
 31
0.0
  0
LINE
  5
8D3
  8
0
  6
CONTINUOUS
 62
     7
 10
3632.0563331277789985
 20
2246.2102635601040674
 30
0.0
 11
3562.056333127779908
 21
2246.2102635601040674
 31
0.0
  0
LINE
  5
8D4
  8
0
  6
CONTINUOUS
 62
     7
 10
3632.0563331277789985
 20
2216.2102635601040674
 30
0.0
 11
3632.0563331277789985
 21
2246.2102635601040674
 31
0.0
  0
LINE
  5
8D5
  8
0
  6
CONTINUOUS
 62
     7
 10
3629.9852653159791771
 20
2214.1391957483037913
 30
0.0
 11
3632.0563331277789985
 21
2216.2102635601040674
 31
0.0
  0
ARC
  5
8D6
  8
0
  6
CONTINUOUS
 62
     7
 10
3637.0563331277789985
 20
2207.0681279364048351
 30
0.0
 40
10.0000000000002292
 50
135.0000000000183888
 51
180.0
  0
LINE
  5
8D7
  8
0
  6
CONTINUOUS
 62
     7
 10
3627.0563331277789985
 20
1835.3523991839040264
 30
0.0
 11
3627.0563331277789985
 21
2207.0681279364048351
 31
0.0
  0
ARC
  5
8D8
  8
0
  6
CONTINUOUS
 62
     7
 10
3637.0563331277789985
 20
1835.3523991839040264
 30
0.0
 40
10.0
 50
180.0
 51
224.9999999999816112
  0
LINE
  5
8D9
  8
0
  6
CONTINUOUS
 62
     7
 10
3632.0563331277789985
 20
1826.2102635601040674
 30
0.0
 11
3629.9852653159791771
 21
1828.2813313720039332
 31
0.0
  0
LINE
  5
8DA
  8
0
  6
CONTINUOUS
 62
     7
 10
3632.0563331277789985
 20
1796.2102635601040674
 30
0.0
 11
3632.0563331277789985
 21
1826.2102635601040674
 31
0.0
  0
ARC
  5
8DB
  8
0
  6
CONTINUOUS
 62
     7
 10
3615.7563331277788166
 20
1847.4102635601041129
 30
0.0
 40
1.5000000000002249
 50
270.0
 51
0.0
  0
LINE
  5
8DC
  8
0
  6
CONTINUOUS
 62
     7
 10
3617.2563331277788166
 20
1847.4102635601041129
 30
0.0
 11
3617.2563331277788166
 21
1892.2102635601040674
 31
0.0
  0
ARC
  5
8DD
  8
0
  6
CONTINUOUS
 62
     7
 10
3615.7563331277788166
 20
1892.2102635601040674
 30
0.0
 40
1.5
 50
0.0
 51
90.0
  0
LINE
  5
8DE
  8
0
  6
CONTINUOUS
 62
     7
 10
3615.7563331277788166
 20
1893.7102635601040674
 30
0.0
 11
3590.9563331277790894
 21
1893.7102635601040674
 31
0.0
  0
ARC
  5
8DF
  8
0
  6
CONTINUOUS
 62
     7
 10
3590.9563331277790894
 20
1892.2102635601040674
 30
0.0
 40
1.5000000000002249
 50
90.0
 51
180.0
  0
LINE
  5
8E0
  8
0
  6
CONTINUOUS
 62
     7
 10
3589.4563331277790894
 20
1892.2102635601040674
 30
0.0
 11
3589.4563331277790894
 21
1847.4102635601041129
 31
0.0
  0
ARC
  5
8E1
  8
0
  6
CONTINUOUS
 62
     7
 10
3590.9563331277790894
 20
1847.4102635601041129
 30
0.0
 40
1.5000000000002249
 50
180.0
 51
270.0
  0
LINE
  5
8E2
  8
0
  6
CONTINUOUS
 62
     7
 10
3590.9563331277790894
 20
1845.9102635601041129
 30
0.0
 11
3615.7563331277788166
 21
1845.9102635601041129
 31
0.0
  0
CIRCLE
  5
8E3
  8
0
  6
CONTINUOUS
 62
     7
 10
3602.3545876049788603
 20
1837.1892294765038969
 30
0.0
 40
1.7000000001158899
  0
CIRCLE
  5
8E4
  8
0
  6
CONTINUOUS
 62
     7
 10
3602.6895831276788158
 20
1901.9883635601040623
 30
0.0
 40
1.699999999996179
  0
CIRCLE
  5
8E5
  8
0
  6
CONTINUOUS
 62
     7
 10
3603.6882990010790309
 20
1950.9186635601040507
 30
0.0
 40
1.500000000000113
  0
CIRCLE
  5
8E6
  8
0
  6
CONTINUOUS
 62
     7
 10
3603.6882990010790309
 20
1921.6186635601040962
 30
0.0
 40
1.500000000000113
  0
ARC
  5
8E7
  8
0
  6
CONTINUOUS
 62
     7
 10
3596.6863331277800171
 20
2123.0372331603039129
 30
0.0
 40
1.5
 50
180.0
 51
270.0
  0
LINE
  5
8E8
  8
0
  6
CONTINUOUS
 62
     7
 10
3596.6863331277800171
 20
2121.5372331603039129
 30
0.0
 11
3610.6863331277791076
 21
2121.5372331603039129
 31
0.0
  0
ARC
  5
8E9
  8
0
  6
CONTINUOUS
 62
     7
 10
3610.6863331277791076
 20
2123.0372331603039129
 30
0.0
 40
1.5
 50
270.0
 51
0.0
  0
LINE
  5
8EA
  8
0
  6
CONTINUOUS
 62
     7
 10
3612.1863331277791076
 20
2123.0372331603039129
 30
0.0
 11
3612.1863331277791076
 21
2140.0372331603039129
 31
0.0
  0
ARC
  5
8EB
  8
0
  6
CONTINUOUS
 62
     7
 10
3610.6863331277791076
 20
2140.0372331603039129
 30
0.0
 40
1.5
 50
0.0
 51
90.0
  0
LINE
  5
8EC
  8
0
  6
CONTINUOUS
 62
     7
 10
3610.6863331277791076
 20
2141.5372331603039129
 30
0.0
 11
3596.6863331277800171
 21
2141.5372331603039129
 31
0.0
  0
ARC
  5
8ED
  8
0
  6
CONTINUOUS
 62
     7
 10
3596.6863331277800171
 20
2140.0372331603039129
 30
0.0
 40
1.5
 50
90.0
 51
180.0
  0
LINE
  5
8EE
  8
0
  6
CONTINUOUS
 62
     7
 10
3595.1863331277800171
 20
2140.0372331603039129
 30
0.0
 11
3595.1863331277800171
 21
2123.0372331603039129
 31
0.0
  0
CIRCLE
  5
8EF
  8
0
  6
CONTINUOUS
 62
     7
 10
3574.0563331277789985
 20
1811.2102635601040674
 30
0.0
 40
2.1000000000000232
  0
CIRCLE
  5
8F0
  8
0
  6
CONTINUOUS
 62
     7
 10
3620.0563331277789985
 20
1811.2102635601040674
 30
0.0
 40
2.1000000000000232
  0
CIRCLE
  5
8F1
  8
0
  6
CONTINUOUS
 62
     7
 10
3577.0563331277789985
 20
2021.2102635601040674
 30
0.0
 40
2.099999999999965
  0
CIRCLE
  5
94B
  8
0
  6
CONTINUOUS
 62
     7
 10
3530.9115495687588009
 20
2226.2102635601040674
 30
0.0
 40
2.1000000000000232
  0
CIRCLE
  5
94C
  8
0
  6
CONTINUOUS
 62
     7
 10
3484.9115495687588009
 20
2226.2102635601040674
 30
0.0
 40
2.1000000000000232
  0
CIRCLE
  5
94D
  8
0
  6
CONTINUOUS
 62
     7
 10
3487.9115495687588009
 20
2156.2102635601040674
 30
0.0
 40
2.099999999999965
  0
CIRCLE
  5
94E
  8
0
  6
CONTINUOUS
 62
     7
 10
3487.9115495687588009
 20
2016.2102635601040674
 30
0.0
 40
2.1000000000000232
  0
CIRCLE
  5
94F
  8
0
  6
CONTINUOUS
 62
     7
 10
3487.9115495687588009
 20
1876.2102635601040674
 30
0.0
 40
2.0999999999999921
  0
CIRCLE
  5
950
  8
0
  6
CONTINUOUS
 62
     7
 10
3530.9115495687588009
 20
1806.2102635601040674
 30
0.0
 40
2.0999999999999921
  0
CIRCLE
  5
951
  8
0
  6
CONTINUOUS
 62
     7
 10
3484.9115495687588009
 20
1806.2102635601040674
 30
0.0
 40
2.0999999999999921
  0
LINE
  5
952
  8
0
  6
CONTINUOUS
 62
     7
 10
3524.6793157463589523
 20
1831.7648253241040948
 30
0.0
 11
3503.466112077759135
 21
1852.9780289927039121
 31
0.0
  0
ARC
  5
953
  8
0
  6
CONTINUOUS
 62
     7
 10
3501.6983461331587932
 20
1851.2102635601040674
 30
0.0
 40
2.50000000000006
 50
44.9999999999907914
 51
224.9999999999907914
  0
LINE
  5
954
  8
0
  6
CONTINUOUS
 62
     7
 10
3499.9305806165589274
 20
1849.4424975315039319
 30
0.0
 11
3521.1437824225590703
 21
1828.2292938629038872
 31
0.0
  0
ARC
  5
955
  8
0
  6
CONTINUOUS
 62
     7
 10
3522.9115495687588009
 20
1829.9970601245040598
 30
0.0
 40
2.500000000000091
 50
224.9999999999907914
 51
44.9999999999907914
  0
LINE
  5
956
  8
0
  6
CONTINUOUS
 62
     7
 10
3524.6793157463589523
 20
1881.7648260692039912
 30
0.0
 11
3503.466112077759135
 21
1902.9780297378040359
 31
0.0
  0
ARC
  5
957
  8
0
  6
CONTINUOUS
 62
     7
 10
3501.6983461331587932
 20
1901.2102635601040674
 30
0.0
 40
2.5000000000001998
 50
44.9999999999907914
 51
224.9999999999907914
  0
LINE
  5
958
  8
0
  6
CONTINUOUS
 62
     7
 10
3499.9305806165589274
 20
1899.4424982766040557
 30
0.0
 11
3521.1437824225590703
 21
1878.229294608004011
 31
0.0
  0
ARC
  5
959
  8
0
  6
CONTINUOUS
 62
     7
 10
3522.9115495687588009
 20
1879.9970601245040598
 30
0.0
 40
2.500000000000099
 50
224.9999999999907914
 51
44.9999999999907914
  0
LINE
  5
95A
  8
0
  6
CONTINUOUS
 62
     7
 10
3524.6793157463589523
 20
1931.7648305395039188
 30
0.0
 11
3503.466112077759135
 21
1952.9780342081039635
 31
0.0
  0
ARC
  5
95B
  8
0
  6
CONTINUOUS
 62
     7
 10
3501.6983461331587932
 20
1951.2102635601040674
 30
0.0
 40
2.50000000000006
 50
44.9999999999907914
 51
224.9999999999907914
  0
LINE
  5
95C
  8
0
  6
CONTINUOUS
 62
     7
 10
3499.9305806165589274
 20
1949.4424952963040596
 30
0.0
 11
3521.1437824225590703
 21
1928.2292916277040149
 31
0.0
  0
ARC
  5
95D
  8
0
  6
CONTINUOUS
 62
     7
 10
3522.9115495687588009
 20
1929.9970601245040598
 30
0.0
 40
2.5
 50
224.9999999999907914
 51
44.9999999999907914
  0
LINE
  5
95E
  8
0
  6
CONTINUOUS
 62
     7
 10
3524.6793157463589523
 20
1981.7648275593039671
 30
0.0
 11
3503.466112077759135
 21
2002.9780312279040118
 31
0.0
  0
ARC
  5
95F
  8
0
  6
CONTINUOUS
 62
     7
 10
3501.6983461331587932
 20
2001.2102635601040674
 30
0.0
 40
2.5000000000002589
 50
44.9999999999907914
 51
224.9999999999907914
  0
LINE
  5
960
  8
0
  6
CONTINUOUS
 62
     7
 10
3499.9305806165589274
 20
1999.4424923161041079
 30
0.0
 11
3521.1437824225590703
 21
1978.2292886475040632
 31
0.0
  0
ARC
  5
961
  8
0
  6
CONTINUOUS
 62
     7
 10
3522.9115495687588009
 20
1979.9970601245040598
 30
0.0
 40
2.50000000000006
 50
224.9999999999907914
 51
44.9999999999907914
  0
LINE
  5
962
  8
0
  6
CONTINUOUS
 62
     7
 10
3524.6793157463589523
 20
2031.7648245791040154
 30
0.0
 11
3503.466112077759135
 21
2052.978043148803863
 31
0.0
  0
ARC
  5
963
  8
0
  6
CONTINUOUS
 62
     7
 10
3501.6983461331587932
 20
2051.2102635601040674
 30
0.0
 40
2.500000000000099
 50
44.9999999999907914
 51
224.9999999999907914
  0
LINE
  5
964
  8
0
  6
CONTINUOUS
 62
     7
 10
3499.9305806165589274
 20
2049.4425042370039591
 30
0.0
 11
3521.1437824225590703
 21
2028.2293005684039144
 31
0.0
  0
ARC
  5
965
  8
0
  6
CONTINUOUS
 62
     7
 10
3522.9115495687588009
 20
2029.9970601245040598
 30
0.0
 40
2.5000000000000191
 50
224.9999999999907914
 51
44.9999999999907914
  0
LINE
  5
966
  8
0
  6
CONTINUOUS
 62
     7
 10
3524.6793157463589523
 20
2081.7648215989038363
 30
0.0
 11
3503.466112077759135
 21
2102.9780252674040639
 31
0.0
  0
ARC
  5
967
  8
0
  6
CONTINUOUS
 62
     7
 10
3501.6983461331587932
 20
2101.2102635601040674
 30
0.0
 40
2.500000000000099
 50
44.9999999999907914
 51
224.9999999999907914
  0
LINE
  5
968
  8
0
  6
CONTINUOUS
 62
     7
 10
3499.9305806165589274
 20
2099.4424863556041601
 30
0.0
 11
3521.1437824225590703
 21
2078.229282687003888
 31
0.0
  0
ARC
  5
969
  8
0
  6
CONTINUOUS
 62
     7
 10
3522.9115495687588009
 20
2079.9970601245040598
 30
0.0
 40
2.5000000000000191
 50
224.9999999999907914
 51
44.9999999999907914
  0
LINE
  5
96A
  8
0
  6
CONTINUOUS
 62
     7
 10
3524.6793157463589523
 20
2131.7648335198050518
 30
0.0
 11
3503.466112077759135
 21
2152.9780371884039596
 31
0.0
  0
ARC
  5
96B
  8
0
  6
CONTINUOUS
 62
     7
 10
3501.6983461331587932
 20
2151.2102635601040674
 30
0.0
 40
2.500000000000099
 50
44.9999999999907914
 51
224.9999999999907914
  0
LINE
  5
96C
  8
0
  6
CONTINUOUS
 62
     7
 10
3499.9305806165589274
 20
2149.4424982766040557
 30
0.0
 11
3521.1437824225590703
 21
2128.2292946080037837
 31
0.0
  0
ARC
  5
96D
  8
0
  6
CONTINUOUS
 62
     7
 10
3522.9115495687588009
 20
2129.9970601245040598
 30
0.0
 40
2.5000000000000191
 50
224.9999999999907914
 51
44.9999999999907914
  0
LINE
  5
96E
  8
0
  6
CONTINUOUS
 62
     7
 10
3524.6793157463589523
 20
2181.7648156384038884
 30
0.0
 11
3503.466112077759135
 21
2202.9780193070041605
 31
0.0
  0
ARC
  5
96F
  8
0
  6
CONTINUOUS
 62
     7
 10
3501.6983461331587932
 20
2201.2102635601040674
 30
0.0
 40
2.500000000000099
 50
44.9999999999907914
 51
224.9999999999907914
  0
LINE
  5
970
  8
0
  6
CONTINUOUS
 62
     7
 10
3499.9305806165589274
 20
2199.442510197503907
 30
0.0
 11
3521.1437824225590703
 21
2178.2293065289040896
 31
0.0
  0
ARC
  5
971
  8
0
  6
CONTINUOUS
 62
     7
 10
3522.9115495687588009
 20
2179.9970601245040598
 30
0.0
 40
2.500000000000099
 50
224.9999999999907914
 51
44.9999999999907914
  0
LINE
  5
972
  8
0
  6
CONTINUOUS
 62
     7
 10
3472.9115492707578596
 20
1796.2102635601040674
 30
0.0
 11
3542.9115495687588009
 21
1796.2102635601040674
 31
0.0
  0
LINE
  5
973
  8
0
  6
CONTINUOUS
 62
     7
 10
3472.9115492707578596
 20
2236.2102611760042237
 30
0.0
 11
3472.9115492707578596
 21
1796.2102635601040674
 31
0.0
  0
LINE
  5
974
  8
0
  6
CONTINUOUS
 62
     7
 10
3542.9115495687588009
 20
2236.2102611760042237
 30
0.0
 11
3472.9115492707578596
 21
2236.2102611760042237
 31
0.0
  0
LINE
  5
975
  8
0
  6
CONTINUOUS
 62
     7
 10
3542.9115495687588009
 20
2212.2102721432038379
 30
0.0
 11
3542.9115495687588009
 21
2236.2102611760042237
 31
0.0
  0
LINE
  5
976
  8
0
  6
CONTINUOUS
 62
     7
 10
3540.8404816450588442
 20
2210.1391895512037991
 30
0.0
 11
3542.9115495687588009
 21
2212.2102721432038379
 31
0.0
  0
ARC
  5
977
  8
0
  6
CONTINUOUS
 62
     7
 10
3547.9115495687588009
 20
2203.0681279364039256
 30
0.0
 40
10.0
 50
135.0000000000092086
 51
180.0
  0
LINE
  5
978
  8
0
  6
CONTINUOUS
 62
     7
 10
3537.9115496804588474
 20
1829.3523981074040421
 30
0.0
 11
3537.9115496804588474
 21
2203.0681415299040964
 31
0.0
  0
ARC
  5
979
  8
0
  6
CONTINUOUS
 62
     7
 10
3547.9115495687588009
 20
1829.3523991839040264
 30
0.0
 40
10.0
 50
180.0
 51
224.9999999999907914
  0
LINE
  5
97A
  8
0
  6
CONTINUOUS
 62
     7
 10
3542.9115495687588009
 20
1820.2102637688039977
 30
0.0
 11
3540.8404816450588442
 21
1822.2813314596039618
 31
0.0
  0
LINE
  5
97B
  8
0
  6
CONTINUOUS
 62
     7
 10
3542.9115495687588009
 20
1796.2102635601040674
 30
0.0
 11
3542.9115495687588009
 21
1820.2102637688039977
 31
0.0
  0
LINE
  5
97C
  8
0
  6
CONTINUOUS
 62
     7
 10
3524.6793157463589523
 20
2156.7648394802049552
 30
0.0
 11
3503.466112077759135
 21
2177.978043148803863
 31
0.0
  0
ARC
  5
97D
  8
0
  6
CONTINUOUS
 62
     7
 10
3501.6983461331587932
 20
2176.2102635601040674
 30
0.0
 40
2.500000000000099
 50
44.9999999999907914
 51
224.9999999999907914
  0
LINE
  5
97E
  8
0
  6
CONTINUOUS
 62
     7
 10
3499.9305806165589274
 20
2174.4425042370039591
 30
0.0
 11
3521.1437824225590703
 21
2153.2293005684041418
 31
0.0
  0
ARC
  5
97F
  8
0
  6
CONTINUOUS
 62
     7
 10
3522.9115495687588009
 20
2154.9970601245040598
 30
0.0
 40
2.5000000000002589
 50
224.9999999999907914
 51
44.9999999999907914
  0
LINE
  5
980
  8
0
  6
CONTINUOUS
 62
     7
 10
3524.6793157463589523
 20
2106.7648275593051039
 30
0.0
 11
3503.466112077759135
 21
2127.9780312279040118
 31
0.0
  0
ARC
  5
981
  8
0
  6
CONTINUOUS
 62
     7
 10
3501.6983461331587932
 20
2126.2102635601040674
 30
0.0
 40
2.500000000000099
 50
44.9999999999907914
 51
224.9999999999907914
  0
LINE
  5
982
  8
0
  6
CONTINUOUS
 62
     7
 10
3499.9305806165589274
 20
2124.4424923161041079
 30
0.0
 11
3521.1437824225590703
 21
2103.2292886475038358
 31
0.0
  0
ARC
  5
983
  8
0
  6
CONTINUOUS
 62
     7
 10
3522.9115495687588009
 20
2104.9970601245040598
 30
0.0
 40
2.500000000000139
 50
224.9999999999907914
 51
44.9999999999907914
  0
LINE
  5
984
  8
0
  6
CONTINUOUS
 62
     7
 10
3524.6793157463589523
 20
2056.7648156384038884
 30
0.0
 11
3503.466112077759135
 21
2077.97801930700507
 31
0.0
  0
ARC
  5
985
  8
0
  6
CONTINUOUS
 62
     7
 10
3501.6983461331587932
 20
2076.2102635601040674
 30
0.0
 40
2.50000000000006
 50
44.9999999999907914
 51
224.9999999999907914
  0
LINE
  5
986
  8
0
  6
CONTINUOUS
 62
     7
 10
3499.9305806165589274
 20
2074.442510197503907
 30
0.0
 11
3521.1437824225590703
 21
2053.2293065289040896
 31
0.0
  0
ARC
  5
987
  8
0
  6
CONTINUOUS
 62
     7
 10
3522.9115495687588009
 20
2054.9970601245040598
 30
0.0
 40
2.5000000000000191
 50
224.9999999999907914
 51
44.9999999999907914
  0
LINE
  5
988
  8
0
  6
CONTINUOUS
 62
     7
 10
3524.6793157463589523
 20
2006.7648335198039149
 30
0.0
 11
3503.466112077759135
 21
2027.9780371884039596
 31
0.0
  0
ARC
  5
989
  8
0
  6
CONTINUOUS
 62
     7
 10
3501.6983461331587932
 20
2026.2102635601040674
 30
0.0
 40
2.500000000000099
 50
44.9999999999907914
 51
224.9999999999907914
  0
LINE
  5
98A
  8
0
  6
CONTINUOUS
 62
     7
 10
3499.9305806165589274
 20
2024.4424982766040557
 30
0.0
 11
3521.1437824225590703
 21
2003.229294608004011
 31
0.0
  0
ARC
  5
98B
  8
0
  6
CONTINUOUS
 62
     7
 10
3522.9115495687588009
 20
2004.9970601245040598
 30
0.0
 40
2.5000000000000191
 50
224.9999999999907914
 51
44.9999999999907914
  0
LINE
  5
98C
  8
0
  6
CONTINUOUS
 62
     7
 10
3524.6793157463589523
 20
1956.7648215989040636
 30
0.0
 11
3503.466112077759135
 21
1977.9780252674040639
 31
0.0
  0
ARC
  5
98D
  8
0
  6
CONTINUOUS
 62
     7
 10
3501.6983461331587932
 20
1976.2102635601040674
 30
0.0
 40
2.500000000000079
 50
44.9999999999907914
 51
224.9999999999907914
  0
LINE
  5
98E
  8
0
  6
CONTINUOUS
 62
     7
 10
3499.9305806165589274
 20
1974.4425012568040074
 30
0.0
 11
3521.1437824225590703
 21
1953.2292975882039627
 31
0.0
  0
ARC
  5
98F
  8
0
  6
CONTINUOUS
 62
     7
 10
3522.9115495687588009
 20
1954.9970601245040598
 30
0.0
 40
2.5000000000000191
 50
224.9999999999907914
 51
44.9999999999907914
  0
LINE
  5
990
  8
0
  6
CONTINUOUS
 62
     7
 10
3524.6793157463589523
 20
1906.7648245791040154
 30
0.0
 11
3503.466112077759135
 21
1927.97802824770406
 31
0.0
  0
ARC
  5
991
  8
0
  6
CONTINUOUS
 62
     7
 10
3501.6983461331587932
 20
1926.2102635601040674
 30
0.0
 40
2.5
 50
44.9999999999907914
 51
224.9999999999907914
  0
LINE
  5
992
  8
0
  6
CONTINUOUS
 62
     7
 10
3499.9305806165589274
 20
1924.4424893359039288
 30
0.0
 11
3521.1437824225590703
 21
1903.2292931178039908
 31
0.0
  0
ARC
  5
993
  8
0
  6
CONTINUOUS
 62
     7
 10
3522.9115495687588009
 20
1904.9970601245040598
 30
0.0
 40
2.500000000000099
 50
224.9999999999907914
 51
44.9999999999907914
  0
LINE
  5
994
  8
0
  6
CONTINUOUS
 62
     7
 10
3524.6793157463589523
 20
1856.7648275593039671
 30
0.0
 11
3503.466112077759135
 21
1877.9780312279040118
 31
0.0
  0
ARC
  5
995
  8
0
  6
CONTINUOUS
 62
     7
 10
3501.6983461331587932
 20
1876.2102635601040674
 30
0.0
 40
2.5000000000001998
 50
44.9999999999907914
 51
224.9999999999907914
  0
LINE
  5
996
  8
0
  6
CONTINUOUS
 62
     7
 10
3499.9305806165589274
 20
1874.4424997667040316
 30
0.0
 11
3521.1437824225590703
 21
1853.2292923728039113
 31
0.0
  0
ARC
  5
997
  8
0
  6
CONTINUOUS
 62
     7
 10
3522.9115495687588009
 20
1854.9970601245040598
 30
0.0
 40
2.5000000000002589
 50
224.9999999999907914
 51
44.9999999999907914
  0
CIRCLE
  5
A31
  8
0
  6
CONTINUOUS
 62
     7
 10
3852.3256757524659406
 20
2106.5503585275951082
 30
0.0
 40
6.5000000000015907
  0
LINE
  5
A32
  8
0
  6
CONTINUOUS
 62
     7
 10
3845.5756750967661901
 20
2090.5003585275949263
 30
0.0
 11
3906.0756757002668564
 21
2090.5003585275949263
 31
0.0
  0
ARC
  5
A33
  8
0
  6
CONTINUOUS
 62
     7
 10
3845.5756757524659406
 20
2096.5003585275949263
 30
0.0
 40
6.0
 50
180.0
 51
270.0
  0
LINE
  5
A34
  8
0
  6
CONTINUOUS
 62
     7
 10
3839.5756778385662074
 20
2096.5003585796948755
 30
0.0
 11
3839.5756778385662074
 21
2239.0003539975950844
 31
0.0
  0
ARC
  5
A35
  8
0
  6
CONTINUOUS
 62
     7
 10
3845.5756757524659406
 20
2239.0003585275949263
 30
0.0
 40
6.0
 50
90.0
 51
180.0
  0
LINE
  5
A36
  8
0
  6
CONTINUOUS
 62
     7
 10
3845.5756750967661901
 20
2245.0003512557950671
 30
0.0
 11
3906.0756757002668564
 21
2245.0003512557950671
 31
0.0
  0
ARC
  5
A37
  8
0
  6
CONTINUOUS
 62
     7
 10
3906.0756757524659406
 20
2239.0003585275949263
 30
0.0
 40
6.0
 50
0.0
 51
90.0
  0
LINE
  5
A38
  8
0
  6
CONTINUOUS
 62
     7
 10
3912.0756757524659406
 20
2239.0003539975950844
 30
0.0
 11
3912.0756757524659406
 21
2096.5003585796948755
 31
0.0
  0
ARC
  5
A39
  8
0
  6
CONTINUOUS
 62
     7
 10
3906.0756757524659406
 20
2096.5003585275949263
 30
0.0
 40
6.0
 50
270.0
 51
0.0
  0
ARC
  5
A3A
  8
0
  6
CONTINUOUS
 62
     7
 10
3893.711349049565797
 20
2132.6503585275950172
 30
0.0
 40
1.5
 50
270.0
 51
0.0
  0
LINE
  5
A3B
  8
0
  6
CONTINUOUS
 62
     7
 10
3895.2113499012662032
 20
2227.2503562625961422
 30
0.0
 11
3895.2113499012662032
 21
2132.6503567751951778
 31
0.0
  0
ARC
  5
A3C
  8
0
  6
CONTINUOUS
 62
     7
 10
3893.711349049565797
 20
2227.2503585275949263
 30
0.0
 40
1.5
 50
0.0
 51
90.0
  0
LINE
  5
A3D
  8
0
  6
CONTINUOUS
 62
     7
 10
3856.6256758835670553
 20
2228.7503518518951751
 30
0.0
 11
3893.7113487240658287
 21
2228.7503518518951751
 31
0.0
  0
ARC
  5
A3E
  8
0
  6
CONTINUOUS
 62
     7
 10
3856.625675752467032
 20
2227.2503585275949263
 30
0.0
 40
1.5
 50
90.0
 51
180.0
  0
LINE
  5
A3F
  8
0
  6
CONTINUOUS
 62
     7
 10
3855.1256765689659005
 20
2132.6503567751951778
 30
0.0
 11
3855.1256765689659005
 21
2227.2503562625961422
 31
0.0
  0
ARC
  5
A40
  8
0
  6
CONTINUOUS
 62
     7
 10
3856.625675752467032
 20
2132.6503585275950172
 30
0.0
 40
1.5000000000000551
 50
180.0
 51
270.0
  0
LINE
  5
A41
  8
0
  6
CONTINUOUS
 62
     7
 10
3893.7113487240658287
 20
2131.1503574605949325
 30
0.0
 11
3856.6256758835670553
 21
2131.1503574605949325
 31
0.0
  0
ARC
  5
A42
  8
0
  6
CONTINUOUS
 62
     7
 10
3848.2646025791659667
 20
2179.6698799421960757
 30
0.0
 40
1.5
 50
270.0
 51
0.0
  0
LINE
  5
A43
  8
0
  6
CONTINUOUS
 62
     7
 10
3849.7646038498660346
 20
2179.6698831375952068
 30
0.0
 11
3849.7646038498660346
 21
2220.548693126094804
 31
0.0
  0
ARC
  5
A44
  8
0
  6
CONTINUOUS
 62
     7
 10
3848.2646025791659667
 20
2220.5486861701951966
 30
0.0
 40
1.5000000000000551
 50
0.0
 51
90.0
  0
LINE
  5
A45
  8
0
  6
CONTINUOUS
 62
     7
 10
3848.264604535367198
 20
2222.0486887153952011
 30
0.0
 11
3846.6967639591662191
 21
2222.0486887153952011
 31
0.0
  0
ARC
  5
A46
  8
0
  6
CONTINUOUS
 62
     7
 10
3846.6967657912659888
 20
2220.5486861701951966
 30
0.0
 40
1.5000000000000551
 50
90.0
 51
180.0
  0
LINE
  5
A47
  8
0
  6
CONTINUOUS
 62
     7
 10
3845.1967683699667759
 20
2220.548693126094804
 30
0.0
 11
3845.1967683699667759
 21
2179.6698831375952068
 31
0.0
  0
ARC
  5
A48
  8
0
  6
CONTINUOUS
 62
     7
 10
3846.6967657912659888
 20
2179.6698799421960757
 30
0.0
 40
1.5
 50
180.0
 51
270.0
  0
LINE
  5
A49
  8
0
  6
CONTINUOUS
 62
     7
 10
3846.6967639591662191
 20
2178.1698800977951578
 30
0.0
 11
3848.264604535367198
 21
2178.1698800977951578
 31
0.0
  0
CIRCLE
  5
A4A
  8
0
  6
CONTINUOUS
 62
     7
 10
3888.6756757524658497
 20
2106.0503585275951082
 30
0.0
 40
2.25
  0
CIRCLE
  5
A4B
  8
0
  6
CONTINUOUS
 62
     7
 10
3872.0756757524659406
 20
2105.7503585275949263
 30
0.0
 40
4.0
  0
ENDSEC
  0
EOF
