  0
SECTION
  2
HEADER
  9
$ACADVER
  1
AC1009
  9
$INSBASE
 10
0.0
 20
0.0
 30
0.0
  9
$EXTMIN
 10
22.8170984498695901
 20
143.0106045766949876
 30
0.0
  9
$EXTMAX
 10
1339.3728662902499309
 20
968.3790921055289118
 30
0.0
  9
$LIMMIN
 10
0.0
 20
0.0
  9
$LIMMAX
 10
1500.0
 20
1000.0
  9
$ORTHOMODE
 70
     0
  9
$REGENMODE
 70
     1
  9
$FILLMODE
 70
     1
  9
$QTEXTMODE
 70
     0
  9
$MIRRTEXT
 70
     1
  9
$DRAGMODE
 70
     2
  9
$LTSCALE
 40
1.0
  9
$OSMODE
 70
    39
  9
$ATTMODE
 70
     1
  9
$TEXTSIZE
 40
3.5
  9
$TRACEWID
 40
1.0
  9
$TEXTSTYLE
  7
STANDARD
  9
$CLAYER
  8
0
  9
$CELTYPE
  6
BYLAYER
  9
$CECOLOR
 62
   256
  9
$DIMSCALE
 40
1.0
  9
$DIMASZ
 40
3.3019999999999992
  9
$DIMEXO
 40
1.0
  9
$DIMDLI
 40
3.75
  9
$DIMRND
 40
0.0
  9
$DIMDLE
 40
0.0
  9
$DIMEXE
 40
1.0
  9
$DIMTP
 40
0.0
  9
$DIMTM
 40
0.0
  9
$DIMTXT
 40
3.5
  9
$DIMCEN
 40
2.5
  9
$DIMTSZ
 40
0.0
  9
$DIMTOL
 70
     0
  9
$DIMLIM
 70
     0
  9
$DIMTIH
 70
     1
  9
$DIMTOH
 70
     1
  9
$DIMSE1
 70
     0
  9
$DIMSE2
 70
     0
  9
$DIMTAD
 70
     1
  9
$DIMZIN
 70
     0
  9
$DIMBLK
  1

  9
$DIMASO
 70
     1
  9
$DIMSHO
 70
     1
  9
$DIMPOST
  1

  9
$DIMAPOST
  1

  9
$DIMALT
 70
     0
  9
$DIMALTD
 70
     3
  9
$DIMALTF
 40
0.0393700787401575
  9
$DIMLFAC
 40
1.0
  9
$DIMTOFL
 70
     1
  9
$DIMTVP
 40
0.0
  9
$DIMTIX
 70
     0
  9
$DIMSOXD
 70
     0
  9
$DIMSAH
 70
     0
  9
$DIMBLK1
  1

  9
$DIMBLK2
  1

  9
$DIMSTYLE
  2
ISO-25
  9
$DIMCLRD
 70
     0
  9
$DIMCLRE
 70
     0
  9
$DIMCLRT
 70
     0
  9
$DIMTFAC
 40
1.0
  9
$DIMGAP
 40
1.524
  9
$LUNITS
 70
     2
  9
$LUPREC
 70
     2
  9
$SKETCHINC
 40
1.0
  9
$FILLETRAD
 40
10.0
  9
$AUNITS
 70
     0
  9
$AUPREC
 70
     2
  9
$MENU
  1
.
  9
$ELEVATION
 40
0.0
  9
$PELEVATION
 40
0.0
  9
$THICKNESS
 40
0.0
  9
$LIMCHECK
 70
     0
  9
$BLIPMODE
 70
     0
  9
$CHAMFERA
 40
0.0
  9
$CHAMFERB
 40
0.0
  9
$SKPOLY
 70
     0
  9
$TDCREATE
 40
2457917.0474305548705161
  9
$TDUPDATE
 40
2458023.5643287040293217
  9
$TDINDWG
 40
0.0008217708
  9
$TDUSRTIMER
 40
0.0008217708
  9
$USRTIMER
 70
     1
  9
$ANGBASE
 50
0.0
  9
$ANGDIR
 70
     0
  9
$PDMODE
 70
     0
  9
$PDSIZE
 40
-1.0
  9
$PLINEWID
 40
0.0
  9
$COORDS
 70
     1
  9
$SPLFRAME
 70
     0
  9
$SPLINETYPE
 70
     6
  9
$SPLINESEGS
 70
     8
  9
$ATTDIA
 70
     1
  9
$ATTREQ
 70
     1
  9
$HANDLING
 70
     1
  9
$HANDSEED
  5
4D7
  9
$SURFTAB1
 70
     6
  9
$SURFTAB2
 70
     6
  9
$SURFTYPE
 70
     6
  9
$SURFU
 70
     6
  9
$SURFV
 70
     6
  9
$UCSNAME
  2

  9
$UCSORG
 10
0.0
 20
0.0
 30
0.0
  9
$UCSXDIR
 10
1.0
 20
0.0
 30
0.0
  9
$UCSYDIR
 10
0.0
 20
1.0
 30
0.0
  9
$PUCSNAME
  2

  9
$PUCSORG
 10
0.0
 20
0.0
 30
0.0
  9
$PUCSXDIR
 10
1.0
 20
0.0
 30
0.0
  9
$PUCSYDIR
 10
0.0
 20
1.0
 30
0.0
  9
$USERI1
 70
     0
  9
$USERI2
 70
     0
  9
$USERI3
 70
     0
  9
$USERI4
 70
     0
  9
$USERI5
 70
     0
  9
$USERR1
 40
0.0
  9
$USERR2
 40
0.0
  9
$USERR3
 40
0.0
  9
$USERR4
 40
0.0
  9
$USERR5
 40
0.0
  9
$WORLDVIEW
 70
     1
  9
$SHADEDGE
 70
     3
  9
$SHADEDIF
 70
    70
  9
$TILEMODE
 70
     1
  9
$MAXACTVP
 70
    64
  9
$PLIMCHECK
 70
     0
  9
$PEXTMIN
 10
1.0000000000000000E+20
 20
1.0000000000000000E+20
 30
1.0000000000000000E+20
  9
$PEXTMAX
 10
-1.0000000000000000E+20
 20
-1.0000000000000000E+20
 30
-1.0000000000000000E+20
  9
$PLIMMIN
 10
0.0
 20
0.0
  9
$PLIMMAX
 10
420.0
 20
297.0
  9
$UNITMODE
 70
     0
  9
$VISRETAIN
 70
     1
  9
$PLINEGEN
 70
     0
  9
$PSLTSCALE
 70
     1
  0
ENDSEC
  0
SECTION
  2
TABLES
  0
TABLE
  2
VPORT
 70
     1
  0
VPORT
  2
*ACTIVE
 70
     0
 10
0.0
 20
0.0
 11
1.0
 21
1.0
 12
778.8424736493825549
 22
528.8653284734310773
 13
0.0
 23
0.0
 14
10.0
 24
10.0
 15
10.0
 25
10.0
 16
0.0
 26
0.0
 36
1.0
 17
0.0
 27
0.0
 37
0.0
 40
994.3242066653012898
 41
2.252669039145907
 42
50.0
 43
0.0
 44
0.0
 50
0.0
 51
0.0
 71
     0
 72
  2000
 73
     1
 74
     3
 75
     0
 76
     0
 77
     0
 78
     0
  0
ENDTAB
  0
TABLE
  2
LTYPE
 70
     6
  0
LTYPE
  2
CONTINUOUS
 70
     0
  3
Solid line
 72
    65
 73
     0
 40
0.0
  0
LTYPE
  2
HIDDEN
 70
     0
  3
Hidden __ __ __ __ __ __ __ __ __ __ __ __ __ __
 72
    65
 73
     2
 40
1.905
 49
1.27
 49
-0.635
  0
LTYPE
  2
PHANTOM
 70
     0
  3
Phantom ______  __  __  ______  __  __  ______
 72
    65
 73
     6
 40
12.6999999999999993
 49
6.3499999999999988
 49
-1.27
 49
1.27
 49
-1.27
 49
1.27
 49
-1.27
  0
LTYPE
  2
CENTER
 70
     0
  3
Center ____ _ ____ _ ____ _ ____ _ ____ _ ____
 72
    65
 73
     4
 40
10.1600000000000001
 49
6.3499999999999988
 49
-1.27
 49
1.27
 49
-1.27
  0
LTYPE
  2
CENTERX2
 70
     0
  3
Center (2x) ________  __  ________  __  _____
 72
    65
 73
     4
 40
20.3200000000000003
 49
12.6999999999999993
 49
-2.54
 49
2.54
 49
-2.54
  0
LTYPE
  2
DOT2
 70
     0
  3
Dot (.5x) ........................................
 72
    65
 73
     2
 40
0.635
 49
0.0
 49
-0.635
  0
ENDTAB
  0
TABLE
  2
LAYER
 70
     2
  0
LAYER
  2
0
 70
     0
 62
     7
  6
CONTINUOUS
  0
LAYER
  2
FORMAT
 70
     0
 62
     7
  6
CONTINUOUS
  0
ENDTAB
  0
TABLE
  2
STYLE
 70
     1
  0
STYLE
  2
STANDARD
 70
     0
 40
0.0
 41
1.0
 50
0.0
 71
     0
 42
3.5
  3
txt
  4

  0
ENDTAB
  0
TABLE
  2
VIEW
 70
     0
  0
ENDTAB
  0
TABLE
  2
UCS
 70
     0
  0
ENDTAB
  0
TABLE
  2
APPID
 70
     3
  0
APPID
  2
ACAD
 70
     0
  0
APPID
  2
ACAD_NAV_VCDISPLAY
 70
     0
  0
APPID
  2
ACAD_MLEADERVER
 70
     0
  0
ENDTAB
  0
TABLE
  2
DIMSTYLE
 70
     1
  0
DIMSTYLE
  2
ISO-25
 70
     0
  3

  4

  5

  6

  7

 40
1.0
 41
2.5
 42
0.625
 43
3.75
 44
1.25
 45
0.0
 46
0.0
 47
0.0
 48
0.0
140
2.5
141
2.5
142
0.0
143
0.03937007874016
144
1.0
145
0.0
146
1.0
147
0.625
 71
     0
 72
     0
 73
     0
 74
     0
 75
     0
 76
     0
 77
     1
 78
     8
170
     0
171
     3
172
     1
173
     0
174
     0
175
     0
176
     0
177
     0
178
     0
  0
ENDTAB
  0
ENDSEC
  0
SECTION
  2
BLOCKS
  0
BLOCK
  8
0
  2
$MODEL_SPACE
 70
     0
 10
0.0
 20
0.0
 30
0.0
  3
$MODEL_SPACE
  1

  0
ENDBLK
  5
21
  8
0
  0
BLOCK
 67
     1
  8
0
  2
$PAPER_SPACE
 70
     0
 10
0.0
 20
0.0
 30
0.0
  3
$PAPER_SPACE
  1

  0
ENDBLK
  5
1D
 67
     1
  8
0
  0
ENDSEC
  0
SECTION
  2
ENTITIES
  0
CIRCLE
  5
74
  8
0
  6
CONTINUOUS
 62
     7
 10
411.8170984498487996
 20
822.105622444946448
 30
0.0
 40
1.9999999999735669
  0
CIRCLE
  5
75
  8
0
  6
CONTINUOUS
 62
     7
 10
411.817098449848686
 20
836.105622444946448
 30
0.0
 40
1.9999999999735669
  0
CIRCLE
  5
76
  8
0
  6
CONTINUOUS
 62
     7
 10
411.8170984498696043
 20
631.6056224449346246
 30
0.0
 40
1.9999999999993741
  0
CIRCLE
  5
77
  8
0
  6
CONTINUOUS
 62
     7
 10
411.8170984498696043
 20
617.6056224449346246
 30
0.0
 40
1.999999999999261
  0
CIRCLE
  5
78
  8
0
  6
CONTINUOUS
 62
     7
 10
42.8170984498696114
 20
722.3556224449274623
 30
0.0
 40
2.0
  0
CIRCLE
  5
79
  8
0
  6
CONTINUOUS
 62
     7
 10
42.8170984498696114
 20
786.355622444927576
 30
0.0
 40
2.0
  0
LINE
  5
7A
  8
0
  6
CONTINUOUS
 62
     7
 10
419.8170984498696043
 20
550.355622444927576
 30
0.0
 11
22.8170984498695901
 21
550.355622444927576
 31
0.0
  0
LINE
  5
7B
  8
0
  6
CONTINUOUS
 62
     7
 10
22.8170984498695901
 20
550.355622444927576
 30
0.0
 11
22.8170984498695901
 21
903.3556224449258707
 31
0.0
  0
POLYLINE
  8
0
  5
313
  62
7
  66
     1
 10
0.000000
 20
0.000000
 30
0.000000
  70
     8
  0
VERTEX
  8
0
  5
314
 10
32.2539
 20
903.356
 30
0.000000
  70
    32
  0
VERTEX
  8
0
  5
315
 10
32.2889
 20
903.356
 30
0.000000
  70
    32
  0
VERTEX
  8
0
  5
316
 10
32.3240
 20
903.356
 30
0.000000
  70
    32
  0
VERTEX
  8
0
  5
317
 10
32.3591
 20
903.356
 30
0.000000
  70
    32
  0
VERTEX
  8
0
  5
318
 10
32.3941
 20
903.357
 30
0.000000
  70
    32
  0
VERTEX
  8
0
  5
319
 10
32.4292
 20
903.357
 30
0.000000
  70
    32
  0
VERTEX
  8
0
  5
31A
 10
32.4643
 20
903.358
 30
0.000000
  70
    32
  0
VERTEX
  8
0
  5
31B
 10
32.4993
 20
903.358
 30
0.000000
  70
    32
  0
VERTEX
  8
0
  5
31C
 10
32.5344
 20
903.359
 30
0.000000
  70
    32
  0
VERTEX
  8
0
  5
31D
 10
32.5695
 20
903.360
 30
0.000000
  70
    32
  0
VERTEX
  8
0
  5
31E
 10
32.6045
 20
903.361
 30
0.000000
  70
    32
  0
VERTEX
  8
0
  5
31F
 10
32.6396
 20
903.362
 30
0.000000
  70
    32
  0
VERTEX
  8
0
  5
320
 10
32.6746
 20
903.364
 30
0.000000
  70
    32
  0
VERTEX
  8
0
  5
321
 10
32.7097
 20
903.365
 30
0.000000
  70
    32
  0
VERTEX
  8
0
  5
322
 10
32.7447
 20
903.367
 30
0.000000
  70
    32
  0
VERTEX
  8
0
  5
323
 10
32.7797
 20
903.368
 30
0.000000
  70
    32
  0
VERTEX
  8
0
  5
324
 10
32.8148
 20
903.370
 30
0.000000
  70
    32
  0
VERTEX
  8
0
  5
325
 10
32.8498
 20
903.372
 30
0.000000
  70
    32
  0
VERTEX
  8
0
  5
326
 10
32.8848
 20
903.374
 30
0.000000
  70
    32
  0
VERTEX
  8
0
  5
327
 10
32.9198
 20
903.376
 30
0.000000
  70
    32
  0
VERTEX
  8
0
  5
328
 10
32.9548
 20
903.378
 30
0.000000
  70
    32
  0
VERTEX
  8
0
  5
329
 10
32.9898
 20
903.380
 30
0.000000
  70
    32
  0
VERTEX
  8
0
  5
32A
 10
33.0248
 20
903.383
 30
0.000000
  70
    32
  0
VERTEX
  8
0
  5
32B
 10
33.0598
 20
903.385
 30
0.000000
  70
    32
  0
VERTEX
  8
0
  5
32C
 10
33.0948
 20
903.388
 30
0.000000
  70
    32
  0
VERTEX
  8
0
  5
32D
 10
33.1297
 20
903.391
 30
0.000000
  70
    32
  0
VERTEX
  8
0
  5
32E
 10
33.1647
 20
903.393
 30
0.000000
  70
    32
  0
VERTEX
  8
0
  5
32F
 10
33.1996
 20
903.396
 30
0.000000
  70
    32
  0
VERTEX
  8
0
  5
330
 10
33.2346
 20
903.400
 30
0.000000
  70
    32
  0
VERTEX
  8
0
  5
331
 10
33.2695
 20
903.403
 30
0.000000
  70
    32
  0
VERTEX
  8
0
  5
332
 10
33.3044
 20
903.406
 30
0.000000
  70
    32
  0
VERTEX
  8
0
  5
333
 10
33.3393
 20
903.409
 30
0.000000
  70
    32
  0
VERTEX
  8
0
  5
334
 10
33.3742
 20
903.413
 30
0.000000
  70
    32
  0
VERTEX
  8
0
  5
335
 10
33.4091
 20
903.417
 30
0.000000
  70
    32
  0
VERTEX
  8
0
  5
336
 10
33.4440
 20
903.420
 30
0.000000
  70
    32
  0
VERTEX
  8
0
  5
337
 10
33.4788
 20
903.424
 30
0.000000
  70
    32
  0
VERTEX
  8
0
  5
338
 10
33.5137
 20
903.428
 30
0.000000
  70
    32
  0
VERTEX
  8
0
  5
339
 10
33.5485
 20
903.432
 30
0.000000
  70
    32
  0
VERTEX
  8
0
  5
33A
 10
33.5834
 20
903.436
 30
0.000000
  70
    32
  0
VERTEX
  8
0
  5
33B
 10
33.6182
 20
903.441
 30
0.000000
  70
    32
  0
VERTEX
  8
0
  5
33C
 10
33.6530
 20
903.445
 30
0.000000
  70
    32
  0
VERTEX
  8
0
  5
33D
 10
33.6877
 20
903.450
 30
0.000000
  70
    32
  0
VERTEX
  8
0
  5
33E
 10
33.7225
 20
903.454
 30
0.000000
  70
    32
  0
VERTEX
  8
0
  5
33F
 10
33.7573
 20
903.459
 30
0.000000
  70
    32
  0
VERTEX
  8
0
  5
340
 10
33.7920
 20
903.464
 30
0.000000
  70
    32
  0
VERTEX
  8
0
  5
341
 10
33.8267
 20
903.469
 30
0.000000
  70
    32
  0
VERTEX
  8
0
  5
342
 10
33.8614
 20
903.474
 30
0.000000
  70
    32
  0
VERTEX
  8
0
  5
343
 10
33.8961
 20
903.479
 30
0.000000
  70
    32
  0
VERTEX
  8
0
  5
344
 10
33.9308
 20
903.484
 30
0.000000
  70
    32
  0
VERTEX
  8
0
  5
345
 10
33.9654
 20
903.490
 30
0.000000
  70
    32
  0
VERTEX
  8
0
  5
346
 10
34.0001
 20
903.495
 30
0.000000
  70
    32
  0
VERTEX
  8
0
  5
347
 10
34.0347
 20
903.501
 30
0.000000
  70
    32
  0
VERTEX
  8
0
  5
348
 10
34.0693
 20
903.507
 30
0.000000
  70
    32
  0
VERTEX
  8
0
  5
349
 10
34.1039
 20
903.512
 30
0.000000
  70
    32
  0
VERTEX
  8
0
  5
34A
 10
34.1384
 20
903.518
 30
0.000000
  70
    32
  0
VERTEX
  8
0
  5
34B
 10
34.1730
 20
903.524
 30
0.000000
  70
    32
  0
VERTEX
  8
0
  5
34C
 10
34.2075
 20
903.531
 30
0.000000
  70
    32
  0
VERTEX
  8
0
  5
34D
 10
34.2420
 20
903.537
 30
0.000000
  70
    32
  0
VERTEX
  8
0
  5
34E
 10
34.2765
 20
903.543
 30
0.000000
  70
    32
  0
VERTEX
  8
0
  5
34F
 10
34.3110
 20
903.550
 30
0.000000
  70
    32
  0
VERTEX
  8
0
  5
350
 10
34.3454
 20
903.556
 30
0.000000
  70
    32
  0
VERTEX
  8
0
  5
351
 10
34.3798
 20
903.563
 30
0.000000
  70
    32
  0
VERTEX
  8
0
  5
352
 10
34.4142
 20
903.570
 30
0.000000
  70
    32
  0
VERTEX
  8
0
  5
353
 10
34.4486
 20
903.577
 30
0.000000
  70
    32
  0
VERTEX
  8
0
  5
354
 10
34.4830
 20
903.584
 30
0.000000
  70
    32
  0
VERTEX
  8
0
  5
355
 10
34.5173
 20
903.591
 30
0.000000
  70
    32
  0
VERTEX
  8
0
  5
356
 10
34.5516
 20
903.598
 30
0.000000
  70
    32
  0
VERTEX
  8
0
  5
357
 10
34.5859
 20
903.606
 30
0.000000
  70
    32
  0
VERTEX
  8
0
  5
358
 10
34.6202
 20
903.613
 30
0.000000
  70
    32
  0
VERTEX
  8
0
  5
359
 10
34.6544
 20
903.621
 30
0.000000
  70
    32
  0
VERTEX
  8
0
  5
35A
 10
34.6886
 20
903.628
 30
0.000000
  70
    32
  0
VERTEX
  8
0
  5
35B
 10
34.7228
 20
903.636
 30
0.000000
  70
    32
  0
VERTEX
  8
0
  5
35C
 10
34.7570
 20
903.644
 30
0.000000
  70
    32
  0
VERTEX
  8
0
  5
35D
 10
34.7911
 20
903.652
 30
0.000000
  70
    32
  0
VERTEX
  8
0
  5
35E
 10
34.8252
 20
903.660
 30
0.000000
  70
    32
  0
VERTEX
  8
0
  5
35F
 10
34.8593
 20
903.669
 30
0.000000
  70
    32
  0
VERTEX
  8
0
  5
360
 10
34.8934
 20
903.677
 30
0.000000
  70
    32
  0
VERTEX
  8
0
  5
361
 10
34.9274
 20
903.685
 30
0.000000
  70
    32
  0
VERTEX
  8
0
  5
362
 10
34.9614
 20
903.694
 30
0.000000
  70
    32
  0
VERTEX
  8
0
  5
363
 10
34.9954
 20
903.703
 30
0.000000
  70
    32
  0
VERTEX
  8
0
  5
364
 10
35.0294
 20
903.712
 30
0.000000
  70
    32
  0
VERTEX
  8
0
  5
365
 10
35.0633
 20
903.720
 30
0.000000
  70
    32
  0
VERTEX
  8
0
  5
366
 10
35.0972
 20
903.729
 30
0.000000
  70
    32
  0
VERTEX
  8
0
  5
367
 10
35.1310
 20
903.739
 30
0.000000
  70
    32
  0
VERTEX
  8
0
  5
368
 10
35.1649
 20
903.748
 30
0.000000
  70
    32
  0
VERTEX
  8
0
  5
369
 10
35.1987
 20
903.757
 30
0.000000
  70
    32
  0
VERTEX
  8
0
  5
36A
 10
35.2325
 20
903.767
 30
0.000000
  70
    32
  0
VERTEX
  8
0
  5
36B
 10
35.2662
 20
903.776
 30
0.000000
  70
    32
  0
VERTEX
  8
0
  5
36C
 10
35.2999
 20
903.786
 30
0.000000
  70
    32
  0
VERTEX
  8
0
  5
36D
 10
35.3336
 20
903.796
 30
0.000000
  70
    32
  0
VERTEX
  8
0
  5
36E
 10
35.3673
 20
903.805
 30
0.000000
  70
    32
  0
VERTEX
  8
0
  5
36F
 10
35.4009
 20
903.815
 30
0.000000
  70
    32
  0
VERTEX
  8
0
  5
370
 10
35.4345
 20
903.826
 30
0.000000
  70
    32
  0
VERTEX
  8
0
  5
371
 10
35.4680
 20
903.836
 30
0.000000
  70
    32
  0
VERTEX
  8
0
  5
372
 10
35.5016
 20
903.846
 30
0.000000
  70
    32
  0
VERTEX
  8
0
  5
373
 10
35.5350
 20
903.856
 30
0.000000
  70
    32
  0
VERTEX
  8
0
  5
374
 10
35.5685
 20
903.867
 30
0.000000
  70
    32
  0
VERTEX
  8
0
  5
375
 10
35.6019
 20
903.878
 30
0.000000
  70
    32
  0
VERTEX
  8
0
  5
376
 10
35.6353
 20
903.888
 30
0.000000
  70
    32
  0
VERTEX
  8
0
  5
377
 10
35.6687
 20
903.899
 30
0.000000
  70
    32
  0
VERTEX
  8
0
  5
378
 10
35.7020
 20
903.910
 30
0.000000
  70
    32
  0
VERTEX
  8
0
  5
379
 10
35.7353
 20
903.921
 30
0.000000
  70
    32
  0
VERTEX
  8
0
  5
37A
 10
35.7685
 20
903.932
 30
0.000000
  70
    32
  0
VERTEX
  8
0
  5
37B
 10
35.8017
 20
903.944
 30
0.000000
  70
    32
  0
VERTEX
  8
0
  5
37C
 10
35.8349
 20
903.955
 30
0.000000
  70
    32
  0
VERTEX
  8
0
  5
37D
 10
35.8681
 20
903.966
 30
0.000000
  70
    32
  0
VERTEX
  8
0
  5
37E
 10
35.9012
 20
903.978
 30
0.000000
  70
    32
  0
VERTEX
  8
0
  5
37F
 10
35.9342
 20
903.990
 30
0.000000
  70
    32
  0
VERTEX
  8
0
  5
380
 10
35.9673
 20
904.001
 30
0.000000
  70
    32
  0
VERTEX
  8
0
  5
381
 10
36.0003
 20
904.013
 30
0.000000
  70
    32
  0
VERTEX
  8
0
  5
382
 10
36.0332
 20
904.025
 30
0.000000
  70
    32
  0
VERTEX
  8
0
  5
383
 10
36.0661
 20
904.037
 30
0.000000
  70
    32
  0
VERTEX
  8
0
  5
384
 10
36.0990
 20
904.050
 30
0.000000
  70
    32
  0
VERTEX
  8
0
  5
385
 10
36.1319
 20
904.062
 30
0.000000
  70
    32
  0
VERTEX
  8
0
  5
386
 10
36.1647
 20
904.074
 30
0.000000
  70
    32
  0
VERTEX
  8
0
  5
387
 10
36.1974
 20
904.087
 30
0.000000
  70
    32
  0
VERTEX
  8
0
  5
388
 10
36.2301
 20
904.100
 30
0.000000
  70
    32
  0
VERTEX
  8
0
  5
389
 10
36.2628
 20
904.112
 30
0.000000
  70
    32
  0
VERTEX
  8
0
  5
38A
 10
36.2955
 20
904.125
 30
0.000000
  70
    32
  0
VERTEX
  8
0
  5
38B
 10
36.3281
 20
904.138
 30
0.000000
  70
    32
  0
VERTEX
  8
0
  5
38C
 10
36.3606
 20
904.151
 30
0.000000
  70
    32
  0
VERTEX
  8
0
  5
38D
 10
36.3931
 20
904.164
 30
0.000000
  70
    32
  0
VERTEX
  8
0
  5
38E
 10
36.4256
 20
904.178
 30
0.000000
  70
    32
  0
VERTEX
  8
0
  5
38F
 10
36.4580
 20
904.191
 30
0.000000
  70
    32
  0
VERTEX
  8
0
  5
390
 10
36.4904
 20
904.204
 30
0.000000
  70
    32
  0
VERTEX
  8
0
  5
391
 10
36.5228
 20
904.218
 30
0.000000
  70
    32
  0
VERTEX
  8
0
  5
392
 10
36.5551
 20
904.232
 30
0.000000
  70
    32
  0
VERTEX
  8
0
  5
393
 10
36.5873
 20
904.245
 30
0.000000
  70
    32
  0
VERTEX
  8
0
  5
394
 10
36.6196
 20
904.259
 30
0.000000
  70
    32
  0
VERTEX
  8
0
  5
395
 10
36.6517
 20
904.273
 30
0.000000
  70
    32
  0
VERTEX
  8
0
  5
396
 10
36.6838
 20
904.287
 30
0.000000
  70
    32
  0
VERTEX
  8
0
  5
397
 10
36.7159
 20
904.301
 30
0.000000
  70
    32
  0
VERTEX
  8
0
  5
398
 10
36.7480
 20
904.316
 30
0.000000
  70
    32
  0
VERTEX
  8
0
  5
399
 10
36.7800
 20
904.330
 30
0.000000
  70
    32
  0
VERTEX
  8
0
  5
39A
 10
36.8119
 20
904.345
 30
0.000000
  70
    32
  0
VERTEX
  8
0
  5
39B
 10
36.8438
 20
904.359
 30
0.000000
  70
    32
  0
VERTEX
  8
0
  5
39C
 10
36.8757
 20
904.374
 30
0.000000
  70
    32
  0
VERTEX
  8
0
  5
39D
 10
36.9075
 20
904.389
 30
0.000000
  70
    32
  0
VERTEX
  8
0
  5
39E
 10
36.9392
 20
904.403
 30
0.000000
  70
    32
  0
VERTEX
  8
0
  5
39F
 10
36.9709
 20
904.418
 30
0.000000
  70
    32
  0
VERTEX
  8
0
  5
3A0
 10
37.0026
 20
904.434
 30
0.000000
  70
    32
  0
VERTEX
  8
0
  5
3A1
 10
37.0342
 20
904.449
 30
0.000000
  70
    32
  0
VERTEX
  8
0
  5
3A2
 10
37.0658
 20
904.464
 30
0.000000
  70
    32
  0
VERTEX
  8
0
  5
3A3
 10
37.0973
 20
904.479
 30
0.000000
  70
    32
  0
VERTEX
  8
0
  5
3A4
 10
37.1287
 20
904.495
 30
0.000000
  70
    32
  0
VERTEX
  8
0
  5
3A5
 10
37.1602
 20
904.510
 30
0.000000
  70
    32
  0
VERTEX
  8
0
  5
3A6
 10
37.1915
 20
904.526
 30
0.000000
  70
    32
  0
VERTEX
  8
0
  5
3A7
 10
37.2229
 20
904.542
 30
0.000000
  70
    32
  0
VERTEX
  8
0
  5
3A8
 10
37.2541
 20
904.558
 30
0.000000
  70
    32
  0
VERTEX
  8
0
  5
3A9
 10
37.2853
 20
904.574
 30
0.000000
  70
    32
  0
VERTEX
  8
0
  5
3AA
 10
37.3165
 20
904.590
 30
0.000000
  70
    32
  0
VERTEX
  8
0
  5
3AB
 10
37.3476
 20
904.606
 30
0.000000
  70
    32
  0
VERTEX
  8
0
  5
3AC
 10
37.3787
 20
904.622
 30
0.000000
  70
    32
  0
VERTEX
  8
0
  5
3AD
 10
37.4097
 20
904.639
 30
0.000000
  70
    32
  0
VERTEX
  8
0
  5
3AE
 10
37.4406
 20
904.655
 30
0.000000
  70
    32
  0
VERTEX
  8
0
  5
3AF
 10
37.4715
 20
904.672
 30
0.000000
  70
    32
  0
VERTEX
  8
0
  5
3B0
 10
37.5024
 20
904.689
 30
0.000000
  70
    32
  0
VERTEX
  8
0
  5
3B1
 10
37.5332
 20
904.705
 30
0.000000
  70
    32
  0
VERTEX
  8
0
  5
3B2
 10
37.5639
 20
904.722
 30
0.000000
  70
    32
  0
VERTEX
  8
0
  5
3B3
 10
37.5946
 20
904.739
 30
0.000000
  70
    32
  0
VERTEX
  8
0
  5
3B4
 10
37.6253
 20
904.756
 30
0.000000
  70
    32
  0
VERTEX
  8
0
  5
3B5
 10
37.6558
 20
904.773
 30
0.000000
  70
    32
  0
VERTEX
  8
0
  5
3B6
 10
37.6864
 20
904.791
 30
0.000000
  70
    32
  0
VERTEX
  8
0
  5
3B7
 10
37.7168
 20
904.808
 30
0.000000
  70
    32
  0
VERTEX
  8
0
  5
3B8
 10
37.7472
 20
904.826
 30
0.000000
  70
    32
  0
VERTEX
  8
0
  5
3B9
 10
37.7776
 20
904.843
 30
0.000000
  70
    32
  0
VERTEX
  8
0
  5
3BA
 10
37.8079
 20
904.861
 30
0.000000
  70
    32
  0
VERTEX
  8
0
  5
3BB
 10
37.8381
 20
904.879
 30
0.000000
  70
    32
  0
VERTEX
  8
0
  5
3BC
 10
37.8683
 20
904.896
 30
0.000000
  70
    32
  0
VERTEX
  8
0
  5
3BD
 10
37.8985
 20
904.914
 30
0.000000
  70
    32
  0
VERTEX
  8
0
  5
3BE
 10
37.9285
 20
904.932
 30
0.000000
  70
    32
  0
VERTEX
  8
0
  5
3BF
 10
37.9585
 20
904.951
 30
0.000000
  70
    32
  0
VERTEX
  8
0
  5
3C0
 10
37.9885
 20
904.969
 30
0.000000
  70
    32
  0
VERTEX
  8
0
  5
3C1
 10
38.0184
 20
904.987
 30
0.000000
  70
    32
  0
VERTEX
  8
0
  5
3C2
 10
38.0482
 20
905.006
 30
0.000000
  70
    32
  0
VERTEX
  8
0
  5
3C3
 10
38.0780
 20
905.024
 30
0.000000
  70
    32
  0
VERTEX
  8
0
  5
3C4
 10
38.1077
 20
905.043
 30
0.000000
  70
    32
  0
VERTEX
  8
0
  5
3C5
 10
38.1374
 20
905.061
 30
0.000000
  70
    32
  0
VERTEX
  8
0
  5
3C6
 10
38.1670
 20
905.080
 30
0.000000
  70
    32
  0
VERTEX
  8
0
  5
3C7
 10
38.1965
 20
905.099
 30
0.000000
  70
    32
  0
VERTEX
  8
0
  5
3C8
 10
38.2260
 20
905.118
 30
0.000000
  70
    32
  0
VERTEX
  8
0
  5
3C9
 10
38.2554
 20
905.137
 30
0.000000
  70
    32
  0
VERTEX
  8
0
  5
3CA
 10
38.2848
 20
905.156
 30
0.000000
  70
    32
  0
VERTEX
  8
0
  5
3CB
 10
38.3141
 20
905.176
 30
0.000000
  70
    32
  0
VERTEX
  8
0
  5
3CC
 10
38.3433
 20
905.195
 30
0.000000
  70
    32
  0
VERTEX
  8
0
  5
3CD
 10
38.3725
 20
905.215
 30
0.000000
  70
    32
  0
VERTEX
  8
0
  5
3CE
 10
38.4016
 20
905.234
 30
0.000000
  70
    32
  0
VERTEX
  8
0
  5
3CF
 10
38.4307
 20
905.254
 30
0.000000
  70
    32
  0
VERTEX
  8
0
  5
3D0
 10
38.4597
 20
905.273
 30
0.000000
  70
    32
  0
VERTEX
  8
0
  5
3D1
 10
38.4886
 20
905.293
 30
0.000000
  70
    32
  0
VERTEX
  8
0
  5
3D2
 10
38.5174
 20
905.313
 30
0.000000
  70
    32
  0
VERTEX
  8
0
  5
3D3
 10
38.5462
 20
905.333
 30
0.000000
  70
    32
  0
VERTEX
  8
0
  5
3D4
 10
38.5750
 20
905.353
 30
0.000000
  70
    32
  0
VERTEX
  8
0
  5
3D5
 10
38.6037
 20
905.374
 30
0.000000
  70
    32
  0
VERTEX
  8
0
  5
3D6
 10
38.6323
 20
905.394
 30
0.000000
  70
    32
  0
VERTEX
  8
0
  5
3D7
 10
38.6608
 20
905.414
 30
0.000000
  70
    32
  0
VERTEX
  8
0
  5
3D8
 10
38.6893
 20
905.435
 30
0.000000
  70
    32
  0
VERTEX
  8
0
  5
3D9
 10
38.7177
 20
905.455
 30
0.000000
  70
    32
  0
VERTEX
  8
0
  5
3DA
 10
38.7460
 20
905.476
 30
0.000000
  70
    32
  0
VERTEX
  8
0
  5
3DB
 10
38.7743
 20
905.497
 30
0.000000
  70
    32
  0
VERTEX
  8
0
  5
3DC
 10
38.8025
 20
905.518
 30
0.000000
  70
    32
  0
VERTEX
  8
0
  5
3DD
 10
38.8307
 20
905.538
 30
0.000000
  70
    32
  0
VERTEX
  8
0
  5
3DE
 10
38.8587
 20
905.559
 30
0.000000
  70
    32
  0
VERTEX
  8
0
  5
3DF
 10
38.8868
 20
905.581
 30
0.000000
  70
    32
  0
VERTEX
  8
0
  5
3E0
 10
38.9147
 20
905.602
 30
0.000000
  70
    32
  0
VERTEX
  8
0
  5
3E1
 10
38.9426
 20
905.623
 30
0.000000
  70
    32
  0
VERTEX
  8
0
  5
3E2
 10
38.9704
 20
905.644
 30
0.000000
  70
    32
  0
VERTEX
  8
0
  5
3E3
 10
38.9981
 20
905.666
 30
0.000000
  70
    32
  0
VERTEX
  8
0
  5
3E4
 10
39.0258
 20
905.687
 30
0.000000
  70
    32
  0
VERTEX
  8
0
  5
3E5
 10
39.0534
 20
905.709
 30
0.000000
  70
    32
  0
VERTEX
  8
0
  5
3E6
 10
39.0810
 20
905.731
 30
0.000000
  70
    32
  0
VERTEX
  8
0
  5
3E7
 10
39.1084
 20
905.753
 30
0.000000
  70
    32
  0
VERTEX
  8
0
  5
3E8
 10
39.1358
 20
905.774
 30
0.000000
  70
    32
  0
VERTEX
  8
0
  5
3E9
 10
39.1631
 20
905.796
 30
0.000000
  70
    32
  0
VERTEX
  8
0
  5
3EA
 10
39.1904
 20
905.819
 30
0.000000
  70
    32
  0
VERTEX
  8
0
  5
3EB
 10
39.2176
 20
905.841
 30
0.000000
  70
    32
  0
VERTEX
  8
0
  5
3EC
 10
39.2447
 20
905.863
 30
0.000000
  70
    32
  0
VERTEX
  8
0
  5
3ED
 10
39.2718
 20
905.885
 30
0.000000
  70
    32
  0
VERTEX
  8
0
  5
3EE
 10
39.2987
 20
905.908
 30
0.000000
  70
    32
  0
VERTEX
  8
0
  5
3EF
 10
39.3256
 20
905.930
 30
0.000000
  70
    32
  0
VERTEX
  8
0
  5
3F0
 10
39.3525
 20
905.953
 30
0.000000
  70
    32
  0
VERTEX
  8
0
  5
3F1
 10
39.3792
 20
905.975
 30
0.000000
  70
    32
  0
VERTEX
  8
0
  5
3F2
 10
39.4059
 20
905.998
 30
0.000000
  70
    32
  0
VERTEX
  8
0
  5
3F3
 10
39.4325
 20
906.021
 30
0.000000
  70
    32
  0
VERTEX
  8
0
  5
3F4
 10
39.4591
 20
906.044
 30
0.000000
  70
    32
  0
VERTEX
  8
0
  5
3F5
 10
39.4855
 20
906.067
 30
0.000000
  70
    32
  0
VERTEX
  8
0
  5
3F6
 10
39.5119
 20
906.090
 30
0.000000
  70
    32
  0
VERTEX
  8
0
  5
3F7
 10
39.5382
 20
906.113
 30
0.000000
  70
    32
  0
VERTEX
  8
0
  5
3F8
 10
39.5645
 20
906.137
 30
0.000000
  70
    32
  0
VERTEX
  8
0
  5
3F9
 10
39.5907
 20
906.160
 30
0.000000
  70
    32
  0
VERTEX
  8
0
  5
3FA
 10
39.6168
 20
906.183
 30
0.000000
  70
    32
  0
VERTEX
  8
0
  5
3FB
 10
39.6428
 20
906.207
 30
0.000000
  70
    32
  0
VERTEX
  8
0
  5
3FC
 10
39.6687
 20
906.230
 30
0.000000
  70
    32
  0
VERTEX
  8
0
  5
3FD
 10
39.6946
 20
906.254
 30
0.000000
  70
    32
  0
VERTEX
  8
0
  5
3FE
 10
39.7204
 20
906.278
 30
0.000000
  70
    32
  0
VERTEX
  8
0
  5
3FF
 10
39.7461
 20
906.302
 30
0.000000
  70
    32
  0
VERTEX
  8
0
  5
400
 10
39.7718
 20
906.326
 30
0.000000
  70
    32
  0
VERTEX
  8
0
  5
401
 10
39.7973
 20
906.350
 30
0.000000
  70
    32
  0
VERTEX
  8
0
  5
402
 10
39.8228
 20
906.374
 30
0.000000
  70
    32
  0
VERTEX
  8
0
  5
403
 10
39.8482
 20
906.398
 30
0.000000
  70
    32
  0
VERTEX
  8
0
  5
404
 10
39.8736
 20
906.422
 30
0.000000
  70
    32
  0
VERTEX
  8
0
  5
405
 10
39.8988
 20
906.446
 30
0.000000
  70
    32
  0
VERTEX
  8
0
  5
406
 10
39.9240
 20
906.471
 30
0.000000
  70
    32
  0
VERTEX
  8
0
  5
407
 10
39.9491
 20
906.495
 30
0.000000
  70
    32
  0
VERTEX
  8
0
  5
408
 10
39.9741
 20
906.520
 30
0.000000
  70
    32
  0
VERTEX
  8
0
  5
409
 10
39.9991
 20
906.545
 30
0.000000
  70
    32
  0
VERTEX
  8
0
  5
40A
 10
40.0239
 20
906.569
 30
0.000000
  70
    32
  0
VERTEX
  8
0
  5
40B
 10
40.0487
 20
906.594
 30
0.000000
  70
    32
  0
VERTEX
  8
0
  5
40C
 10
40.0734
 20
906.619
 30
0.000000
  70
    32
  0
VERTEX
  8
0
  5
40D
 10
40.0980
 20
906.644
 30
0.000000
  70
    32
  0
VERTEX
  8
0
  5
40E
 10
40.1226
 20
906.669
 30
0.000000
  70
    32
  0
VERTEX
  8
0
  5
40F
 10
40.1470
 20
906.694
 30
0.000000
  70
    32
  0
VERTEX
  8
0
  5
410
 10
40.1714
 20
906.719
 30
0.000000
  70
    32
  0
VERTEX
  8
0
  5
411
 10
40.1957
 20
906.745
 30
0.000000
  70
    32
  0
VERTEX
  8
0
  5
412
 10
40.2200
 20
906.770
 30
0.000000
  70
    32
  0
VERTEX
  8
0
  5
413
 10
40.2441
 20
906.796
 30
0.000000
  70
    32
  0
VERTEX
  8
0
  5
414
 10
40.2682
 20
906.821
 30
0.000000
  70
    32
  0
VERTEX
  8
0
  5
415
 10
40.2921
 20
906.847
 30
0.000000
  70
    32
  0
VERTEX
  8
0
  5
416
 10
40.3160
 20
906.872
 30
0.000000
  70
    32
  0
VERTEX
  8
0
  5
417
 10
40.3398
 20
906.898
 30
0.000000
  70
    32
  0
VERTEX
  8
0
  5
418
 10
40.3636
 20
906.924
 30
0.000000
  70
    32
  0
VERTEX
  8
0
  5
419
 10
40.3872
 20
906.950
 30
0.000000
  70
    32
  0
VERTEX
  8
0
  5
41A
 10
40.4108
 20
906.976
 30
0.000000
  70
    32
  0
VERTEX
  8
0
  5
41B
 10
40.4343
 20
907.002
 30
0.000000
  70
    32
  0
VERTEX
  8
0
  5
41C
 10
40.4577
 20
907.028
 30
0.000000
  70
    32
  0
VERTEX
  8
0
  5
41D
 10
40.4810
 20
907.054
 30
0.000000
  70
    32
  0
VERTEX
  8
0
  5
41E
 10
40.5042
 20
907.080
 30
0.000000
  70
    32
  0
VERTEX
  8
0
  5
41F
 10
40.5274
 20
907.107
 30
0.000000
  70
    32
  0
VERTEX
  8
0
  5
420
 10
40.5505
 20
907.133
 30
0.000000
  70
    32
  0
VERTEX
  8
0
  5
421
 10
40.5734
 20
907.160
 30
0.000000
  70
    32
  0
VERTEX
  8
0
  5
422
 10
40.5963
 20
907.186
 30
0.000000
  70
    32
  0
VERTEX
  8
0
  5
423
 10
40.6192
 20
907.213
 30
0.000000
  70
    32
  0
VERTEX
  8
0
  5
424
 10
40.6419
 20
907.240
 30
0.000000
  70
    32
  0
VERTEX
  8
0
  5
425
 10
40.6645
 20
907.266
 30
0.000000
  70
    32
  0
VERTEX
  8
0
  5
426
 10
40.6871
 20
907.293
 30
0.000000
  70
    32
  0
VERTEX
  8
0
  5
427
 10
40.7096
 20
907.320
 30
0.000000
  70
    32
  0
VERTEX
  8
0
  5
428
 10
40.7320
 20
907.347
 30
0.000000
  70
    32
  0
VERTEX
  8
0
  5
429
 10
40.7543
 20
907.374
 30
0.000000
  70
    32
  0
VERTEX
  8
0
  5
42A
 10
40.7765
 20
907.401
 30
0.000000
  70
    32
  0
VERTEX
  8
0
  5
42B
 10
40.7986
 20
907.429
 30
0.000000
  70
    32
  0
VERTEX
  8
0
  5
42C
 10
40.8207
 20
907.456
 30
0.000000
  70
    32
  0
VERTEX
  8
0
  5
42D
 10
40.8426
 20
907.483
 30
0.000000
  70
    32
  0
VERTEX
  8
0
  5
42E
 10
40.8645
 20
907.511
 30
0.000000
  70
    32
  0
VERTEX
  8
0
  5
42F
 10
40.8863
 20
907.538
 30
0.000000
  70
    32
  0
VERTEX
  8
0
  5
430
 10
40.9080
 20
907.566
 30
0.000000
  70
    32
  0
VERTEX
  8
0
  5
431
 10
40.9296
 20
907.593
 30
0.000000
  70
    32
  0
VERTEX
  8
0
  5
432
 10
40.9511
 20
907.621
 30
0.000000
  70
    32
  0
VERTEX
  8
0
  5
433
 10
40.9725
 20
907.649
 30
0.000000
  70
    32
  0
VERTEX
  8
0
  5
434
 10
40.9939
 20
907.677
 30
0.000000
  70
    32
  0
VERTEX
  8
0
  5
435
 10
41.0151
 20
907.704
 30
0.000000
  70
    32
  0
VERTEX
  8
0
  5
436
 10
41.0363
 20
907.732
 30
0.000000
  70
    32
  0
VERTEX
  8
0
  5
437
 10
41.0573
 20
907.760
 30
0.000000
  70
    32
  0
VERTEX
  8
0
  5
438
 10
41.0783
 20
907.789
 30
0.000000
  70
    32
  0
VERTEX
  8
0
  5
439
 10
41.0992
 20
907.817
 30
0.000000
  70
    32
  0
VERTEX
  8
0
  5
43A
 10
41.1200
 20
907.845
 30
0.000000
  70
    32
  0
VERTEX
  8
0
  5
43B
 10
41.1408
 20
907.873
 30
0.000000
  70
    32
  0
VERTEX
  8
0
  5
43C
 10
41.1614
 20
907.902
 30
0.000000
  70
    32
  0
VERTEX
  8
0
  5
43D
 10
41.1819
 20
907.930
 30
0.000000
  70
    32
  0
VERTEX
  8
0
  5
43E
 10
41.2024
 20
907.959
 30
0.000000
  70
    32
  0
VERTEX
  8
0
  5
43F
 10
41.2227
 20
907.987
 30
0.000000
  70
    32
  0
VERTEX
  8
0
  5
440
 10
41.2430
 20
908.016
 30
0.000000
  70
    32
  0
VERTEX
  8
0
  5
441
 10
41.2632
 20
908.044
 30
0.000000
  70
    32
  0
VERTEX
  8
0
  5
442
 10
41.2832
 20
908.073
 30
0.000000
  70
    32
  0
VERTEX
  8
0
  5
443
 10
41.3032
 20
908.102
 30
0.000000
  70
    32
  0
VERTEX
  8
0
  5
444
 10
41.3231
 20
908.131
 30
0.000000
  70
    32
  0
VERTEX
  8
0
  5
445
 10
41.3429
 20
908.160
 30
0.000000
  70
    32
  0
VERTEX
  8
0
  5
446
 10
41.3626
 20
908.189
 30
0.000000
  70
    32
  0
VERTEX
  8
0
  5
447
 10
41.3823
 20
908.218
 30
0.000000
  70
    32
  0
VERTEX
  8
0
  5
448
 10
41.4018
 20
908.247
 30
0.000000
  70
    32
  0
VERTEX
  8
0
  5
449
 10
41.4212
 20
908.276
 30
0.000000
  70
    32
  0
VERTEX
  8
0
  5
44A
 10
41.4406
 20
908.306
 30
0.000000
  70
    32
  0
VERTEX
  8
0
  5
44B
 10
41.4598
 20
908.335
 30
0.000000
  70
    32
  0
VERTEX
  8
0
  5
44C
 10
41.4790
 20
908.364
 30
0.000000
  70
    32
  0
VERTEX
  8
0
  5
44D
 10
41.4980
 20
908.394
 30
0.000000
  70
    32
  0
VERTEX
  8
0
  5
44E
 10
41.5170
 20
908.423
 30
0.000000
  70
    32
  0
VERTEX
  8
0
  5
44F
 10
41.5358
 20
908.453
 30
0.000000
  70
    32
  0
VERTEX
  8
0
  5
450
 10
41.5546
 20
908.482
 30
0.000000
  70
    32
  0
VERTEX
  8
0
  5
451
 10
41.5733
 20
908.512
 30
0.000000
  70
    32
  0
VERTEX
  8
0
  5
452
 10
41.5919
 20
908.542
 30
0.000000
  70
    32
  0
VERTEX
  8
0
  5
453
 10
41.6104
 20
908.572
 30
0.000000
  70
    32
  0
SEQEND
  8
0
  5
454
  0
LINE
  5
7D
  8
0
  6
CONTINUOUS
 62
     7
 10
41.6103783523161468
 20
908.5715804140080536
 30
0.0
 11
71.1849614676584252
 21
956.4129488379223858
 31
0.0
  0
POLYLINE
  8
0
  5
455
  62
7
  66
     1
 10
0.000000
 20
0.000000
 30
0.000000
  70
     8
  0
VERTEX
  8
0
  5
456
 10
71.1850
 20
956.413
 30
0.000000
  70
    32
  0
VERTEX
  8
0
  5
457
 10
71.1939
 20
956.427
 30
0.000000
  70
    32
  0
VERTEX
  8
0
  5
458
 10
71.2029
 20
956.442
 30
0.000000
  70
    32
  0
VERTEX
  8
0
  5
459
 10
71.2118
 20
956.457
 30
0.000000
  70
    32
  0
VERTEX
  8
0
  5
45A
 10
71.2207
 20
956.471
 30
0.000000
  70
    32
  0
VERTEX
  8
0
  5
45B
 10
71.2295
 20
956.486
 30
0.000000
  70
    32
  0
VERTEX
  8
0
  5
45C
 10
71.2384
 20
956.500
 30
0.000000
  70
    32
  0
VERTEX
  8
0
  5
45D
 10
71.2472
 20
956.515
 30
0.000000
  70
    32
  0
VERTEX
  8
0
  5
45E
 10
71.2560
 20
956.529
 30
0.000000
  70
    32
  0
VERTEX
  8
0
  5
45F
 10
71.2648
 20
956.544
 30
0.000000
  70
    32
  0
VERTEX
  8
0
  5
460
 10
71.2735
 20
956.559
 30
0.000000
  70
    32
  0
VERTEX
  8
0
  5
461
 10
71.2823
 20
956.573
 30
0.000000
  70
    32
  0
VERTEX
  8
0
  5
462
 10
71.2910
 20
956.588
 30
0.000000
  70
    32
  0
VERTEX
  8
0
  5
463
 10
71.2996
 20
956.603
 30
0.000000
  70
    32
  0
VERTEX
  8
0
  5
464
 10
71.3083
 20
956.617
 30
0.000000
  70
    32
  0
VERTEX
  8
0
  5
465
 10
71.3169
 20
956.632
 30
0.000000
  70
    32
  0
VERTEX
  8
0
  5
466
 10
71.3256
 20
956.647
 30
0.000000
  70
    32
  0
VERTEX
  8
0
  5
467
 10
71.3342
 20
956.662
 30
0.000000
  70
    32
  0
VERTEX
  8
0
  5
468
 10
71.3427
 20
956.676
 30
0.000000
  70
    32
  0
VERTEX
  8
0
  5
469
 10
71.3513
 20
956.691
 30
0.000000
  70
    32
  0
VERTEX
  8
0
  5
46A
 10
71.3598
 20
956.706
 30
0.000000
  70
    32
  0
VERTEX
  8
0
  5
46B
 10
71.3683
 20
956.721
 30
0.000000
  70
    32
  0
VERTEX
  8
0
  5
46C
 10
71.3768
 20
956.735
 30
0.000000
  70
    32
  0
VERTEX
  8
0
  5
46D
 10
71.3852
 20
956.750
 30
0.000000
  70
    32
  0
VERTEX
  8
0
  5
46E
 10
71.3937
 20
956.765
 30
0.000000
  70
    32
  0
VERTEX
  8
0
  5
46F
 10
71.4021
 20
956.780
 30
0.000000
  70
    32
  0
VERTEX
  8
0
  5
470
 10
71.4105
 20
956.795
 30
0.000000
  70
    32
  0
VERTEX
  8
0
  5
471
 10
71.4188
 20
956.810
 30
0.000000
  70
    32
  0
VERTEX
  8
0
  5
472
 10
71.4272
 20
956.825
 30
0.000000
  70
    32
  0
VERTEX
  8
0
  5
473
 10
71.4355
 20
956.839
 30
0.000000
  70
    32
  0
VERTEX
  8
0
  5
474
 10
71.4438
 20
956.854
 30
0.000000
  70
    32
  0
VERTEX
  8
0
  5
475
 10
71.4520
 20
956.869
 30
0.000000
  70
    32
  0
VERTEX
  8
0
  5
476
 10
71.4603
 20
956.884
 30
0.000000
  70
    32
  0
VERTEX
  8
0
  5
477
 10
71.4685
 20
956.899
 30
0.000000
  70
    32
  0
VERTEX
  8
0
  5
478
 10
71.4767
 20
956.914
 30
0.000000
  70
    32
  0
VERTEX
  8
0
  5
479
 10
71.4849
 20
956.929
 30
0.000000
  70
    32
  0
VERTEX
  8
0
  5
47A
 10
71.4931
 20
956.944
 30
0.000000
  70
    32
  0
VERTEX
  8
0
  5
47B
 10
71.5012
 20
956.959
 30
0.000000
  70
    32
  0
VERTEX
  8
0
  5
47C
 10
71.5093
 20
956.974
 30
0.000000
  70
    32
  0
VERTEX
  8
0
  5
47D
 10
71.5174
 20
956.989
 30
0.000000
  70
    32
  0
VERTEX
  8
0
  5
47E
 10
71.5254
 20
957.004
 30
0.000000
  70
    32
  0
VERTEX
  8
0
  5
47F
 10
71.5335
 20
957.019
 30
0.000000
  70
    32
  0
VERTEX
  8
0
  5
480
 10
71.5415
 20
957.034
 30
0.000000
  70
    32
  0
VERTEX
  8
0
  5
481
 10
71.5495
 20
957.049
 30
0.000000
  70
    32
  0
VERTEX
  8
0
  5
482
 10
71.5575
 20
957.064
 30
0.000000
  70
    32
  0
VERTEX
  8
0
  5
483
 10
71.5654
 20
957.079
 30
0.000000
  70
    32
  0
VERTEX
  8
0
  5
484
 10
71.5733
 20
957.095
 30
0.000000
  70
    32
  0
VERTEX
  8
0
  5
485
 10
71.5812
 20
957.110
 30
0.000000
  70
    32
  0
VERTEX
  8
0
  5
486
 10
71.5891
 20
957.125
 30
0.000000
  70
    32
  0
VERTEX
  8
0
  5
487
 10
71.5969
 20
957.140
 30
0.000000
  70
    32
  0
VERTEX
  8
0
  5
488
 10
71.6048
 20
957.155
 30
0.000000
  70
    32
  0
VERTEX
  8
0
  5
489
 10
71.6126
 20
957.170
 30
0.000000
  70
    32
  0
VERTEX
  8
0
  5
48A
 10
71.6204
 20
957.185
 30
0.000000
  70
    32
  0
VERTEX
  8
0
  5
48B
 10
71.6281
 20
957.201
 30
0.000000
  70
    32
  0
VERTEX
  8
0
  5
48C
 10
71.6359
 20
957.216
 30
0.000000
  70
    32
  0
VERTEX
  8
0
  5
48D
 10
71.6436
 20
957.231
 30
0.000000
  70
    32
  0
VERTEX
  8
0
  5
48E
 10
71.6513
 20
957.246
 30
0.000000
  70
    32
  0
VERTEX
  8
0
  5
48F
 10
71.6589
 20
957.262
 30
0.000000
  70
    32
  0
VERTEX
  8
0
  5
490
 10
71.6666
 20
957.277
 30
0.000000
  70
    32
  0
VERTEX
  8
0
  5
491
 10
71.6742
 20
957.292
 30
0.000000
  70
    32
  0
VERTEX
  8
0
  5
492
 10
71.6818
 20
957.307
 30
0.000000
  70
    32
  0
VERTEX
  8
0
  5
493
 10
71.6893
 20
957.323
 30
0.000000
  70
    32
  0
VERTEX
  8
0
  5
494
 10
71.6969
 20
957.338
 30
0.000000
  70
    32
  0
VERTEX
  8
0
  5
495
 10
71.7044
 20
957.353
 30
0.000000
  70
    32
  0
VERTEX
  8
0
  5
496
 10
71.7119
 20
957.369
 30
0.000000
  70
    32
  0
VERTEX
  8
0
  5
497
 10
71.7194
 20
957.384
 30
0.000000
  70
    32
  0
VERTEX
  8
0
  5
498
 10
71.7268
 20
957.399
 30
0.000000
  70
    32
  0
VERTEX
  8
0
  5
499
 10
71.7342
 20
957.415
 30
0.000000
  70
    32
  0
VERTEX
  8
0
  5
49A
 10
71.7416
 20
957.430
 30
0.000000
  70
    32
  0
VERTEX
  8
0
  5
49B
 10
71.7490
 20
957.445
 30
0.000000
  70
    32
  0
VERTEX
  8
0
  5
49C
 10
71.7564
 20
957.461
 30
0.000000
  70
    32
  0
VERTEX
  8
0
  5
49D
 10
71.7637
 20
957.476
 30
0.000000
  70
    32
  0
VERTEX
  8
0
  5
49E
 10
71.7710
 20
957.492
 30
0.000000
  70
    32
  0
VERTEX
  8
0
  5
49F
 10
71.7783
 20
957.507
 30
0.000000
  70
    32
  0
VERTEX
  8
0
  5
4A0
 10
71.7856
 20
957.522
 30
0.000000
  70
    32
  0
VERTEX
  8
0
  5
4A1
 10
71.7928
 20
957.538
 30
0.000000
  70
    32
  0
VERTEX
  8
0
  5
4A2
 10
71.8000
 20
957.553
 30
0.000000
  70
    32
  0
VERTEX
  8
0
  5
4A3
 10
71.8072
 20
957.569
 30
0.000000
  70
    32
  0
VERTEX
  8
0
  5
4A4
 10
71.8144
 20
957.584
 30
0.000000
  70
    32
  0
VERTEX
  8
0
  5
4A5
 10
71.8215
 20
957.600
 30
0.000000
  70
    32
  0
VERTEX
  8
0
  5
4A6
 10
71.8286
 20
957.615
 30
0.000000
  70
    32
  0
VERTEX
  8
0
  5
4A7
 10
71.8357
 20
957.631
 30
0.000000
  70
    32
  0
VERTEX
  8
0
  5
4A8
 10
71.8428
 20
957.646
 30
0.000000
  70
    32
  0
VERTEX
  8
0
  5
4A9
 10
71.8498
 20
957.662
 30
0.000000
  70
    32
  0
VERTEX
  8
0
  5
4AA
 10
71.8568
 20
957.677
 30
0.000000
  70
    32
  0
VERTEX
  8
0
  5
4AB
 10
71.8638
 20
957.693
 30
0.000000
  70
    32
  0
VERTEX
  8
0
  5
4AC
 10
71.8708
 20
957.708
 30
0.000000
  70
    32
  0
VERTEX
  8
0
  5
4AD
 10
71.8778
 20
957.724
 30
0.000000
  70
    32
  0
VERTEX
  8
0
  5
4AE
 10
71.8847
 20
957.740
 30
0.000000
  70
    32
  0
VERTEX
  8
0
  5
4AF
 10
71.8916
 20
957.755
 30
0.000000
  70
    32
  0
VERTEX
  8
0
  5
4B0
 10
71.8985
 20
957.771
 30
0.000000
  70
    32
  0
VERTEX
  8
0
  5
4B1
 10
71.9053
 20
957.787
 30
0.000000
  70
    32
  0
VERTEX
  8
0
  5
4B2
 10
71.9121
 20
957.802
 30
0.000000
  70
    32
  0
VERTEX
  8
0
  5
4B3
 10
71.9189
 20
957.818
 30
0.000000
  70
    32
  0
VERTEX
  8
0
  5
4B4
 10
71.9257
 20
957.833
 30
0.000000
  70
    32
  0
VERTEX
  8
0
  5
4B5
 10
71.9325
 20
957.849
 30
0.000000
  70
    32
  0
VERTEX
  8
0
  5
4B6
 10
71.9392
 20
957.865
 30
0.000000
  70
    32
  0
VERTEX
  8
0
  5
4B7
 10
71.9459
 20
957.880
 30
0.000000
  70
    32
  0
VERTEX
  8
0
  5
4B8
 10
71.9526
 20
957.896
 30
0.000000
  70
    32
  0
VERTEX
  8
0
  5
4B9
 10
71.9593
 20
957.912
 30
0.000000
  70
    32
  0
VERTEX
  8
0
  5
4BA
 10
71.9659
 20
957.928
 30
0.000000
  70
    32
  0
VERTEX
  8
0
  5
4BB
 10
71.9725
 20
957.943
 30
0.000000
  70
    32
  0
VERTEX
  8
0
  5
4BC
 10
71.9791
 20
957.959
 30
0.000000
  70
    32
  0
VERTEX
  8
0
  5
4BD
 10
71.9856
 20
957.975
 30
0.000000
  70
    32
  0
VERTEX
  8
0
  5
4BE
 10
71.9922
 20
957.991
 30
0.000000
  70
    32
  0
VERTEX
  8
0
  5
4BF
 10
71.9987
 20
958.006
 30
0.000000
  70
    32
  0
VERTEX
  8
0
  5
4C0
 10
72.0052
 20
958.022
 30
0.000000
  70
    32
  0
VERTEX
  8
0
  5
4C1
 10
72.0116
 20
958.038
 30
0.000000
  70
    32
  0
VERTEX
  8
0
  5
4C2
 10
72.0181
 20
958.054
 30
0.000000
  70
    32
  0
VERTEX
  8
0
  5
4C3
 10
72.0245
 20
958.069
 30
0.000000
  70
    32
  0
VERTEX
  8
0
  5
4C4
 10
72.0309
 20
958.085
 30
0.000000
  70
    32
  0
VERTEX
  8
0
  5
4C5
 10
72.0373
 20
958.101
 30
0.000000
  70
    32
  0
VERTEX
  8
0
  5
4C6
 10
72.0436
 20
958.117
 30
0.000000
  70
    32
  0
VERTEX
  8
0
  5
4C7
 10
72.0499
 20
958.133
 30
0.000000
  70
    32
  0
VERTEX
  8
0
  5
4C8
 10
72.0562
 20
958.149
 30
0.000000
  70
    32
  0
VERTEX
  8
0
  5
4C9
 10
72.0625
 20
958.165
 30
0.000000
  70
    32
  0
VERTEX
  8
0
  5
4CA
 10
72.0687
 20
958.180
 30
0.000000
  70
    32
  0
VERTEX
  8
0
  5
4CB
 10
72.0749
 20
958.196
 30
0.000000
  70
    32
  0
VERTEX
  8
0
  5
4CC
 10
72.0811
 20
958.212
 30
0.000000
  70
    32
  0
VERTEX
  8
0
  5
4CD
 10
72.0873
 20
958.228
 30
0.000000
  70
    32
  0
VERTEX
  8
0
  5
4CE
 10
72.0934
 20
958.244
 30
0.000000
  70
    32
  0
VERTEX
  8
0
  5
4CF
 10
72.0996
 20
958.260
 30
0.000000
  70
    32
  0
VERTEX
  8
0
  5
4D0
 10
72.1057
 20
958.276
 30
0.000000
  70
    32
  0
VERTEX
  8
0
  5
4D1
 10
72.1117
 20
958.292
 30
0.000000
  70
    32
  0
VERTEX
  8
0
  5
4D2
 10
72.1178
 20
958.308
 30
0.000000
  70
    32
  0
VERTEX
  8
0
  5
4D3
 10
72.1238
 20
958.324
 30
0.000000
  70
    32
  0
VERTEX
  8
0
  5
4D4
 10
72.1298
 20
958.340
 30
0.000000
  70
    32
  0
VERTEX
  8
0
  5
4D5
 10
72.1358
 20
958.356
 30
0.000000
  70
    32
  0
SEQEND
  8
0
  5
4D6
  0
LINE
  5
7F
  8
0
  6
CONTINUOUS
 62
     7
 10
72.1357649920041695
 20
958.3556224449234833
 30
0.0
 11
371.5096308349893093
 21
958.355622444927576
 31
0.0
  0
ARC
  5
80
  8
0
  6
CONTINUOUS
 62
     7
 10
381.8170984498676148
 20
962.1969908688407713
 30
0.0
 40
11.0000000000000497
 50
200.4393275631865947
 51
211.7236029576841077
  0
LINE
  5
81
  8
0
  6
CONTINUOUS
 62
     7
 10
372.4605581848610996
 20
956.4129477959278347
 30
0.0
 11
402.0352223014627953
 21
908.5715793720135025
 31
0.0
  0
ARC
  5
82
  8
0
  6
CONTINUOUS
 62
     7
 10
411.3917625664693105
 20
914.3556224449265528
 30
0.0
 40
11.0000000000000409
 50
211.7236029576853014
 51
270.0000000000007958
  0
LINE
  5
83
  8
0
  6
CONTINUOUS
 62
     7
 10
411.3917625664693105
 20
903.3556224449266665
 30
0.0
 11
419.8170984498696043
 21
903.3556224449266665
 31
0.0
  0
LINE
  5
84
  8
0
  6
CONTINUOUS
 62
     7
 10
419.8170984498696043
 20
903.3556224449266665
 30
0.0
 11
419.8170984498696043
 21
550.355622444927576
 31
0.0
  0
LINE
  5
85
  8
0
  6
CONTINUOUS
 62
     7
 10
22.8170984498695901
 20
903.3556224449258707
 30
0.0
 11
32.2538607398897028
 21
903.3556224449481533
 31
0.0
  0
LINE
  5
86
  8
0
  6
CONTINUOUS
 62
     7
 10
1162.8728662902519773
 20
931.3887829107251264
 30
0.0
 11
1162.8728662902519773
 21
947.3887829107253538
 31
0.0
  0
CIRCLE
  5
87
  8
0
  6
CONTINUOUS
 62
     7
 10
1192.8728662902519773
 20
955.3887829110263965
 30
0.0
 40
1.9999999999156439
  0
LINE
  5
88
  8
0
  6
CONTINUOUS
 62
     7
 10
1339.3728662902499309
 20
824.3887829110260554
 30
0.0
 11
1270.5741951067789159
 21
824.3887829110261691
 31
0.0
  0
CIRCLE
  5
89
  8
0
  6
CONTINUOUS
 62
     7
 10
1042.8728662902519773
 20
955.3887829110263965
 30
0.0
 40
1.9999999999154161
  0
CIRCLE
  5
8A
  8
0
  6
CONTINUOUS
 62
     7
 10
1326.3728662902519773
 20
804.4109649764247933
 30
0.0
 40
1.999999999982492
  0
CIRCLE
  5
8B
  8
0
  6
CONTINUOUS
 62
     7
 10
1326.3728662902519773
 20
555.3887829107236485
 30
0.0
 40
1.9999999999834011
  0
CIRCLE
  5
8C
  8
0
  6
CONTINUOUS
 62
     7
 10
906.3728662902543647
 20
869.3887829107171683
 30
0.0
 40
1.999999999987949
  0
CIRCLE
  5
8D
  8
0
  6
CONTINUOUS
 62
     7
 10
906.3728662902543647
 20
712.3887829107246716
 30
0.0
 40
1.9999999999868121
  0
CIRCLE
  5
8E
  8
0
  6
CONTINUOUS
 62
     7
 10
906.3728662902543647
 20
555.3887829107236485
 30
0.0
 40
1.9999999999881759
  0
LINE
  5
8F
  8
0
  6
CONTINUOUS
 62
     7
 10
1339.3728662902499309
 20
824.3887829110260554
 30
0.0
 11
1339.3728662902499309
 21
535.3887829107236485
 31
0.0
  0
LINE
  5
90
  8
0
  6
CONTINUOUS
 62
     7
 10
896.3728662902501583
 20
535.3887829107236485
 30
0.0
 11
1339.3728662902499309
 21
535.3887829107236485
 31
0.0
  0
LINE
  5
91
  8
0
  6
CONTINUOUS
 62
     7
 10
896.3728662902501583
 20
535.3887829107236485
 30
0.0
 11
896.3728662902501583
 21
889.3887829107310381
 31
0.0
  0
LINE
  5
92
  8
0
  6
CONTINUOUS
 62
     7
 10
912.9142355495547463
 20
889.3887829107310381
 30
0.0
 11
896.3728662902501583
 21
889.3887829107310381
 31
0.0
  0
ARC
  5
93
  8
0
  6
CONTINUOUS
 62
     7
 10
912.91423554955486
 20
900.3887829107309244
 30
0.0
 40
11.0000000000000604
 50
270.0000000000002274
 51
308.1572265873693937
  0
LINE
  5
94
  8
0
  6
CONTINUOUS
 62
     7
 10
983.1689033615011795
 20
941.5996339085158979
 30
0.0
 11
919.7102726208057675
 21
891.7392811836841702
 31
0.0
  0
ARC
  5
95
  8
0
  6
CONTINUOUS
 62
     7
 10
976.3728662902503856
 20
950.2491356355626522
 30
0.0
 40
11.0
 50
308.15722658736928
 51
0.0
  0
LINE
  5
96
  8
0
  6
CONTINUOUS
 62
     7
 10
987.3728662902503856
 20
965.3887829110263965
 30
0.0
 11
987.3728662902503856
 21
950.2491356355626522
 31
0.0
  0
LINE
  5
97
  8
0
  6
CONTINUOUS
 62
     7
 10
987.3728662902503856
 20
965.3887829110263965
 30
0.0
 11
1250.3728662911189531
 21
965.3887829110263965
 31
0.0
  0
LINE
  5
98
  8
0
  6
CONTINUOUS
 62
     7
 10
1250.3728662911189531
 20
945.3471883322340545
 30
0.0
 11
1250.3728662911189531
 21
965.3887829110263965
 31
0.0
  0
LINE
  5
99
  8
0
  6
CONTINUOUS
 62
     7
 10
1259.6121917660859708
 20
834.4752826326351851
 30
0.0
 11
1250.3728662911189531
 21
945.3471883322340545
 31
0.0
  0
ARC
  5
9A
  8
0
  6
CONTINUOUS
 62
     7
 10
1270.5741951067789159
 20
835.3887829110262828
 30
0.0
 40
11.0
 50
184.7636416907268142
 51
270.0000000000007958
  0
LINE
  5
9B
  8
0
  6
CONTINUOUS
 62
     7
 10
1162.8728662902519773
 20
947.3887829107253538
 30
0.0
 11
1072.8728662902519773
 21
947.3887829107253538
 31
0.0
  0
LINE
  5
9C
  8
0
  6
CONTINUOUS
 62
     7
 10
1072.8728662902519773
 20
947.3887829107253538
 30
0.0
 11
1072.8728662902519773
 21
931.3887829107253538
 31
0.0
  0
ARC
  5
9D
  8
0
  6
CONTINUOUS
 62
     7
 10
1078.8728662902519773
 20
931.3887829107253538
 30
0.0
 40
6.0
 50
180.0
 51
270.000000000002899
  0
LINE
  5
9E
  8
0
  6
CONTINUOUS
 62
     7
 10
1078.8728662902519773
 20
925.3887829107252401
 30
0.0
 11
1156.8728662902519773
 21
925.3887829107252401
 31
0.0
  0
ARC
  5
9F
  8
0
  6
CONTINUOUS
 62
     7
 10
1156.8728662902519773
 20
931.3887829107253538
 30
0.0
 40
6.0
 50
270.0000000000007958
 51
359.9999999999997158
  0
CIRCLE
  5
A0
  8
0
  6
CONTINUOUS
 62
     7
 10
445.9847830248892251
 20
558.3790921055227727
 30
0.0
 40
2.0
  0
CIRCLE
  5
A1
  8
0
  6
CONTINUOUS
 62
     7
 10
445.9847830248892251
 20
872.3790921055161789
 30
0.0
 40
1.9999999999997149
  0
CIRCLE
  5
A2
  8
0
  6
CONTINUOUS
 62
     7
 10
865.984783024887065
 20
558.3790921055227727
 30
0.0
 40
2.0
  0
CIRCLE
  5
A3
  8
0
  6
CONTINUOUS
 62
     7
 10
582.4847830248869514
 20
958.3790921055242507
 30
0.0
 40
2.0
  0
LINE
  5
A4
  8
0
  6
CONTINUOUS
 62
     7
 10
452.5261522841917099
 20
892.3790921055250465
 30
0.0
 11
435.9847830248870082
 21
892.3790921055250465
 31
0.0
  0
ARC
  5
A5
  8
0
  6
CONTINUOUS
 62
     7
 10
452.5261522841918236
 20
903.3790921055250465
 30
0.0
 40
11.0000000000000302
 50
270.0000000000005116
 51
308.1572265873692231
  0
LINE
  5
A6
  8
0
  6
CONTINUOUS
 62
     7
 10
522.7808200961380862
 20
944.5899431033101337
 30
0.0
 11
459.3221893554426174
 21
894.7295903784781785
 31
0.0
  0
ARC
  5
A7
  8
0
  6
CONTINUOUS
 62
     7
 10
515.9847830248872924
 20
953.2394448303567742
 30
0.0
 40
11.0
 50
308.15722658736928
 51
0.0
  0
LINE
  5
A8
  8
0
  6
CONTINUOUS
 62
     7
 10
526.9847830248871787
 20
968.3790921055245917
 30
0.0
 11
526.9847830248871787
 21
953.2394448303567742
 31
0.0
  0
LINE
  5
A9
  8
0
  6
CONTINUOUS
 62
     7
 10
799.9847830248872924
 20
968.3790921055289118
 30
0.0
 11
526.9847830248871787
 21
968.3790921055245917
 31
0.0
  0
LINE
  5
AA
  8
0
  6
CONTINUOUS
 62
     7
 10
799.9847830248836544
 20
878.3790921055189074
 30
0.0
 11
799.9847830248872924
 21
968.3790921055289118
 31
0.0
  0
ARC
  5
AB
  8
0
  6
CONTINUOUS
 62
     7
 10
805.9847830248837681
 20
878.37909210551868
 30
0.0
 40
6.0
 50
179.9999999999988916
 51
269.9999999999997158
  0
LINE
  5
AC
  8
0
  6
CONTINUOUS
 62
     7
 10
819.9292702702435918
 20
872.3790921055184526
 30
0.0
 11
805.9847830248836544
 21
872.3790921055187937
 31
0.0
  0
ARC
  5
AD
  8
0
  6
CONTINUOUS
 62
     7
 10
819.9292702702440465
 20
893.3790921055185663
 30
0.0
 40
21.0000000000000995
 50
269.9999999999998863
 51
303.690067525979714
  0
LINE
  5
AE
  8
0
  6
CONTINUOUS
 62
     7
 10
851.5009920512444523
 20
889.1880476979370087
 30
0.0
 11
831.5779743909736226
 21
875.9060359244234633
 31
0.0
  0
ARC
  5
AF
  8
0
  6
CONTINUOUS
 62
     7
 10
862.0402957795234897
 20
873.3790921055178842
 30
0.0
 40
18.9999999999999005
 50
89.9999999999986358
 51
123.6900675259788045
  0
LINE
  5
B0
  8
0
  6
CONTINUOUS
 62
     7
 10
878.9847830248869514
 20
892.3790921055250465
 30
0.0
 11
862.0402957795239445
 21
892.3790921055176568
 31
0.0
  0
LINE
  5
B1
  8
0
  6
CONTINUOUS
 62
     7
 10
878.9847830248869514
 20
538.379092105522659
 30
0.0
 11
878.9847830248869514
 21
892.3790921055250465
 31
0.0
  0
LINE
  5
B2
  8
0
  6
CONTINUOUS
 62
     7
 10
435.9847830248870082
 20
538.379092105522659
 30
0.0
 11
878.9847830248869514
 21
538.379092105522659
 31
0.0
  0
LINE
  5
B3
  8
0
  6
CONTINUOUS
 62
     7
 10
435.9847830248870082
 20
892.3790921055250465
 30
0.0
 11
435.9847830248870082
 21
538.379092105522659
 31
0.0
  0
CIRCLE
  5
B4
  8
0
  6
CONTINUOUS
 62
     7
 10
732.4847830248869514
 20
958.3790921055242507
 30
0.0
 40
2.0
  0
CIRCLE
  5
B5
  8
0
  6
CONTINUOUS
 62
     7
 10
865.984783024887065
 20
872.3790921055161789
 30
0.0
 40
2.0
  0
CIRCLE
  5
B6
  8
0
  6
CONTINUOUS
 62
     7
 10
865.984783024887065
 20
715.3790921055239096
 30
0.0
 40
2.0
  0
LINE
  5
B7
  8
0
  6
CONTINUOUS
 62
     7
 10
612.4847830248869514
 20
950.3790921055242507
 30
0.0
 11
612.4847830248869514
 21
934.3790921055242507
 31
0.0
  0
ARC
  5
B8
  8
0
  6
CONTINUOUS
 62
     7
 10
618.4847830248869514
 20
934.3790921055242507
 30
0.0
 40
6.0
 50
180.0
 51
270.0000000000007958
  0
LINE
  5
B9
  8
0
  6
CONTINUOUS
 62
     7
 10
618.4847830248869514
 20
928.3790921055242507
 30
0.0
 11
696.484783024887065
 21
928.3790921055242507
 31
0.0
  0
ARC
  5
BA
  8
0
  6
CONTINUOUS
 62
     7
 10
696.484783024887065
 20
934.3790921055242507
 30
0.0
 40
6.0
 50
270.0000000000007958
 51
359.9999999999997158
  0
LINE
  5
BB
  8
0
  6
CONTINUOUS
 62
     7
 10
702.4847830248869514
 20
934.379092105524137
 30
0.0
 11
702.484783024887065
 21
950.3790921055242507
 31
0.0
  0
LINE
  5
BC
  8
0
  6
CONTINUOUS
 62
     7
 10
702.484783024887065
 20
950.3790921055242507
 30
0.0
 11
612.4847830248869514
 21
950.3790921055242507
 31
0.0
  0
CIRCLE
  5
BD
  8
0
  6
CONTINUOUS
 62
     7
 10
445.9847830248892251
 20
715.3790921055239096
 30
0.0
 40
1.9999999999985221
  0
CIRCLE
  5
BE
  8
0
  6
CONTINUOUS
 62
     7
 10
875.867491713760046
 20
302.5570285935505126
 30
0.0
 40
2.0
  0
CIRCLE
  5
BF
  8
0
  6
CONTINUOUS
 62
     7
 10
875.867491713760046
 20
379.557028593550001
 30
0.0
 40
2.0
  0
CIRCLE
  5
C0
  8
0
  6
CONTINUOUS
 62
     7
 10
875.867491713760046
 20
453.5570285935771153
 30
0.0
 40
2.0000000000020459
  0
CIRCLE
  5
C1
  8
0
  6
CONTINUOUS
 62
     7
 10
455.8674917137599891
 20
379.5570285935501147
 30
0.0
 40
2.0000000000020459
  0
CIRCLE
  5
C2
  8
0
  6
CONTINUOUS
 62
     7
 10
455.8674917137599891
 20
302.5570285935505126
 30
0.0
 40
2.0000000000020459
  0
CIRCLE
  5
C3
  8
0
  6
CONTINUOUS
 62
     7
 10
455.8674917137599891
 20
170.5570285935534116
 30
0.0
 40
2.0000000000020459
  0
CIRCLE
  5
C4
  8
0
  6
CONTINUOUS
 62
     7
 10
875.867491713760046
 20
219.0676871804010943
 30
0.0
 40
2.0
  0
CIRCLE
  5
C5
  8
0
  6
CONTINUOUS
 62
     7
 10
875.867491713760046
 20
170.5570285935534116
 30
0.0
 40
2.0
  0
CIRCLE
  5
C6
  8
0
  6
CONTINUOUS
 62
     7
 10
875.867491713760046
 20
501.5570285935771722
 30
0.0
 40
2.0000000000020459
  0
CIRCLE
  5
C7
  8
0
  6
CONTINUOUS
 62
     7
 10
455.8674917137599891
 20
501.5570285935779111
 30
0.0
 40
2.0000000000020459
  0
LINE
  5
C8
  8
0
  6
CONTINUOUS
 62
     7
 10
885.867491713760046
 20
160.5570285935532979
 30
0.0
 11
445.8674917137598754
 21
160.5570285935534116
 31
0.0
  0
LINE
  5
C9
  8
0
  6
CONTINUOUS
 62
     7
 10
445.8674917137598754
 20
160.5570285935534116
 30
0.0
 11
445.8674917137599891
 21
318.5570285935505126
 31
0.0
  0
LINE
  5
CA
  8
0
  6
CONTINUOUS
 62
     7
 10
445.8674917137599891
 20
318.5570285935505126
 30
0.0
 11
474.867491713757488
 21
318.5570285935505126
 31
0.0
  0
ARC
  5
CB
  8
0
  6
CONTINUOUS
 62
     7
 10
474.867491713757488
 20
321.5570285935505126
 30
0.0
 40
3.0
 50
270.0000000000007958
 51
0.0
  0
LINE
  5
CC
  8
0
  6
CONTINUOUS
 62
     7
 10
477.867491713757488
 20
321.5570285935505126
 30
0.0
 11
477.867491713757488
 21
360.5570285935501147
 31
0.0
  0
ARC
  5
CD
  8
0
  6
CONTINUOUS
 62
     7
 10
474.867491713757488
 20
360.5570285935501147
 30
0.0
 40
3.0
 50
0.0
 51
90.0
  0
LINE
  5
CE
  8
0
  6
CONTINUOUS
 62
     7
 10
474.867491713757488
 20
363.5570285935501147
 30
0.0
 11
445.8674917137599891
 21
363.5570285935501147
 31
0.0
  0
LINE
  5
CF
  8
0
  6
CONTINUOUS
 62
     7
 10
445.8674917137599891
 20
363.5570285935501147
 30
0.0
 11
445.8674917137599891
 21
514.5570285935465336
 31
0.0
  0
LINE
  5
D0
  8
0
  6
CONTINUOUS
 62
     7
 10
445.8674917137599891
 20
514.5570285935465336
 30
0.0
 11
885.867491713760046
 21
514.5570285935493757
 31
0.0
  0
LINE
  5
D1
  8
0
  6
CONTINUOUS
 62
     7
 10
885.867491713760046
 20
514.5570285935493757
 30
0.0
 11
885.867491713760046
 21
487.5570285935771153
 31
0.0
  0
LINE
  5
D2
  8
0
  6
CONTINUOUS
 62
     7
 10
885.867491713760046
 20
487.5570285935771153
 30
0.0
 11
864.8674917137556122
 21
487.5570285935771153
 31
0.0
  0
LINE
  5
D3
  8
0
  6
CONTINUOUS
 62
     7
 10
864.8674917137556122
 20
487.5570285935771153
 30
0.0
 11
864.8674917137556122
 21
467.5570285935771153
 31
0.0
  0
LINE
  5
D4
  8
0
  6
CONTINUOUS
 62
     7
 10
864.8674917137556122
 20
467.5570285935771153
 30
0.0
 11
885.867491713760046
 21
467.5570285935771153
 31
0.0
  0
LINE
  5
D5
  8
0
  6
CONTINUOUS
 62
     7
 10
885.867491713760046
 20
467.5570285935771153
 30
0.0
 11
885.867491713760046
 21
363.557028593550001
 31
0.0
  0
LINE
  5
D6
  8
0
  6
CONTINUOUS
 62
     7
 10
885.867491713760046
 20
363.557028593550001
 30
0.0
 11
856.8674917137625471
 21
363.557028593550001
 31
0.0
  0
ARC
  5
D7
  8
0
  6
CONTINUOUS
 62
     7
 10
856.8674917137625471
 20
360.557028593550001
 30
0.0
 40
3.0000000000001128
 50
90.0
 51
180.0
  0
LINE
  5
D8
  8
0
  6
CONTINUOUS
 62
     7
 10
853.8674917137624334
 20
360.557028593550001
 30
0.0
 11
853.8674917137624334
 21
321.5570285935505126
 31
0.0
  0
ARC
  5
D9
  8
0
  6
CONTINUOUS
 62
     7
 10
856.8674917137625471
 20
321.5570285935503989
 30
0.0
 40
3.0000000000001128
 50
179.9999999999988916
 51
270.0000000000007958
  0
LINE
  5
DA
  8
0
  6
CONTINUOUS
 62
     7
 10
856.8674917137625471
 20
318.5570285935503989
 30
0.0
 11
885.867491713760046
 21
318.5570285935503989
 31
0.0
  0
LINE
  5
DB
  8
0
  6
CONTINUOUS
 62
     7
 10
885.8674917137607281
 20
197.5570285935534969
 30
0.0
 11
864.8674917137499278
 21
197.5570285935534969
 31
0.0
  0
LINE
  5
DC
  8
0
  6
CONTINUOUS
 62
     7
 10
864.8674917137499278
 20
197.5570285935534969
 30
0.0
 11
864.8674917137499278
 21
179.5570285935534969
 31
0.0
  0
LINE
  5
DD
  8
0
  6
CONTINUOUS
 62
     7
 10
864.8674917137499278
 20
179.5570285935534969
 30
0.0
 11
885.8674917137607281
 21
179.5570285935534969
 31
0.0
  0
LINE
  5
DE
  8
0
  6
CONTINUOUS
 62
     7
 10
885.8674917137607281
 20
179.5570285935534969
 30
0.0
 11
885.867491713760046
 21
160.5570285935532979
 31
0.0
  0
LINE
  5
DF
  8
0
  6
CONTINUOUS
 62
     7
 10
885.867491713760046
 20
318.5570285935503989
 30
0.0
 11
885.8674917137607281
 21
197.5570285935534969
 31
0.0
  0
LINE
  5
E0
  8
0
  6
CONTINUOUS
 62
     7
 10
983.0067486510619119
 20
424.0188360574134094
 30
0.0
 11
983.3134905430943036
 21
426.3991531395839161
 31
0.0
  0
LINE
  5
E1
  8
0
  6
CONTINUOUS
 62
     7
 10
981.767000170764959
 20
424.1785974595135826
 30
0.0
 11
983.0067486510619119
 21
424.0188360574134094
 31
0.0
  0
LINE
  5
E2
  8
0
  6
CONTINUOUS
 62
     7
 10
981.2557636840444957
 20
420.2114023225627761
 30
0.0
 11
981.767000170764959
 21
424.1785974595135826
 31
0.0
  0
LINE
  5
E3
  8
0
  6
CONTINUOUS
 62
     7
 10
978.2803673313314903
 20
420.5948296876031236
 30
0.0
 11
981.2557636840444957
 21
420.2114023225627761
 31
0.0
  0
LINE
  5
E4
  8
0
  6
CONTINUOUS
 62
     7
 10
978.7916038180519536
 20
424.5620248245539869
 30
0.0
 11
978.2803673313314903
 21
420.5948296876031236
 31
0.0
  0
LINE
  5
E5
  8
0
  6
CONTINUOUS
 62
     7
 10
977.5518553377548869
 20
424.7217862266539896
 30
0.0
 11
978.7916038180519536
 21
424.5620248245539869
 31
0.0
  0
LINE
  5
E6
  8
0
  6
CONTINUOUS
 62
     7
 10
977.8585972297870512
 20
427.1021033088244963
 30
0.0
 11
977.5518553377548869
 21
424.7217862266539896
 31
0.0
  0
LINE
  5
E7
  8
0
  6
CONTINUOUS
 62
     7
 10
979.0983457100843452
 20
426.9423419067243799
 30
0.0
 11
977.8585972297870512
 21
427.1021033088244963
 31
0.0
  0
LINE
  5
E8
  8
0
  6
CONTINUOUS
 62
     7
 10
980.069695034852657
 20
434.4800126669293832
 30
0.0
 11
979.0983457100843452
 21
426.9423419067243799
 31
0.0
  0
LINE
  5
E9
  8
0
  6
CONTINUOUS
 62
     7
 10
980.069695034852657
 20
434.4800126669293832
 30
0.0
 11
973.6230029373073194
 21
435.3107719578501928
 31
0.0
  0
LINE
  5
EA
  8
0
  6
CONTINUOUS
 62
     7
 10
973.6230029373073194
 20
435.3107719578501928
 30
0.0
 11
974.0064303023475532
 21
438.2861683105630846
 31
0.0
  0
LINE
  5
EB
  8
0
  6
CONTINUOUS
 62
     7
 10
974.0064303023475532
 20
438.2861683105630846
 30
0.0
 11
966.0720400284460538
 21
439.3086412840041248
 31
0.0
  0
LINE
  5
EC
  8
0
  6
CONTINUOUS
 62
     7
 10
966.0720400284460538
 20
439.3086412840041248
 30
0.0
 11
965.6886126634057064
 21
436.3332449312911194
 31
0.0
  0
LINE
  5
ED
  8
0
  6
CONTINUOUS
 62
     7
 10
965.6886126634057064
 20
436.3332449312911194
 30
0.0
 11
906.1806856091443478
 21
444.0017922320978982
 31
0.0
  0
LINE
  5
EE
  8
0
  6
CONTINUOUS
 62
     7
 10
906.1806856091443478
 20
444.0017922320978982
 30
0.0
 11
906.1806856091443478
 21
436.0017922320980119
 31
0.0
  0
LINE
  5
EF
  8
0
  6
CONTINUOUS
 62
     7
 10
906.1806856091443478
 20
436.0017922320980119
 30
0.0
 11
903.1806856091443478
 21
436.0017922320978982
 31
0.0
  0
LINE
  5
F0
  8
0
  6
CONTINUOUS
 62
     7
 10
903.1806856091443478
 20
436.0017922320978982
 30
0.0
 11
903.1806856091443478
 21
428.0017922320980119
 31
0.0
  0
LINE
  5
F1
  8
0
  6
CONTINUOUS
 62
     7
 10
906.1806856091443478
 20
428.0017922320980119
 30
0.0
 11
903.1806856091443478
 21
428.0017922320980119
 31
0.0
  0
LINE
  5
F2
  8
0
  6
CONTINUOUS
 62
     7
 10
906.1806856091443478
 20
428.0017922320980119
 30
0.0
 11
906.1806856091443478
 21
421.5017922320980119
 31
0.0
  0
LINE
  5
F3
  8
0
  6
CONTINUOUS
 62
     7
 10
913.7806856091443706
 20
421.5017922320980119
 30
0.0
 11
906.1806856091443478
 21
421.5017922320980119
 31
0.0
  0
LINE
  5
F4
  8
0
  6
CONTINUOUS
 62
     7
 10
913.7806856091443706
 20
422.7517922320980119
 30
0.0
 11
913.7806856091443706
 21
421.5017922320980119
 31
0.0
  0
LINE
  5
F5
  8
0
  6
CONTINUOUS
 62
     7
 10
916.1806856091443478
 20
422.7517922320980119
 30
0.0
 11
913.7806856091443706
 21
422.7517922320980119
 31
0.0
  0
LINE
  5
F6
  8
0
  6
CONTINUOUS
 62
     7
 10
916.1806856091443478
 20
421.5017922320980119
 30
0.0
 11
916.1806856091443478
 21
422.7517922320980119
 31
0.0
  0
LINE
  5
F7
  8
0
  6
CONTINUOUS
 62
     7
 10
920.1806856091443478
 20
421.5017922320980119
 30
0.0
 11
916.1806856091443478
 21
421.5017922320980119
 31
0.0
  0
LINE
  5
F8
  8
0
  6
CONTINUOUS
 62
     7
 10
920.1806856091443478
 20
418.5017922320978982
 30
0.0
 11
920.1806856091443478
 21
421.5017922320980119
 31
0.0
  0
LINE
  5
F9
  8
0
  6
CONTINUOUS
 62
     7
 10
916.1806856091443478
 20
418.5017922320978982
 30
0.0
 11
920.1806856091443478
 21
418.5017922320978982
 31
0.0
  0
LINE
  5
FA
  8
0
  6
CONTINUOUS
 62
     7
 10
916.1806856091443478
 20
417.2517922320980119
 30
0.0
 11
916.1806856091443478
 21
418.5017922320978982
 31
0.0
  0
LINE
  5
FB
  8
0
  6
CONTINUOUS
 62
     7
 10
913.7806856091443706
 20
417.2517922320980119
 30
0.0
 11
916.1806856091443478
 21
417.2517922320980119
 31
0.0
  0
LINE
  5
FC
  8
0
  6
CONTINUOUS
 62
     7
 10
913.7806856091443706
 20
418.5017922320980119
 30
0.0
 11
913.7806856091443706
 21
417.2517922320980119
 31
0.0
  0
LINE
  5
FD
  8
0
  6
CONTINUOUS
 62
     7
 10
906.1806856091443478
 20
418.5017922320980119
 30
0.0
 11
913.7806856091443706
 21
418.5017922320980119
 31
0.0
  0
LINE
  5
FE
  8
0
  6
CONTINUOUS
 62
     7
 10
906.1806856091443478
 20
418.5017922320980119
 30
0.0
 11
906.1806856091443478
 21
412.0017922320980119
 31
0.0
  0
LINE
  5
FF
  8
0
  6
CONTINUOUS
 62
     7
 10
906.1806856091443478
 20
412.0017922320980119
 30
0.0
 11
903.1806856091443478
 21
412.0017922320980119
 31
0.0
  0
LINE
  5
100
  8
0
  6
CONTINUOUS
 62
     7
 10
903.1806856091443478
 20
412.0017922320980119
 30
0.0
 11
903.1806856091443478
 21
404.0017922320978982
 31
0.0
  0
LINE
  5
101
  8
0
  6
CONTINUOUS
 62
     7
 10
906.1806856091443478
 20
404.0017922320978982
 30
0.0
 11
903.1806856091443478
 21
404.0017922320978982
 31
0.0
  0
LINE
  5
102
  8
0
  6
CONTINUOUS
 62
     7
 10
906.1806856091443478
 20
404.0017922320978982
 30
0.0
 11
906.1806856091443478
 21
384.0017922320980119
 31
0.0
  0
LINE
  5
103
  8
0
  6
CONTINUOUS
 62
     7
 10
906.1806856091443478
 20
384.0017922320980119
 30
0.0
 11
903.1806856091443478
 21
384.0017922320980119
 31
0.0
  0
LINE
  5
104
  8
0
  6
CONTINUOUS
 62
     7
 10
903.1806856091443478
 20
376.0017922320978982
 30
0.0
 11
903.1806856091443478
 21
384.0017922320980119
 31
0.0
  0
LINE
  5
105
  8
0
  6
CONTINUOUS
 62
     7
 10
906.1806856091443478
 20
376.0017922320978982
 30
0.0
 11
903.1806856091443478
 21
376.0017922320978982
 31
0.0
  0
LINE
  5
106
  8
0
  6
CONTINUOUS
 62
     7
 10
906.1806856091443478
 20
376.0017922320978982
 30
0.0
 11
906.1806856091443478
 21
369.5017922320981256
 31
0.0
  0
LINE
  5
107
  8
0
  6
CONTINUOUS
 62
     7
 10
913.7806856091443706
 20
369.5017922320980119
 30
0.0
 11
906.1806856091443478
 21
369.5017922320981256
 31
0.0
  0
LINE
  5
108
  8
0
  6
CONTINUOUS
 62
     7
 10
913.7806856091443706
 20
370.7517922320980119
 30
0.0
 11
913.7806856091443706
 21
369.5017922320980119
 31
0.0
  0
LINE
  5
109
  8
0
  6
CONTINUOUS
 62
     7
 10
916.1806856091443478
 20
370.7517922320980119
 30
0.0
 11
913.7806856091443706
 21
370.7517922320980119
 31
0.0
  0
LINE
  5
10A
  8
0
  6
CONTINUOUS
 62
     7
 10
916.1806856091443478
 20
369.5017922320980119
 30
0.0
 11
916.1806856091443478
 21
370.7517922320980119
 31
0.0
  0
LINE
  5
10B
  8
0
  6
CONTINUOUS
 62
     7
 10
920.1806856091443478
 20
369.5017922320980119
 30
0.0
 11
916.1806856091443478
 21
369.5017922320980119
 31
0.0
  0
LINE
  5
10C
  8
0
  6
CONTINUOUS
 62
     7
 10
920.1806856091443478
 20
366.5017922320980119
 30
0.0
 11
920.1806856091443478
 21
369.5017922320980119
 31
0.0
  0
LINE
  5
10D
  8
0
  6
CONTINUOUS
 62
     7
 10
916.1806856091443478
 20
366.5017922320980119
 30
0.0
 11
920.1806856091443478
 21
366.5017922320980119
 31
0.0
  0
LINE
  5
10E
  8
0
  6
CONTINUOUS
 62
     7
 10
916.1806856091443478
 20
365.2517922320980119
 30
0.0
 11
916.1806856091443478
 21
366.5017922320980119
 31
0.0
  0
LINE
  5
10F
  8
0
  6
CONTINUOUS
 62
     7
 10
913.7806856091443706
 20
365.2517922320980119
 30
0.0
 11
916.1806856091443478
 21
365.2517922320980119
 31
0.0
  0
LINE
  5
110
  8
0
  6
CONTINUOUS
 62
     7
 10
913.7806856091443706
 20
366.5017922320980119
 30
0.0
 11
913.7806856091443706
 21
365.2517922320980119
 31
0.0
  0
LINE
  5
111
  8
0
  6
CONTINUOUS
 62
     7
 10
906.1806856091443478
 20
366.5017922320981256
 30
0.0
 11
913.7806856091443706
 21
366.5017922320980119
 31
0.0
  0
LINE
  5
112
  8
0
  6
CONTINUOUS
 62
     7
 10
906.1806856091443478
 20
366.5017922320981256
 30
0.0
 11
906.1806856091443478
 21
360.0017922320980119
 31
0.0
  0
LINE
  5
113
  8
0
  6
CONTINUOUS
 62
     7
 10
906.1806856091443478
 20
360.0017922320980119
 30
0.0
 11
903.1806856091443478
 21
360.0017922320980119
 31
0.0
  0
LINE
  5
114
  8
0
  6
CONTINUOUS
 62
     7
 10
903.1806856091443478
 20
352.0017922320980119
 30
0.0
 11
903.1806856091443478
 21
360.0017922320980119
 31
0.0
  0
LINE
  5
115
  8
0
  6
CONTINUOUS
 62
     7
 10
906.1806856091443478
 20
352.0017922320980119
 30
0.0
 11
903.1806856091443478
 21
352.0017922320980119
 31
0.0
  0
LINE
  5
116
  8
0
  6
CONTINUOUS
 62
     7
 10
906.1806856091443478
 20
352.0017922320980119
 30
0.0
 11
906.1806856091443478
 21
344.0017922320980119
 31
0.0
  0
LINE
  5
117
  8
0
  6
CONTINUOUS
 62
     7
 10
906.1806856091443478
 20
344.0017922320980119
 30
0.0
 11
1294.1806856091438931
 21
344.0017922320980119
 31
0.0
  0
LINE
  5
118
  8
0
  6
CONTINUOUS
 62
     7
 10
1294.1806856091438931
 20
344.0017922320980119
 30
0.0
 11
1294.1806856091438931
 21
353.0017922320980119
 31
0.0
  0
LINE
  5
119
  8
0
  6
CONTINUOUS
 62
     7
 10
1294.1806856091438931
 20
353.0017922320980119
 30
0.0
 11
1297.1806856091438931
 21
353.0017922320980119
 31
0.0
  0
LINE
  5
11A
  8
0
  6
CONTINUOUS
 62
     7
 10
1297.1806856091438931
 20
353.0017922320980119
 30
0.0
 11
1297.1806856091438931
 21
361.0017922320980119
 31
0.0
  0
LINE
  5
11B
  8
0
  6
CONTINUOUS
 62
     7
 10
1294.1806856091438931
 20
361.0017922320980119
 30
0.0
 11
1297.1806856091438931
 21
361.0017922320980119
 31
0.0
  0
LINE
  5
11C
  8
0
  6
CONTINUOUS
 62
     7
 10
1294.1806856091438931
 20
367.5017922320980119
 30
0.0
 11
1294.1806856091438931
 21
361.0017922320980119
 31
0.0
  0
LINE
  5
11D
  8
0
  6
CONTINUOUS
 62
     7
 10
1286.580685609143984
 20
367.5017922320980119
 30
0.0
 11
1294.1806856091438931
 21
367.5017922320980119
 31
0.0
  0
LINE
  5
11E
  8
0
  6
CONTINUOUS
 62
     7
 10
1286.580685609143984
 20
366.2517922320980119
 30
0.0
 11
1286.580685609143984
 21
367.5017922320980119
 31
0.0
  0
LINE
  5
11F
  8
0
  6
CONTINUOUS
 62
     7
 10
1284.1806856091438931
 20
366.2517922320980119
 30
0.0
 11
1286.580685609143984
 21
366.2517922320980119
 31
0.0
  0
LINE
  5
120
  8
0
  6
CONTINUOUS
 62
     7
 10
1284.1806856091438931
 20
367.5017922320980119
 30
0.0
 11
1284.1806856091438931
 21
366.2517922320980119
 31
0.0
  0
LINE
  5
121
  8
0
  6
CONTINUOUS
 62
     7
 10
1281.1806856091438931
 20
367.5017922320980119
 30
0.0
 11
1284.1806856091438931
 21
367.5017922320980119
 31
0.0
  0
LINE
  5
122
  8
0
  6
CONTINUOUS
 62
     7
 10
1281.1806856091438931
 20
370.5017922320980119
 30
0.0
 11
1281.1806856091438931
 21
367.5017922320980119
 31
0.0
  0
LINE
  5
123
  8
0
  6
CONTINUOUS
 62
     7
 10
1284.1806856091438931
 20
370.5017922320980119
 30
0.0
 11
1281.1806856091438931
 21
370.5017922320980119
 31
0.0
  0
LINE
  5
124
  8
0
  6
CONTINUOUS
 62
     7
 10
1284.1806856091438931
 20
371.7517922320978982
 30
0.0
 11
1284.1806856091438931
 21
370.5017922320980119
 31
0.0
  0
LINE
  5
125
  8
0
  6
CONTINUOUS
 62
     7
 10
1286.580685609143984
 20
371.7517922320978982
 30
0.0
 11
1284.1806856091438931
 21
371.7517922320978982
 31
0.0
  0
LINE
  5
126
  8
0
  6
CONTINUOUS
 62
     7
 10
1286.580685609143984
 20
370.5017922320980119
 30
0.0
 11
1286.580685609143984
 21
371.7517922320978982
 31
0.0
  0
LINE
  5
127
  8
0
  6
CONTINUOUS
 62
     7
 10
1294.1806856091438931
 20
370.5017922320980119
 30
0.0
 11
1286.580685609143984
 21
370.5017922320980119
 31
0.0
  0
LINE
  5
128
  8
0
  6
CONTINUOUS
 62
     7
 10
1294.1806856091438931
 20
370.5017922320980119
 30
0.0
 11
1294.1806856091438931
 21
377.0017922320980119
 31
0.0
  0
LINE
  5
129
  8
0
  6
CONTINUOUS
 62
     7
 10
1294.1806856091438931
 20
377.0017922320980119
 30
0.0
 11
1297.1806856091438931
 21
377.0017922320980119
 31
0.0
  0
LINE
  5
12A
  8
0
  6
CONTINUOUS
 62
     7
 10
1297.1806856091438931
 20
385.0017922320980119
 30
0.0
 11
1297.1806856091438931
 21
377.0017922320980119
 31
0.0
  0
LINE
  5
12B
  8
0
  6
CONTINUOUS
 62
     7
 10
1294.1806856091438931
 20
385.0017922320980119
 30
0.0
 11
1297.1806856091438931
 21
385.0017922320980119
 31
0.0
  0
LINE
  5
12C
  8
0
  6
CONTINUOUS
 62
     7
 10
1294.1806856091438931
 20
385.0017922320980119
 30
0.0
 11
1294.1806856091438931
 21
394.0017922320980119
 31
0.0
  0
LINE
  5
12D
  8
0
  6
CONTINUOUS
 62
     7
 10
1294.1806856091438931
 20
394.0017922320980119
 30
0.0
 11
1234.672758554883103
 21
401.6703395329047908
 31
0.0
  0
LINE
  5
12E
  8
0
  6
CONTINUOUS
 62
     7
 10
1234.672758554883103
 20
401.6703395329047908
 30
0.0
 11
1235.0561859199231094
 21
404.6457358856177962
 31
0.0
  0
LINE
  5
12F
  8
0
  6
CONTINUOUS
 62
     7
 10
1235.0561859199231094
 20
404.6457358856177962
 30
0.0
 11
1227.1217956460220648
 21
405.6682088590587796
 31
0.0
  0
LINE
  5
130
  8
0
  6
CONTINUOUS
 62
     7
 10
1227.1217956460220648
 20
405.6682088590587796
 30
0.0
 11
1226.7383682809820584
 21
402.6928125063457742
 31
0.0
  0
LINE
  5
131
  8
0
  6
CONTINUOUS
 62
     7
 10
1226.7383682809820584
 20
402.6928125063457742
 30
0.0
 11
1220.2916761834360386
 21
403.5235717972665839
 31
0.0
  0
LINE
  5
132
  8
0
  6
CONTINUOUS
 62
     7
 10
1219.3203268586680679
 20
395.9859010370601027
 30
0.0
 11
1220.2916761834360386
 21
403.5235717972665839
 31
0.0
  0
LINE
  5
133
  8
0
  6
CONTINUOUS
 62
     7
 10
1220.5600753389639976
 20
395.8261396349598726
 30
0.0
 11
1219.3203268586680679
 21
395.9859010370601027
 31
0.0
  0
LINE
  5
134
  8
0
  6
CONTINUOUS
 62
     7
 10
1220.253333446931947
 20
393.4458225527894797
 30
0.0
 11
1220.5600753389639976
 21
395.8261396349598726
 31
0.0
  0
LINE
  5
135
  8
0
  6
CONTINUOUS
 62
     7
 10
1219.0135849666351078
 20
393.6055839548897097
 30
0.0
 11
1220.253333446931947
 21
393.4458225527894797
 31
0.0
  0
LINE
  5
136
  8
0
  6
CONTINUOUS
 62
     7
 10
1218.5023484799150992
 20
389.6383888179389032
 30
0.0
 11
1219.0135849666351078
 21
393.6055839548897097
 31
0.0
  0
LINE
  5
137
  8
0
  6
CONTINUOUS
 62
     7
 10
1215.5269521272020938
 20
390.0218161829791939
 30
0.0
 11
1218.5023484799150992
 21
389.6383888179389032
 31
0.0
  0
LINE
  5
138
  8
0
  6
CONTINUOUS
 62
     7
 10
1216.0381886139221024
 20
393.9890113199300004
 30
0.0
 11
1215.5269521272020938
 21
390.0218161829791939
 31
0.0
  0
LINE
  5
139
  8
0
  6
CONTINUOUS
 62
     7
 10
1214.7984401336250357
 20
394.1487727220301167
 30
0.0
 11
1216.0381886139221024
 21
393.9890113199300004
 31
0.0
  0
LINE
  5
13A
  8
0
  6
CONTINUOUS
 62
     7
 10
1215.1051820256570863
 20
396.5290898042006233
 30
0.0
 11
1214.7984401336250357
 21
394.1487727220301167
 31
0.0
  0
LINE
  5
13B
  8
0
  6
CONTINUOUS
 62
     7
 10
1216.3449305059539256
 20
396.369328402100507
 30
0.0
 11
1215.1051820256570863
 21
396.5290898042006233
 31
0.0
  0
LINE
  5
13C
  8
0
  6
CONTINUOUS
 62
     7
 10
1217.3162798307230332
 20
403.9069991623068177
 30
0.0
 11
1216.3449305059539256
 21
396.369328402100507
 31
0.0
  0
LINE
  5
13D
  8
0
  6
CONTINUOUS
 62
     7
 10
1217.3162798307230332
 20
403.9069991623068177
 30
0.0
 11
1210.8695877331779229
 21
404.7377584532275137
 31
0.0
  0
LINE
  5
13E
  8
0
  6
CONTINUOUS
 62
     7
 10
1210.8695877331779229
 20
404.7377584532275137
 30
0.0
 11
1211.2530150982190662
 21
407.7131548059406896
 31
0.0
  0
LINE
  5
13F
  8
0
  6
CONTINUOUS
 62
     7
 10
1211.2530150982190662
 20
407.7131548059406896
 30
0.0
 11
1203.3186248243171121
 21
408.7356277793816162
 31
0.0
  0
LINE
  5
140
  8
0
  6
CONTINUOUS
 62
     7
 10
1203.3186248243171121
 20
408.7356277793816162
 30
0.0
 11
1202.9351974592771057
 21
405.7602314266684971
 31
0.0
  0
LINE
  5
141
  8
0
  6
CONTINUOUS
 62
     7
 10
1202.9351974592771057
 20
405.7602314266684971
 30
0.0
 11
1116.0494661569480286
 21
416.9568462852159882
 31
0.0
  0
LINE
  5
142
  8
0
  6
CONTINUOUS
 62
     7
 10
1116.0494661569480286
 20
416.9568462852159882
 30
0.0
 11
1116.432893521988035
 21
419.9322426379291073
 31
0.0
  0
LINE
  5
143
  8
0
  6
CONTINUOUS
 62
     7
 10
1116.432893521988035
 20
419.9322426379291073
 30
0.0
 11
1108.4985032480860809
 21
420.9547156113700908
 31
0.0
  0
LINE
  5
144
  8
0
  6
CONTINUOUS
 62
     7
 10
1108.4985032480860809
 20
420.9547156113700908
 30
0.0
 11
1108.1150758830460745
 21
417.9793192586569717
 31
0.0
  0
LINE
  5
145
  8
0
  6
CONTINUOUS
 62
     7
 10
1108.1150758830460745
 20
417.9793192586569717
 30
0.0
 11
1101.6683837855009642
 21
418.8100785495777814
 31
0.0
  0
LINE
  5
146
  8
0
  6
CONTINUOUS
 62
     7
 10
1100.697034460732084
 20
411.2724077893714139
 30
0.0
 11
1101.6683837855009642
 21
418.8100785495777814
 31
0.0
  0
LINE
  5
147
  8
0
  6
CONTINUOUS
 62
     7
 10
1101.9367829410289232
 20
411.1126463872711838
 30
0.0
 11
1100.697034460732084
 21
411.2724077893714139
 31
0.0
  0
LINE
  5
148
  8
0
  6
CONTINUOUS
 62
     7
 10
1101.6300410489971
 20
408.7323293051006772
 30
0.0
 11
1101.9367829410289232
 21
411.1126463872711838
 31
0.0
  0
LINE
  5
149
  8
0
  6
CONTINUOUS
 62
     7
 10
1100.3902925687000334
 20
408.8920907072009072
 30
0.0
 11
1101.6300410489971
 21
408.7323293051006772
 31
0.0
  0
LINE
  5
14A
  8
0
  6
CONTINUOUS
 62
     7
 10
1099.879056081978888
 20
404.9248955702501007
 30
0.0
 11
1100.3902925687000334
 21
408.8920907072009072
 31
0.0
  0
LINE
  5
14B
  8
0
  6
CONTINUOUS
 62
     7
 10
1096.9036597292661099
 20
405.308322935290505
 30
0.0
 11
1099.879056081978888
 21
404.9248955702501007
 31
0.0
  0
LINE
  5
14C
  8
0
  6
CONTINUOUS
 62
     7
 10
1097.4148962159858911
 20
409.2755180722411978
 30
0.0
 11
1096.9036597292661099
 21
405.308322935290505
 31
0.0
  0
LINE
  5
14D
  8
0
  6
CONTINUOUS
 62
     7
 10
1096.1751477356890518
 20
409.4352794743413142
 30
0.0
 11
1097.4148962159858911
 21
409.2755180722411978
 31
0.0
  0
LINE
  5
14E
  8
0
  6
CONTINUOUS
 62
     7
 10
1096.4818896277220119
 20
411.8155965565118777
 30
0.0
 11
1096.1751477356890518
 21
409.4352794743413142
 31
0.0
  0
LINE
  5
14F
  8
0
  6
CONTINUOUS
 62
     7
 10
1097.7216381080190786
 20
411.6558351544115908
 30
0.0
 11
1096.4818896277220119
 21
411.8155965565118777
 31
0.0
  0
LINE
  5
150
  8
0
  6
CONTINUOUS
 62
     7
 10
1098.6929874327870493
 20
419.193505914618072
 30
0.0
 11
1097.7216381080190786
 21
411.6558351544115908
 31
0.0
  0
LINE
  5
151
  8
0
  6
CONTINUOUS
 62
     7
 10
1098.6929874327870493
 20
419.193505914618072
 30
0.0
 11
1092.2462953352430759
 21
420.0242652055388248
 31
0.0
  0
LINE
  5
152
  8
0
  6
CONTINUOUS
 62
     7
 10
1092.2462953352430759
 20
420.0242652055388248
 30
0.0
 11
1092.6297227002830823
 21
422.9996615582518871
 31
0.0
  0
LINE
  5
153
  8
0
  6
CONTINUOUS
 62
     7
 10
1092.6297227002830823
 20
422.9996615582518871
 30
0.0
 11
1084.6953324263820377
 21
424.0221345316928137
 31
0.0
  0
LINE
  5
154
  8
0
  6
CONTINUOUS
 62
     7
 10
1084.6953324263820377
 20
424.0221345316928137
 30
0.0
 11
1084.3119050613408945
 21
421.0467381789798083
 31
0.0
  0
LINE
  5
155
  8
0
  6
CONTINUOUS
 62
     7
 10
1084.3119050613408945
 20
421.0467381789798083
 30
0.0
 11
997.4261737590121584
 21
432.2433530375272994
 31
0.0
  0
LINE
  5
156
  8
0
  6
CONTINUOUS
 62
     7
 10
997.4261737590121584
 20
432.2433530375272994
 30
0.0
 11
997.8096011240525058
 21
435.2187493902404185
 31
0.0
  0
LINE
  5
157
  8
0
  6
CONTINUOUS
 62
     7
 10
997.8096011240525058
 20
435.2187493902404185
 30
0.0
 11
989.8752108501508928
 21
436.2412223636812882
 31
0.0
  0
LINE
  5
158
  8
0
  6
CONTINUOUS
 62
     7
 10
989.8752108501508928
 20
436.2412223636812882
 30
0.0
 11
989.4917834851105454
 21
433.265826010968226
 31
0.0
  0
LINE
  5
159
  8
0
  6
CONTINUOUS
 62
     7
 10
989.4917834851105454
 20
433.265826010968226
 30
0.0
 11
983.0450913875655488
 21
434.0965853018889788
 31
0.0
  0
LINE
  5
15A
  8
0
  6
CONTINUOUS
 62
     7
 10
982.0737420627973506
 20
426.5589145416839756
 30
0.0
 11
983.0450913875655488
 21
434.0965853018889788
 31
0.0
  0
LINE
  5
15B
  8
0
  6
CONTINUOUS
 62
     7
 10
983.3134905430943036
 20
426.3991531395839161
 30
0.0
 11
982.0737420627973506
 21
426.5589145416839756
 31
0.0
  0
CIRCLE
  5
15C
  8
0
  6
CONTINUOUS
 62
     7
 10
1135.003508720589025
 20
298.3864948815503908
 30
0.0
 40
2.0
  0
CIRCLE
  5
15D
  8
0
  6
CONTINUOUS
 62
     7
 10
1071.003508720589025
 20
298.3864948815503908
 30
0.0
 40
2.0
  0
CIRCLE
  5
15E
  8
0
  6
CONTINUOUS
 62
     7
 10
1297.503508720589025
 20
298.3864948815503908
 30
0.0
 40
1.5
  0
CIRCLE
  5
15F
  8
0
  6
CONTINUOUS
 62
     7
 10
908.5035087205894797
 20
298.3864948815503908
 30
0.0
 40
1.500000000000113
  0
LINE
  5
160
  8
0
  6
CONTINUOUS
 62
     7
 10
1296.003508720589025
 20
314.3864948815505045
 30
0.0
 11
1296.003508720589025
 21
306.3864948815503908
 31
0.0
  0
LINE
  5
161
  8
0
  6
CONTINUOUS
 62
     7
 10
1296.003508720589025
 20
306.3864948815503908
 30
0.0
 11
1299.003508720589025
 21
306.3864948815503908
 31
0.0
  0
LINE
  5
162
  8
0
  6
CONTINUOUS
 62
     7
 10
1299.003508720589025
 20
306.3864948815503908
 30
0.0
 11
1299.003508720589025
 21
314.3864948815505045
 31
0.0
  0
LINE
  5
163
  8
0
  6
CONTINUOUS
 62
     7
 10
1299.003508720589025
 20
314.3864948815505045
 30
0.0
 11
1296.003508720589025
 21
314.3864948815505045
 31
0.0
  0
LINE
  5
164
  8
0
  6
CONTINUOUS
 62
     7
 10
907.003508720589366
 20
314.3864948815505045
 30
0.0
 11
907.003508720589366
 21
306.3864948815503908
 31
0.0
  0
LINE
  5
165
  8
0
  6
CONTINUOUS
 62
     7
 10
907.003508720589366
 20
306.3864948815503908
 30
0.0
 11
910.0035087205894797
 21
306.3864948815503908
 31
0.0
  0
LINE
  5
166
  8
0
  6
CONTINUOUS
 62
     7
 10
910.0035087205894797
 20
306.3864948815503908
 30
0.0
 11
910.0035087205894797
 21
314.3864948815505045
 31
0.0
  0
LINE
  5
167
  8
0
  6
CONTINUOUS
 62
     7
 10
910.0035087205894797
 20
314.3864948815505045
 30
0.0
 11
907.003508720589366
 21
314.3864948815505045
 31
0.0
  0
LINE
  5
168
  8
0
  6
CONTINUOUS
 62
     7
 10
904.0035087205894797
 20
326.4113019771810968
 30
0.0
 11
1302.003508720589025
 21
326.4113019771810968
 31
0.0
  0
LINE
  5
169
  8
0
  6
CONTINUOUS
 62
     7
 10
1302.003508720589025
 20
273.3864948815503908
 30
0.0
 11
1302.003508720589025
 21
326.4113019771810968
 31
0.0
  0
LINE
  5
16A
  8
0
  6
CONTINUOUS
 62
     7
 10
904.0035087205894797
 20
273.3864948815503908
 30
0.0
 11
1302.003508720589025
 21
273.3864948815503908
 31
0.0
  0
LINE
  5
16B
  8
0
  6
CONTINUOUS
 62
     7
 10
904.0035087205894797
 20
326.4113019771810968
 30
0.0
 11
904.0035087205894797
 21
273.3864948815503908
 31
0.0
  0
LINE
  5
16C
  8
0
  6
CONTINUOUS
 62
     7
 10
907.003508720589366
 20
290.3864948815503908
 30
0.0
 11
907.003508720589366
 21
282.3864948815503908
 31
0.0
  0
LINE
  5
16D
  8
0
  6
CONTINUOUS
 62
     7
 10
907.003508720589366
 20
282.3864948815503908
 30
0.0
 11
910.0035087205894797
 21
282.3864948815503908
 31
0.0
  0
LINE
  5
16E
  8
0
  6
CONTINUOUS
 62
     7
 10
910.0035087205894797
 20
282.3864948815503908
 30
0.0
 11
910.0035087205894797
 21
290.3864948815503908
 31
0.0
  0
LINE
  5
16F
  8
0
  6
CONTINUOUS
 62
     7
 10
910.0035087205894797
 20
290.3864948815503908
 30
0.0
 11
907.003508720589366
 21
290.3864948815503908
 31
0.0
  0
LINE
  5
170
  8
0
  6
CONTINUOUS
 62
     7
 10
1296.003508720589025
 20
290.3864948815503908
 30
0.0
 11
1296.003508720589025
 21
282.3864948815503908
 31
0.0
  0
LINE
  5
171
  8
0
  6
CONTINUOUS
 62
     7
 10
1296.003508720589025
 20
282.3864948815503908
 30
0.0
 11
1299.003508720589025
 21
282.3864948815503908
 31
0.0
  0
LINE
  5
172
  8
0
  6
CONTINUOUS
 62
     7
 10
1299.003508720589025
 20
282.3864948815503908
 30
0.0
 11
1299.003508720589025
 21
290.3864948815503908
 31
0.0
  0
LINE
  5
173
  8
0
  6
CONTINUOUS
 62
     7
 10
1299.003508720589025
 20
290.3864948815503908
 30
0.0
 11
1296.003508720589025
 21
290.3864948815503908
 31
0.0
  0
CIRCLE
  5
174
  8
0
  6
CONTINUOUS
 62
     7
 10
1260.19862533178798
 20
170.5136400590874928
 30
0.0
 40
1.999999999999772
  0
CIRCLE
  5
175
  8
0
  6
CONTINUOUS
 62
     7
 10
938.6986253317907085
 20
170.5136400590866117
 30
0.0
 40
2.0
  0
CIRCLE
  5
176
  8
0
  6
CONTINUOUS
 62
     7
 10
911.94862533178798
 20
178.5874058843562864
 30
0.0
 40
1.500000000000113
  0
CIRCLE
  5
177
  8
0
  6
CONTINUOUS
 62
     7
 10
1300.94862533178798
 20
178.5874058843562864
 30
0.0
 40
1.5
  0
LINE
  5
178
  8
0
  6
CONTINUOUS
 62
     7
 10
1302.44862533178798
 20
246.5874058843562864
 30
0.0
 11
1299.44862533178798
 21
246.5874058843562864
 31
0.0
  0
LINE
  5
179
  8
0
  6
CONTINUOUS
 62
     7
 10
1299.44862533178798
 20
246.5874058843562864
 30
0.0
 11
1299.44862533178798
 21
238.5874058843562864
 31
0.0
  0
LINE
  5
17A
  8
0
  6
CONTINUOUS
 62
     7
 10
1299.44862533178798
 20
238.5874058843562864
 30
0.0
 11
1302.44862533178798
 21
238.5874058843562864
 31
0.0
  0
LINE
  5
17B
  8
0
  6
CONTINUOUS
 62
     7
 10
1302.44862533178798
 20
238.5874058843562864
 30
0.0
 11
1302.44862533178798
 21
246.5874058843562864
 31
0.0
  0
LINE
  5
17C
  8
0
  6
CONTINUOUS
 62
     7
 10
1302.44862533178798
 20
222.5874058843562864
 30
0.0
 11
1299.44862533178798
 21
222.5874058843562864
 31
0.0
  0
LINE
  5
17D
  8
0
  6
CONTINUOUS
 62
     7
 10
1299.44862533178798
 20
222.5874058843562864
 30
0.0
 11
1299.44862533178798
 21
214.5874058843562864
 31
0.0
  0
LINE
  5
17E
  8
0
  6
CONTINUOUS
 62
     7
 10
1299.44862533178798
 20
214.5874058843562864
 30
0.0
 11
1302.44862533178798
 21
214.5874058843562864
 31
0.0
  0
LINE
  5
17F
  8
0
  6
CONTINUOUS
 62
     7
 10
1302.44862533178798
 20
214.5874058843562864
 30
0.0
 11
1302.44862533178798
 21
222.5874058843562864
 31
0.0
  0
LINE
  5
180
  8
0
  6
CONTINUOUS
 62
     7
 10
1302.44862533178798
 20
194.5874058843562864
 30
0.0
 11
1299.44862533178798
 21
194.5874058843562864
 31
0.0
  0
LINE
  5
181
  8
0
  6
CONTINUOUS
 62
     7
 10
1299.44862533178798
 20
194.5874058843562864
 30
0.0
 11
1299.44862533178798
 21
186.5874058843562864
 31
0.0
  0
LINE
  5
182
  8
0
  6
CONTINUOUS
 62
     7
 10
1299.44862533178798
 20
186.5874058843562864
 30
0.0
 11
1302.44862533178798
 21
186.5874058843562864
 31
0.0
  0
LINE
  5
183
  8
0
  6
CONTINUOUS
 62
     7
 10
1302.44862533178798
 20
186.5874058843562864
 30
0.0
 11
1302.44862533178798
 21
194.5874058843562864
 31
0.0
  0
LINE
  5
184
  8
0
  6
CONTINUOUS
 62
     7
 10
1302.44862533178798
 20
170.5874058843562864
 30
0.0
 11
1299.44862533178798
 21
170.5874058843562864
 31
0.0
  0
LINE
  5
185
  8
0
  6
CONTINUOUS
 62
     7
 10
1299.44862533178798
 20
170.5874058843562864
 30
0.0
 11
1299.44862533178798
 21
162.5874058843562864
 31
0.0
  0
LINE
  5
186
  8
0
  6
CONTINUOUS
 62
     7
 10
1299.44862533178798
 20
162.5874058843562864
 30
0.0
 11
1302.44862533178798
 21
162.5874058843562864
 31
0.0
  0
LINE
  5
187
  8
0
  6
CONTINUOUS
 62
     7
 10
1302.44862533178798
 20
162.5874058843562864
 30
0.0
 11
1302.44862533178798
 21
170.5874058843562864
 31
0.0
  0
LINE
  5
188
  8
0
  6
CONTINUOUS
 62
     7
 10
913.4486253317882074
 20
246.5874058843562864
 30
0.0
 11
910.4486253317880937
 21
246.5874058843562864
 31
0.0
  0
LINE
  5
189
  8
0
  6
CONTINUOUS
 62
     7
 10
910.4486253317880937
 20
246.5874058843562864
 30
0.0
 11
910.4486253317880937
 21
238.5874058843562864
 31
0.0
  0
LINE
  5
18A
  8
0
  6
CONTINUOUS
 62
     7
 10
910.4486253317880937
 20
238.5874058843562864
 30
0.0
 11
913.4486253317882074
 21
238.5874058843562864
 31
0.0
  0
LINE
  5
18B
  8
0
  6
CONTINUOUS
 62
     7
 10
913.4486253317882074
 20
238.5874058843562864
 30
0.0
 11
913.4486253317882074
 21
246.5874058843562864
 31
0.0
  0
LINE
  5
18C
  8
0
  6
CONTINUOUS
 62
     7
 10
913.4486253317882074
 20
222.5874058843562864
 30
0.0
 11
910.4486253317880937
 21
222.5874058843562864
 31
0.0
  0
LINE
  5
18D
  8
0
  6
CONTINUOUS
 62
     7
 10
910.4486253317880937
 20
222.5874058843562864
 30
0.0
 11
910.4486253317880937
 21
214.5874058843562864
 31
0.0
  0
LINE
  5
18E
  8
0
  6
CONTINUOUS
 62
     7
 10
910.4486253317880937
 20
214.5874058843562864
 30
0.0
 11
913.4486253317882074
 21
214.5874058843562864
 31
0.0
  0
LINE
  5
18F
  8
0
  6
CONTINUOUS
 62
     7
 10
913.4486253317882074
 20
214.5874058843562864
 30
0.0
 11
913.4486253317882074
 21
222.5874058843562864
 31
0.0
  0
LINE
  5
190
  8
0
  6
CONTINUOUS
 62
     7
 10
913.4486253317882074
 20
194.5874058843562864
 30
0.0
 11
910.4486253317880937
 21
194.5874058843562864
 31
0.0
  0
LINE
  5
191
  8
0
  6
CONTINUOUS
 62
     7
 10
910.4486253317880937
 20
194.5874058843562864
 30
0.0
 11
910.4486253317880937
 21
186.5874058843562864
 31
0.0
  0
LINE
  5
192
  8
0
  6
CONTINUOUS
 62
     7
 10
910.4486253317880937
 20
186.5874058843562864
 30
0.0
 11
913.4486253317882074
 21
186.5874058843562864
 31
0.0
  0
LINE
  5
193
  8
0
  6
CONTINUOUS
 62
     7
 10
913.4486253317882074
 20
186.5874058843562864
 30
0.0
 11
913.4486253317882074
 21
194.5874058843562864
 31
0.0
  0
LINE
  5
194
  8
0
  6
CONTINUOUS
 62
     7
 10
913.4486253317882074
 20
170.5874058843562864
 30
0.0
 11
910.4486253317880937
 21
170.5874058843562864
 31
0.0
  0
LINE
  5
195
  8
0
  6
CONTINUOUS
 62
     7
 10
910.4486253317880937
 20
170.5874058843562864
 30
0.0
 11
910.4486253317880937
 21
162.5874058843562864
 31
0.0
  0
LINE
  5
196
  8
0
  6
CONTINUOUS
 62
     7
 10
910.4486253317880937
 20
162.5874058843562864
 30
0.0
 11
913.4486253317882074
 21
162.5874058843562864
 31
0.0
  0
LINE
  5
197
  8
0
  6
CONTINUOUS
 62
     7
 10
913.4486253317882074
 20
162.5874058843562864
 30
0.0
 11
913.4486253317882074
 21
170.5874058843562864
 31
0.0
  0
LINE
  5
198
  8
0
  6
CONTINUOUS
 62
     7
 10
907.4486253317882074
 20
257.5628022370693202
 30
0.0
 11
907.4486253317882074
 21
154.5874058843562864
 31
0.0
  0
LINE
  5
199
  8
0
  6
CONTINUOUS
 62
     7
 10
907.4486253317882074
 20
257.5628022370693202
 30
0.0
 11
1305.44862533178798
 21
257.5628022370693202
 31
0.0
  0
LINE
  5
19A
  8
0
  6
CONTINUOUS
 62
     7
 10
1305.44862533178798
 20
154.5874058843562864
 30
0.0
 11
1305.44862533178798
 21
257.5628022370693202
 31
0.0
  0
LINE
  5
19B
  8
0
  6
CONTINUOUS
 62
     7
 10
1124.1968646810869359
 20
154.5874058843562864
 30
0.0
 11
1305.44862533178798
 21
154.5874058843562864
 31
0.0
  0
ARC
  5
19C
  8
0
  6
CONTINUOUS
 62
     7
 10
1124.1968646810869359
 20
157.5874058843562864
 30
0.0
 40
3.0
 50
189.5940682268613102
 51
270.0000000000007958
  0
ARC
  5
19D
  8
0
  6
CONTINUOUS
 62
     7
 10
1106.44862533178798
 20
154.5874058843562864
 30
0.0
 40
15.0000000000001208
 50
9.5940682268603794
 51
170.405931773139514
  0
ARC
  5
19E
  8
0
  6
CONTINUOUS
 62
     7
 10
1088.7003859824890242
 20
157.5874058843562864
 30
0.0
 40
3.0
 50
270.0000000000007958
 51
350.4059317731403098
  0
LINE
  5
19F
  8
0
  6
CONTINUOUS
 62
     7
 10
907.4486253317882074
 20
154.5874058843562864
 30
0.0
 11
1088.7003859824890242
 21
154.5874058843562864
 31
0.0
  0
CIRCLE
  5
1A0
  8
0
  6
CONTINUOUS
 62
     7
 10
1300.94862533178798
 20
230.5874058843562864
 30
0.0
 40
1.5
  0
CIRCLE
  5
1A1
  8
0
  6
CONTINUOUS
 62
     7
 10
911.94862533178798
 20
230.5874058843562864
 30
0.0
 40
1.500000000000113
  0
CIRCLE
  5
1A2
  8
0
  6
CONTINUOUS
 62
     7
 10
1274.19862533178798
 20
170.5136400590874928
 30
0.0
 40
2.0000000000002269
  0
CIRCLE
  5
1A3
  8
0
  6
CONTINUOUS
 62
     7
 10
952.6986253317905948
 20
170.5136400590866117
 30
0.0
 40
2.0
  0
LINE
  5
1A4
  8
0
  6
CONTINUOUS
 62
     7
 10
1217.2115950938139122
 20
434.0851440452730117
 30
0.0
 11
1216.9048532017820889
 21
431.7048269631026187
 31
0.0
  0
LINE
  5
1A5
  8
0
  6
CONTINUOUS
 62
     7
 10
1218.4513435741109788
 20
433.925382643173009
 30
0.0
 11
1217.2115950938139122
 21
434.0851440452730117
 31
0.0
  0
LINE
  5
1A6
  8
0
  6
CONTINUOUS
 62
     7
 10
1218.9625800608318968
 20
437.8925777801237018
 30
0.0
 11
1218.4513435741109788
 21
433.925382643173009
 31
0.0
  0
LINE
  5
1A7
  8
0
  6
CONTINUOUS
 62
     7
 10
1221.9379764135449022
 20
437.5091504150834112
 30
0.0
 11
1218.9625800608318968
 21
437.8925777801237018
 31
0.0
  0
LINE
  5
1A8
  8
0
  6
CONTINUOUS
 62
     7
 10
1221.4267399268239842
 20
433.5419552781326047
 30
0.0
 11
1221.9379764135449022
 21
437.5091504150834112
 31
0.0
  0
LINE
  5
1A9
  8
0
  6
CONTINUOUS
 62
     7
 10
1222.6664884071219603
 20
433.3821938760323746
 30
0.0
 11
1221.4267399268239842
 21
433.5419552781326047
 31
0.0
  0
LINE
  5
1AA
  8
0
  6
CONTINUOUS
 62
     7
 10
1222.3597465150890002
 20
431.0018767938619817
 30
0.0
 11
1222.6664884071219603
 21
433.3821938760323746
 31
0.0
  0
LINE
  5
1AB
  8
0
  6
CONTINUOUS
 62
     7
 10
1221.1199980347919336
 20
431.1616381959622117
 30
0.0
 11
1222.3597465150890002
 21
431.0018767938619817
 31
0.0
  0
LINE
  5
1AC
  8
0
  6
CONTINUOUS
 62
     7
 10
1220.1486487100239628
 20
423.6239674357570948
 30
0.0
 11
1221.1199980347919336
 21
431.1616381959622117
 31
0.0
  0
LINE
  5
1AD
  8
0
  6
CONTINUOUS
 62
     7
 10
1220.1486487100239628
 20
423.6239674357570948
 30
0.0
 11
1226.5953408075690731
 21
422.7932081448363988
 31
0.0
  0
LINE
  5
1AE
  8
0
  6
CONTINUOUS
 62
     7
 10
1226.5953408075690731
 20
422.7932081448363988
 30
0.0
 11
1226.2119134425290667
 21
419.8178117921233934
 31
0.0
  0
LINE
  5
1AF
  8
0
  6
CONTINUOUS
 62
     7
 10
1226.2119134425290667
 20
419.8178117921233934
 30
0.0
 11
1234.1463037164301113
 21
418.7953388186825237
 31
0.0
  0
LINE
  5
1B0
  8
0
  6
CONTINUOUS
 62
     7
 10
1234.1463037164301113
 20
418.7953388186825237
 30
0.0
 11
1234.5297310814698903
 21
421.7707351713954722
 31
0.0
  0
LINE
  5
1B1
  8
0
  6
CONTINUOUS
 62
     7
 10
1234.5297310814698903
 20
421.7707351713954722
 30
0.0
 11
1294.0376581357320447
 21
414.1021878705885797
 31
0.0
  0
LINE
  5
1B2
  8
0
  6
CONTINUOUS
 62
     7
 10
1294.0376581357320447
 20
414.1021878705885797
 30
0.0
 11
1294.0376581357320447
 21
422.1021878705885797
 31
0.0
  0
LINE
  5
1B3
  8
0
  6
CONTINUOUS
 62
     7
 10
1294.0376581357320447
 20
422.1021878705885797
 30
0.0
 11
1297.0376581357320447
 21
422.1021878705885797
 31
0.0
  0
LINE
  5
1B4
  8
0
  6
CONTINUOUS
 62
     7
 10
1297.0376581357320447
 20
422.1021878705885797
 30
0.0
 11
1297.0376581357320447
 21
430.1021878705885797
 31
0.0
  0
LINE
  5
1B5
  8
0
  6
CONTINUOUS
 62
     7
 10
1294.0376581357320447
 20
430.1021878705885797
 30
0.0
 11
1297.0376581357320447
 21
430.1021878705885797
 31
0.0
  0
LINE
  5
1B6
  8
0
  6
CONTINUOUS
 62
     7
 10
1294.0376581357320447
 20
430.1021878705885797
 30
0.0
 11
1294.0376581357320447
 21
436.6021878705885229
 31
0.0
  0
LINE
  5
1B7
  8
0
  6
CONTINUOUS
 62
     7
 10
1286.4376581357319083
 20
436.6021878705885229
 30
0.0
 11
1294.0376581357320447
 21
436.6021878705885229
 31
0.0
  0
LINE
  5
1B8
  8
0
  6
CONTINUOUS
 62
     7
 10
1286.4376581357319083
 20
435.3521878705885229
 30
0.0
 11
1286.4376581357319083
 21
436.6021878705885229
 31
0.0
  0
LINE
  5
1B9
  8
0
  6
CONTINUOUS
 62
     7
 10
1284.0376581357320447
 20
435.3521878705885229
 30
0.0
 11
1286.4376581357319083
 21
435.3521878705885229
 31
0.0
  0
LINE
  5
1BA
  8
0
  6
CONTINUOUS
 62
     7
 10
1284.0376581357320447
 20
436.6021878705885229
 30
0.0
 11
1284.0376581357320447
 21
435.3521878705885229
 31
0.0
  0
LINE
  5
1BB
  8
0
  6
CONTINUOUS
 62
     7
 10
1280.0376581357320447
 20
436.6021878705885797
 30
0.0
 11
1284.0376581357320447
 21
436.6021878705885229
 31
0.0
  0
LINE
  5
1BC
  8
0
  6
CONTINUOUS
 62
     7
 10
1280.0376581357320447
 20
439.6021878705885797
 30
0.0
 11
1280.0376581357320447
 21
436.6021878705885797
 31
0.0
  0
LINE
  5
1BD
  8
0
  6
CONTINUOUS
 62
     7
 10
1284.0376581357320447
 20
439.6021878705885797
 30
0.0
 11
1280.0376581357320447
 21
439.6021878705885797
 31
0.0
  0
LINE
  5
1BE
  8
0
  6
CONTINUOUS
 62
     7
 10
1284.0376581357320447
 20
440.8521878705885797
 30
0.0
 11
1284.0376581357320447
 21
439.6021878705885797
 31
0.0
  0
LINE
  5
1BF
  8
0
  6
CONTINUOUS
 62
     7
 10
1286.4376581357319083
 20
440.8521878705885797
 30
0.0
 11
1284.0376581357320447
 21
440.8521878705885797
 31
0.0
  0
LINE
  5
1C0
  8
0
  6
CONTINUOUS
 62
     7
 10
1286.4376581357319083
 20
439.6021878705885797
 30
0.0
 11
1286.4376581357319083
 21
440.8521878705885797
 31
0.0
  0
LINE
  5
1C1
  8
0
  6
CONTINUOUS
 62
     7
 10
1294.0376581357320447
 20
439.6021878705885797
 30
0.0
 11
1286.4376581357319083
 21
439.6021878705885797
 31
0.0
  0
LINE
  5
1C2
  8
0
  6
CONTINUOUS
 62
     7
 10
1294.0376581357320447
 20
439.6021878705885797
 30
0.0
 11
1294.0376581357320447
 21
446.1021878705885797
 31
0.0
  0
LINE
  5
1C3
  8
0
  6
CONTINUOUS
 62
     7
 10
1294.0376581357320447
 20
446.1021878705885797
 30
0.0
 11
1297.0376581357320447
 21
446.1021878705885797
 31
0.0
  0
LINE
  5
1C4
  8
0
  6
CONTINUOUS
 62
     7
 10
1297.0376581357320447
 20
446.1021878705885797
 30
0.0
 11
1297.0376581357320447
 21
454.1021878705885797
 31
0.0
  0
LINE
  5
1C5
  8
0
  6
CONTINUOUS
 62
     7
 10
1294.0376581357320447
 20
454.1021878705885797
 30
0.0
 11
1297.0376581357320447
 21
454.1021878705885797
 31
0.0
  0
LINE
  5
1C6
  8
0
  6
CONTINUOUS
 62
     7
 10
1294.0376581357320447
 20
454.1021878705885797
 30
0.0
 11
1294.0376581357320447
 21
474.1021878705885797
 31
0.0
  0
LINE
  5
1C7
  8
0
  6
CONTINUOUS
 62
     7
 10
1294.0376581357320447
 20
474.1021878705885797
 30
0.0
 11
1297.0376581357320447
 21
474.1021878705885797
 31
0.0
  0
LINE
  5
1C8
  8
0
  6
CONTINUOUS
 62
     7
 10
1297.0376581357320447
 20
482.1021878705885797
 30
0.0
 11
1297.0376581357320447
 21
474.1021878705885797
 31
0.0
  0
LINE
  5
1C9
  8
0
  6
CONTINUOUS
 62
     7
 10
1294.0376581357320447
 20
482.1021878705885797
 30
0.0
 11
1297.0376581357320447
 21
482.1021878705885797
 31
0.0
  0
LINE
  5
1CA
  8
0
  6
CONTINUOUS
 62
     7
 10
1294.0376581357320447
 20
482.1021878705885797
 30
0.0
 11
1294.0376581357320447
 21
488.6021878705885797
 31
0.0
  0
LINE
  5
1CB
  8
0
  6
CONTINUOUS
 62
     7
 10
1286.4376581357319083
 20
488.6021878705885797
 30
0.0
 11
1294.0376581357320447
 21
488.6021878705885797
 31
0.0
  0
LINE
  5
1CC
  8
0
  6
CONTINUOUS
 62
     7
 10
1286.4376581357319083
 20
487.3521878705885797
 30
0.0
 11
1286.4376581357319083
 21
488.6021878705885797
 31
0.0
  0
LINE
  5
1CD
  8
0
  6
CONTINUOUS
 62
     7
 10
1284.0376581357320447
 20
487.3521878705885797
 30
0.0
 11
1286.4376581357319083
 21
487.3521878705885797
 31
0.0
  0
LINE
  5
1CE
  8
0
  6
CONTINUOUS
 62
     7
 10
1284.0376581357320447
 20
488.6021878705885797
 30
0.0
 11
1284.0376581357320447
 21
487.3521878705885797
 31
0.0
  0
LINE
  5
1CF
  8
0
  6
CONTINUOUS
 62
     7
 10
1280.0376581357320447
 20
488.6021878705885797
 30
0.0
 11
1284.0376581357320447
 21
488.6021878705885797
 31
0.0
  0
LINE
  5
1D0
  8
0
  6
CONTINUOUS
 62
     7
 10
1280.0376581357320447
 20
491.6021878705885797
 30
0.0
 11
1280.0376581357320447
 21
488.6021878705885797
 31
0.0
  0
LINE
  5
1D1
  8
0
  6
CONTINUOUS
 62
     7
 10
1284.0376581357320447
 20
491.6021878705885797
 30
0.0
 11
1280.0376581357320447
 21
491.6021878705885797
 31
0.0
  0
LINE
  5
1D2
  8
0
  6
CONTINUOUS
 62
     7
 10
1284.0376581357320447
 20
492.8521878705885229
 30
0.0
 11
1284.0376581357320447
 21
491.6021878705885797
 31
0.0
  0
LINE
  5
1D3
  8
0
  6
CONTINUOUS
 62
     7
 10
1286.4376581357319083
 20
492.8521878705885229
 30
0.0
 11
1284.0376581357320447
 21
492.8521878705885229
 31
0.0
  0
LINE
  5
1D4
  8
0
  6
CONTINUOUS
 62
     7
 10
1286.4376581357319083
 20
491.6021878705885797
 30
0.0
 11
1286.4376581357319083
 21
492.8521878705885229
 31
0.0
  0
LINE
  5
1D5
  8
0
  6
CONTINUOUS
 62
     7
 10
1294.0376581357320447
 20
491.6021878705885229
 30
0.0
 11
1286.4376581357319083
 21
491.6021878705885797
 31
0.0
  0
LINE
  5
1D6
  8
0
  6
CONTINUOUS
 62
     7
 10
1294.0376581357320447
 20
491.6021878705885229
 30
0.0
 11
1294.0376581357320447
 21
498.1021878705885797
 31
0.0
  0
LINE
  5
1D7
  8
0
  6
CONTINUOUS
 62
     7
 10
1294.0376581357320447
 20
498.1021878705885797
 30
0.0
 11
1297.0376581357320447
 21
498.1021878705885797
 31
0.0
  0
LINE
  5
1D8
  8
0
  6
CONTINUOUS
 62
     7
 10
1297.0376581357320447
 20
506.1021878705885797
 30
0.0
 11
1297.0376581357320447
 21
498.1021878705885797
 31
0.0
  0
LINE
  5
1D9
  8
0
  6
CONTINUOUS
 62
     7
 10
1294.0376581357320447
 20
506.1021878705885797
 30
0.0
 11
1297.0376581357320447
 21
506.1021878705885797
 31
0.0
  0
LINE
  5
1DA
  8
0
  6
CONTINUOUS
 62
     7
 10
1294.0376581357320447
 20
506.1021878705885797
 30
0.0
 11
1294.0376581357320447
 21
514.1021878705887502
 31
0.0
  0
LINE
  5
1DB
  8
0
  6
CONTINUOUS
 62
     7
 10
1294.0376581357320447
 20
514.1021878705887502
 30
0.0
 11
906.0376581357320447
 21
514.1021878705887502
 31
0.0
  0
LINE
  5
1DC
  8
0
  6
CONTINUOUS
 62
     7
 10
906.0376581357320447
 20
514.1021878705887502
 30
0.0
 11
906.0376581357320447
 21
505.1021878705886934
 31
0.0
  0
LINE
  5
1DD
  8
0
  6
CONTINUOUS
 62
     7
 10
906.0376581357320447
 20
505.1021878705886934
 30
0.0
 11
903.0376581357320447
 21
505.1021878705886934
 31
0.0
  0
LINE
  5
1DE
  8
0
  6
CONTINUOUS
 62
     7
 10
903.0376581357320447
 20
505.1021878705886934
 30
0.0
 11
903.0376581357320447
 21
497.1021878705885797
 31
0.0
  0
LINE
  5
1DF
  8
0
  6
CONTINUOUS
 62
     7
 10
906.0376581357320447
 20
497.1021878705885797
 30
0.0
 11
903.0376581357320447
 21
497.1021878705885797
 31
0.0
  0
LINE
  5
1E0
  8
0
  6
CONTINUOUS
 62
     7
 10
906.0376581357320447
 20
490.6021878705885797
 30
0.0
 11
906.0376581357320447
 21
497.1021878705885797
 31
0.0
  0
LINE
  5
1E1
  8
0
  6
CONTINUOUS
 62
     7
 10
913.6376581357319537
 20
490.6021878705885797
 30
0.0
 11
906.0376581357320447
 21
490.6021878705885797
 31
0.0
  0
LINE
  5
1E2
  8
0
  6
CONTINUOUS
 62
     7
 10
913.6376581357320674
 20
491.8521878705885797
 30
0.0
 11
913.6376581357319537
 21
490.6021878705885797
 31
0.0
  0
LINE
  5
1E3
  8
0
  6
CONTINUOUS
 62
     7
 10
916.0376581357320447
 20
491.8521878705885797
 30
0.0
 11
913.6376581357320674
 21
491.8521878705885797
 31
0.0
  0
LINE
  5
1E4
  8
0
  6
CONTINUOUS
 62
     7
 10
916.0376581357320447
 20
490.6021878705885797
 30
0.0
 11
916.0376581357320447
 21
491.8521878705885797
 31
0.0
  0
LINE
  5
1E5
  8
0
  6
CONTINUOUS
 62
     7
 10
919.0376581357320447
 20
490.6021878705885797
 30
0.0
 11
916.0376581357320447
 21
490.6021878705885797
 31
0.0
  0
LINE
  5
1E6
  8
0
  6
CONTINUOUS
 62
     7
 10
919.0376581357320447
 20
487.6021878705885797
 30
0.0
 11
919.0376581357320447
 21
490.6021878705885797
 31
0.0
  0
LINE
  5
1E7
  8
0
  6
CONTINUOUS
 62
     7
 10
916.0376581357320447
 20
487.6021878705885797
 30
0.0
 11
919.0376581357320447
 21
487.6021878705885797
 31
0.0
  0
LINE
  5
1E8
  8
0
  6
CONTINUOUS
 62
     7
 10
916.0376581357320447
 20
486.3521878705885797
 30
0.0
 11
916.0376581357320447
 21
487.6021878705885797
 31
0.0
  0
LINE
  5
1E9
  8
0
  6
CONTINUOUS
 62
     7
 10
913.6376581357320674
 20
486.3521878705885797
 30
0.0
 11
916.0376581357320447
 21
486.3521878705885797
 31
0.0
  0
LINE
  5
1EA
  8
0
  6
CONTINUOUS
 62
     7
 10
913.6376581357320674
 20
487.6021878705885797
 30
0.0
 11
913.6376581357320674
 21
486.3521878705885797
 31
0.0
  0
LINE
  5
1EB
  8
0
  6
CONTINUOUS
 62
     7
 10
906.0376581357320447
 20
487.6021878705885797
 30
0.0
 11
913.6376581357320674
 21
487.6021878705885797
 31
0.0
  0
LINE
  5
1EC
  8
0
  6
CONTINUOUS
 62
     7
 10
906.0376581357320447
 20
487.6021878705885797
 30
0.0
 11
906.0376581357320447
 21
481.1021878705885797
 31
0.0
  0
LINE
  5
1ED
  8
0
  6
CONTINUOUS
 62
     7
 10
906.0376581357320447
 20
481.1021878705885797
 30
0.0
 11
903.0376581357320447
 21
481.1021878705885797
 31
0.0
  0
LINE
  5
1EE
  8
0
  6
CONTINUOUS
 62
     7
 10
903.0376581357320447
 20
473.1021878705885797
 30
0.0
 11
903.0376581357320447
 21
481.1021878705885797
 31
0.0
  0
LINE
  5
1EF
  8
0
  6
CONTINUOUS
 62
     7
 10
906.0376581357320447
 20
473.1021878705885797
 30
0.0
 11
903.0376581357320447
 21
473.1021878705885797
 31
0.0
  0
LINE
  5
1F0
  8
0
  6
CONTINUOUS
 62
     7
 10
906.0376581357320447
 20
473.1021878705885797
 30
0.0
 11
906.0376581357320447
 21
464.1021878705885797
 31
0.0
  0
LINE
  5
1F1
  8
0
  6
CONTINUOUS
 62
     7
 10
906.0376581357320447
 20
464.1021878705885797
 30
0.0
 11
965.5455851899932895
 21
456.4336405697816872
 31
0.0
  0
LINE
  5
1F2
  8
0
  6
CONTINUOUS
 62
     7
 10
965.5455851899932895
 20
456.4336405697816872
 30
0.0
 11
965.1621578249530558
 21
453.4582442170686818
 31
0.0
  0
LINE
  5
1F3
  8
0
  6
CONTINUOUS
 62
     7
 10
965.1621578249530558
 20
453.4582442170686818
 30
0.0
 11
973.0965480988545551
 21
452.4357712436276984
 31
0.0
  0
LINE
  5
1F4
  8
0
  6
CONTINUOUS
 62
     7
 10
973.0965480988545551
 20
452.4357712436276984
 30
0.0
 11
973.4799754638949025
 21
455.4111675963408175
 31
0.0
  0
LINE
  5
1F5
  8
0
  6
CONTINUOUS
 62
     7
 10
973.4799754638949025
 20
455.4111675963408175
 30
0.0
 11
979.9266675614401265
 21
454.5804083054200078
 31
0.0
  0
LINE
  5
1F6
  8
0
  6
CONTINUOUS
 62
     7
 10
980.8980168862087794
 20
462.118079065626489
 30
0.0
 11
979.9266675614401265
 21
454.5804083054200078
 31
0.0
  0
LINE
  5
1F7
  8
0
  6
CONTINUOUS
 62
     7
 10
979.6582684059117128
 20
462.277840467726719
 30
0.0
 11
980.8980168862087794
 21
462.118079065626489
 31
0.0
  0
LINE
  5
1F8
  8
0
  6
CONTINUOUS
 62
     7
 10
979.965010297943877
 20
464.6581575498971119
 30
0.0
 11
979.6582684059117128
 21
462.277840467726719
 31
0.0
  0
LINE
  5
1F9
  8
0
  6
CONTINUOUS
 62
     7
 10
981.2047587782409437
 20
464.4983961477968819
 30
0.0
 11
979.965010297943877
 21
464.6581575498971119
 31
0.0
  0
LINE
  5
1FA
  8
0
  6
CONTINUOUS
 62
     7
 10
981.7159952649616343
 20
468.4655912847476884
 30
0.0
 11
981.2047587782409437
 21
464.4983961477968819
 31
0.0
  0
LINE
  5
1FB
  8
0
  6
CONTINUOUS
 62
     7
 10
984.6913916176745261
 20
468.0821639197072841
 30
0.0
 11
981.7159952649616343
 21
468.4655912847476884
 31
0.0
  0
LINE
  5
1FC
  8
0
  6
CONTINUOUS
 62
     7
 10
984.1801551309541765
 20
464.1149687827564776
 30
0.0
 11
984.6913916176745261
 21
468.0821639197072841
 31
0.0
  0
LINE
  5
1FD
  8
0
  6
CONTINUOUS
 62
     7
 10
985.4199036112513568
 20
463.9552073806564181
 30
0.0
 11
984.1801551309541765
 21
464.1149687827564776
 31
0.0
  0
LINE
  5
1FE
  8
0
  6
CONTINUOUS
 62
     7
 10
985.1131617192190788
 20
461.5748902984860251
 30
0.0
 11
985.4199036112513568
 21
463.9552073806564181
 31
0.0
  0
LINE
  5
1FF
  8
0
  6
CONTINUOUS
 62
     7
 10
983.8734132389220122
 20
461.7346517005861983
 30
0.0
 11
985.1131617192190788
 21
461.5748902984860251
 31
0.0
  0
LINE
  5
200
  8
0
  6
CONTINUOUS
 62
     7
 10
982.9020639141530182
 20
454.196980940379774
 30
0.0
 11
983.8734132389220122
 21
461.7346517005861983
 31
0.0
  0
LINE
  5
201
  8
0
  6
CONTINUOUS
 62
     7
 10
982.9020639141530182
 20
454.196980940379774
 30
0.0
 11
989.3487560116980148
 21
453.3662216494589075
 31
0.0
  0
LINE
  5
202
  8
0
  6
CONTINUOUS
 62
     7
 10
989.3487560116980148
 20
453.3662216494589075
 30
0.0
 11
988.9653286466576674
 21
450.3908252967459021
 31
0.0
  0
LINE
  5
203
  8
0
  6
CONTINUOUS
 62
     7
 10
988.9653286466576674
 20
450.3908252967459021
 30
0.0
 11
996.8997189205592804
 21
449.3683523233049755
 31
0.0
  0
LINE
  5
204
  8
0
  6
CONTINUOUS
 62
     7
 10
996.8997189205592804
 20
449.3683523233049755
 30
0.0
 11
997.2831462855996278
 21
452.3437486760179809
 31
0.0
  0
LINE
  5
205
  8
0
  6
CONTINUOUS
 62
     7
 10
997.2831462855996278
 20
452.3437486760179809
 30
0.0
 11
1084.1688775879290461
 21
441.147133817470376
 31
0.0
  0
LINE
  5
206
  8
0
  6
CONTINUOUS
 62
     7
 10
1084.1688775879290461
 20
441.147133817470376
 30
0.0
 11
1083.7854502228879028
 21
438.1717374647574843
 31
0.0
  0
LINE
  5
207
  8
0
  6
CONTINUOUS
 62
     7
 10
1083.7854502228879028
 20
438.1717374647574843
 30
0.0
 11
1091.7198404967900842
 21
437.1492644913165009
 31
0.0
  0
LINE
  5
208
  8
0
  6
CONTINUOUS
 62
     7
 10
1091.7198404967900842
 20
437.1492644913165009
 30
0.0
 11
1092.1032678618300906
 21
440.1246608440295063
 31
0.0
  0
LINE
  5
209
  8
0
  6
CONTINUOUS
 62
     7
 10
1092.1032678618300906
 20
440.1246608440295063
 30
0.0
 11
1098.5499599593749736
 21
439.2939015531086966
 31
0.0
  0
LINE
  5
20A
  8
0
  6
CONTINUOUS
 62
     7
 10
1099.5213092841440812
 20
446.8315723133151778
 30
0.0
 11
1098.5499599593749736
 21
439.2939015531086966
 31
0.0
  0
LINE
  5
20B
  8
0
  6
CONTINUOUS
 62
     7
 10
1098.2815608038470145
 20
446.9913337154152941
 30
0.0
 11
1099.5213092841440812
 21
446.8315723133151778
 31
0.0
  0
LINE
  5
20C
  8
0
  6
CONTINUOUS
 62
     7
 10
1098.5883026958790651
 20
449.3716507975858008
 30
0.0
 11
1098.2815608038470145
 21
446.9913337154152941
 31
0.0
  0
LINE
  5
20D
  8
0
  6
CONTINUOUS
 62
     7
 10
1099.8280511761759044
 20
449.2118893954856276
 30
0.0
 11
1098.5883026958790651
 21
449.3716507975858008
 31
0.0
  0
LINE
  5
20E
  8
0
  6
CONTINUOUS
 62
     7
 10
1100.3392876628970498
 20
453.1790845324363772
 30
0.0
 11
1099.8280511761759044
 21
449.2118893954856276
 31
0.0
  0
LINE
  5
20F
  8
0
  6
CONTINUOUS
 62
     7
 10
1103.3146840156100552
 20
452.7956571673960866
 30
0.0
 11
1100.3392876628970498
 21
453.1790845324363772
 31
0.0
  0
LINE
  5
210
  8
0
  6
CONTINUOUS
 62
     7
 10
1102.8034475288889098
 20
448.8284620304452801
 30
0.0
 11
1103.3146840156100552
 21
452.7956571673960866
 31
0.0
  0
LINE
  5
211
  8
0
  6
CONTINUOUS
 62
     7
 10
1104.0431960091859764
 20
448.6687006283451069
 30
0.0
 11
1102.8034475288889098
 21
448.8284620304452801
 31
0.0
  0
LINE
  5
212
  8
0
  6
CONTINUOUS
 62
     7
 10
1103.7364541171550627
 20
446.288383546174714
 30
0.0
 11
1104.0431960091859764
 21
448.6687006283451069
 31
0.0
  0
LINE
  5
213
  8
0
  6
CONTINUOUS
 62
     7
 10
1102.4967056368570866
 20
446.4481449482747735
 30
0.0
 11
1103.7364541171550627
 21
446.288383546174714
 31
0.0
  0
LINE
  5
214
  8
0
  6
CONTINUOUS
 62
     7
 10
1101.5253563120879789
 20
438.910474188068406
 30
0.0
 11
1102.4967056368570866
 21
446.4481449482747735
 31
0.0
  0
LINE
  5
215
  8
0
  6
CONTINUOUS
 62
     7
 10
1101.5253563120879789
 20
438.910474188068406
 30
0.0
 11
1107.9720484096330892
 21
438.0797148971478236
 31
0.0
  0
LINE
  5
216
  8
0
  6
CONTINUOUS
 62
     7
 10
1107.9720484096330892
 20
438.0797148971478236
 30
0.0
 11
1107.5886210445930828
 21
435.1043185444345909
 31
0.0
  0
LINE
  5
217
  8
0
  6
CONTINUOUS
 62
     7
 10
1107.5886210445930828
 20
435.1043185444345909
 30
0.0
 11
1115.5230113184939
 21
434.0818455709937211
 31
0.0
  0
LINE
  5
218
  8
0
  6
CONTINUOUS
 62
     7
 10
1115.5230113184939
 20
434.0818455709937211
 30
0.0
 11
1115.9064386835350433
 21
437.0572419237067834
 31
0.0
  0
LINE
  5
219
  8
0
  6
CONTINUOUS
 62
     7
 10
1115.9064386835350433
 20
437.0572419237067834
 30
0.0
 11
1202.7921699858638931
 21
425.8606270651591785
 31
0.0
  0
LINE
  5
21A
  8
0
  6
CONTINUOUS
 62
     7
 10
1202.7921699858638931
 20
425.8606270651591785
 30
0.0
 11
1202.4087426208238867
 21
422.8852307124461163
 31
0.0
  0
LINE
  5
21B
  8
0
  6
CONTINUOUS
 62
     7
 10
1202.4087426208238867
 20
422.8852307124461163
 30
0.0
 11
1210.3431328947249312
 21
421.8627577390051897
 31
0.0
  0
LINE
  5
21C
  8
0
  6
CONTINUOUS
 62
     7
 10
1210.3431328947249312
 20
421.8627577390051897
 30
0.0
 11
1210.7265602597660745
 21
424.8381540917183088
 31
0.0
  0
LINE
  5
21D
  8
0
  6
CONTINUOUS
 62
     7
 10
1210.7265602597660745
 20
424.8381540917183088
 30
0.0
 11
1217.1732523573109574
 21
424.0073948007973854
 31
0.0
  0
LINE
  5
21E
  8
0
  6
CONTINUOUS
 62
     7
 10
1218.1446016820789282
 20
431.5450655610025024
 30
0.0
 11
1217.1732523573109574
 21
424.0073948007973854
 31
0.0
  0
LINE
  5
21F
  8
0
  6
CONTINUOUS
 62
     7
 10
1216.9048532017820889
 20
431.7048269631026187
 30
0.0
 11
1218.1446016820789282
 21
431.5450655610025024
 31
0.0
  0
LINE
  5
220
  8
0
  6
CONTINUOUS
 62
     7
 10
28.6381371226528394
 20
533.8323910067797442
 30
0.0
 11
426.6381371226527222
 21
533.8323910067797442
 31
0.0
  0
LINE
  5
221
  8
0
  6
CONTINUOUS
 62
     7
 10
28.6381371226528394
 20
143.0106045766949876
 30
0.0
 11
426.6381371226527222
 21
143.0106045766949876
 31
0.0
  0
LINE
  5
222
  8
0
  6
CONTINUOUS
 62
     7
 10
420.638137122652779
 20
210.624006638551009
 30
0.0
 11
420.6381371226527222
 21
202.6240066385506964
 31
0.0
  0
LINE
  5
223
  8
0
  6
CONTINUOUS
 62
     7
 10
420.6381371226527222
 20
202.6240066385506964
 30
0.0
 11
423.6381371226527222
 21
202.6240066385506964
 31
0.0
  0
LINE
  5
224
  8
0
  6
CONTINUOUS
 62
     7
 10
423.6381371226527222
 20
202.6240066385506964
 30
0.0
 11
423.6381371226527222
 21
210.6240066385508953
 31
0.0
  0
LINE
  5
225
  8
0
  6
CONTINUOUS
 62
     7
 10
423.6381371226527222
 20
210.6240066385508953
 30
0.0
 11
420.638137122652779
 21
210.624006638551009
 31
0.0
  0
CIRCLE
  5
226
  8
0
  6
CONTINUOUS
 62
     7
 10
33.1381371226528501
 20
457.8323910067792895
 30
0.0
 40
1.4999999999999429
  0
LINE
  5
227
  8
0
  6
CONTINUOUS
 62
     7
 10
31.6381371226528394
 20
354.2281988226653766
 30
0.0
 11
31.6381371226528394
 21
346.2281988226652061
 31
0.0
  0
LINE
  5
228
  8
0
  6
CONTINUOUS
 62
     7
 10
31.6381371226528394
 20
346.2281988226652061
 30
0.0
 11
34.6381371226528501
 21
346.2281988226652061
 31
0.0
  0
LINE
  5
229
  8
0
  6
CONTINUOUS
 62
     7
 10
34.6381371226528501
 20
346.2281988226652061
 30
0.0
 11
34.6381371226528501
 21
354.2281988226653198
 31
0.0
  0
LINE
  5
22A
  8
0
  6
CONTINUOUS
 62
     7
 10
34.6381371226528501
 20
354.2281988226653198
 30
0.0
 11
31.6381371226528394
 21
354.2281988226653766
 31
0.0
  0
LINE
  5
22B
  8
0
  6
CONTINUOUS
 62
     7
 10
31.6381371226528394
 20
449.8323910067795168
 30
0.0
 11
31.6381371226528394
 21
441.8323910067794031
 31
0.0
  0
LINE
  5
22C
  8
0
  6
CONTINUOUS
 62
     7
 10
31.6381371226528394
 20
441.8323910067794031
 30
0.0
 11
34.6381371226528501
 21
441.8323910067794031
 31
0.0
  0
LINE
  5
22D
  8
0
  6
CONTINUOUS
 62
     7
 10
34.6381371226528501
 20
441.8323910067794031
 30
0.0
 11
34.6381371226528501
 21
449.8323910067794031
 31
0.0
  0
LINE
  5
22E
  8
0
  6
CONTINUOUS
 62
     7
 10
34.6381371226528501
 20
449.8323910067794031
 30
0.0
 11
31.6381371226528394
 21
449.8323910067795168
 31
0.0
  0
LINE
  5
22F
  8
0
  6
CONTINUOUS
 62
     7
 10
31.6381371226528998
 20
473.8323910067799147
 30
0.0
 11
31.6381371226528394
 21
465.8323910067796874
 31
0.0
  0
LINE
  5
230
  8
0
  6
CONTINUOUS
 62
     7
 10
31.6381371226528394
 20
465.8323910067796874
 30
0.0
 11
34.6381371226528501
 21
465.8323910067796874
 31
0.0
  0
LINE
  5
231
  8
0
  6
CONTINUOUS
 62
     7
 10
34.6381371226528501
 20
465.8323910067796874
 30
0.0
 11
34.6381371226528501
 21
473.8323910067796874
 31
0.0
  0
LINE
  5
232
  8
0
  6
CONTINUOUS
 62
     7
 10
34.6381371226528501
 20
473.8323910067796874
 30
0.0
 11
31.6381371226528998
 21
473.8323910067799147
 31
0.0
  0
LINE
  5
233
  8
0
  6
CONTINUOUS
 62
     7
 10
420.638137122652779
 20
473.8323910067799147
 30
0.0
 11
420.6381371226527222
 21
465.8323910067796874
 31
0.0
  0
LINE
  5
234
  8
0
  6
CONTINUOUS
 62
     7
 10
420.6381371226527222
 20
465.8323910067796874
 30
0.0
 11
423.6381371226527222
 21
465.8323910067796874
 31
0.0
  0
LINE
  5
235
  8
0
  6
CONTINUOUS
 62
     7
 10
423.6381371226527222
 20
465.8323910067796874
 30
0.0
 11
423.6381371226527222
 21
473.8323910067796874
 31
0.0
  0
LINE
  5
236
  8
0
  6
CONTINUOUS
 62
     7
 10
423.6381371226527222
 20
473.8323910067796874
 30
0.0
 11
420.638137122652779
 21
473.8323910067799147
 31
0.0
  0
LINE
  5
237
  8
0
  6
CONTINUOUS
 62
     7
 10
420.638137122652779
 20
449.8323910067795168
 30
0.0
 11
420.6381371226527222
 21
441.8323910067794031
 31
0.0
  0
LINE
  5
238
  8
0
  6
CONTINUOUS
 62
     7
 10
420.6381371226527222
 20
441.8323910067794031
 30
0.0
 11
423.6381371226527222
 21
441.8323910067794031
 31
0.0
  0
LINE
  5
239
  8
0
  6
CONTINUOUS
 62
     7
 10
423.6381371226527222
 20
441.8323910067794031
 30
0.0
 11
423.6381371226527222
 21
449.8323910067794031
 31
0.0
  0
LINE
  5
23A
  8
0
  6
CONTINUOUS
 62
     7
 10
423.6381371226527222
 20
449.8323910067794031
 30
0.0
 11
420.638137122652779
 21
449.8323910067795168
 31
0.0
  0
LINE
  5
23B
  8
0
  6
CONTINUOUS
 62
     7
 10
420.638137122652779
 20
354.2281988226653766
 30
0.0
 11
420.6381371226527222
 21
346.2281988226652061
 31
0.0
  0
LINE
  5
23C
  8
0
  6
CONTINUOUS
 62
     7
 10
420.6381371226527222
 20
346.2281988226652061
 30
0.0
 11
423.6381371226527222
 21
346.2281988226652061
 31
0.0
  0
LINE
  5
23D
  8
0
  6
CONTINUOUS
 62
     7
 10
423.6381371226527222
 20
346.2281988226652061
 30
0.0
 11
423.6381371226527222
 21
354.2281988226653198
 31
0.0
  0
LINE
  5
23E
  8
0
  6
CONTINUOUS
 62
     7
 10
423.6381371226527222
 20
354.2281988226653198
 30
0.0
 11
420.638137122652779
 21
354.2281988226653766
 31
0.0
  0
LINE
  5
23F
  8
0
  6
CONTINUOUS
 62
     7
 10
420.638137122652779
 20
330.2281988226653766
 30
0.0
 11
420.6381371226527222
 21
322.2281988226652061
 31
0.0
  0
LINE
  5
240
  8
0
  6
CONTINUOUS
 62
     7
 10
420.6381371226527222
 20
322.2281988226652061
 30
0.0
 11
423.6381371226527222
 21
322.2281988226652061
 31
0.0
  0
LINE
  5
241
  8
0
  6
CONTINUOUS
 62
     7
 10
423.6381371226527222
 20
322.2281988226652061
 30
0.0
 11
423.6381371226527222
 21
330.2281988226653198
 31
0.0
  0
LINE
  5
242
  8
0
  6
CONTINUOUS
 62
     7
 10
423.6381371226527222
 20
330.2281988226653198
 30
0.0
 11
420.638137122652779
 21
330.2281988226653766
 31
0.0
  0
LINE
  5
243
  8
0
  6
CONTINUOUS
 62
     7
 10
420.638137122652779
 20
234.624006638551208
 30
0.0
 11
420.6381371226527222
 21
226.6240066385508953
 31
0.0
  0
LINE
  5
244
  8
0
  6
CONTINUOUS
 62
     7
 10
420.6381371226527222
 20
226.6240066385508953
 30
0.0
 11
423.6381371226527222
 21
226.6240066385508953
 31
0.0
  0
LINE
  5
245
  8
0
  6
CONTINUOUS
 62
     7
 10
423.6381371226527222
 20
226.6240066385508953
 30
0.0
 11
423.6381371226527222
 21
234.624006638551009
 31
0.0
  0
LINE
  5
246
  8
0
  6
CONTINUOUS
 62
     7
 10
423.6381371226527222
 20
234.624006638551009
 30
0.0
 11
420.638137122652779
 21
234.624006638551208
 31
0.0
  0
CIRCLE
  5
247
  8
0
  6
CONTINUOUS
 62
     7
 10
33.1381371226528501
 20
338.2281988226653198
 30
0.0
 40
1.5
  0
CIRCLE
  5
248
  8
0
  6
CONTINUOUS
 62
     7
 10
33.1381371226528501
 20
218.6240066385508953
 30
0.0
 40
1.5
  0
CIRCLE
  5
249
  8
0
  6
CONTINUOUS
 62
     7
 10
422.1381371226527222
 20
218.6240066385508953
 30
0.0
 40
1.5
  0
CIRCLE
  5
24A
  8
0
  6
CONTINUOUS
 62
     7
 10
422.1381371226527222
 20
338.2281988226653198
 30
0.0
 40
1.5
  0
LINE
  5
24B
  8
0
  6
CONTINUOUS
 62
     7
 10
31.6381371226528998
 20
330.2281988226653766
 30
0.0
 11
31.6381371226528394
 21
322.2281988226652061
 31
0.0
  0
LINE
  5
24C
  8
0
  6
CONTINUOUS
 62
     7
 10
31.6381371226528394
 20
322.2281988226652061
 30
0.0
 11
34.6381371226528501
 21
322.2281988226652061
 31
0.0
  0
LINE
  5
24D
  8
0
  6
CONTINUOUS
 62
     7
 10
34.6381371226528501
 20
322.2281988226652061
 30
0.0
 11
34.6381371226528501
 21
330.2281988226653198
 31
0.0
  0
LINE
  5
24E
  8
0
  6
CONTINUOUS
 62
     7
 10
34.6381371226528501
 20
330.2281988226653198
 30
0.0
 11
31.6381371226528998
 21
330.2281988226653766
 31
0.0
  0
LINE
  5
24F
  8
0
  6
CONTINUOUS
 62
     7
 10
31.6381371226528998
 20
234.624006638551208
 30
0.0
 11
31.6381371226528394
 21
226.6240066385508953
 31
0.0
  0
LINE
  5
250
  8
0
  6
CONTINUOUS
 62
     7
 10
31.6381371226528394
 20
226.6240066385508953
 30
0.0
 11
34.6381371226528501
 21
226.6240066385508953
 31
0.0
  0
LINE
  5
251
  8
0
  6
CONTINUOUS
 62
     7
 10
34.6381371226528501
 20
226.6240066385508953
 30
0.0
 11
34.6381371226528501
 21
234.624006638551009
 31
0.0
  0
LINE
  5
252
  8
0
  6
CONTINUOUS
 62
     7
 10
34.6381371226528501
 20
234.624006638551009
 30
0.0
 11
31.6381371226528998
 21
234.624006638551208
 31
0.0
  0
LINE
  5
253
  8
0
  6
CONTINUOUS
 62
     7
 10
31.6381371226528394
 20
210.624006638551009
 30
0.0
 11
31.6381371226528394
 21
202.6240066385506964
 31
0.0
  0
LINE
  5
254
  8
0
  6
CONTINUOUS
 62
     7
 10
31.6381371226528394
 20
202.6240066385506964
 30
0.0
 11
34.6381371226528501
 21
202.6240066385506964
 31
0.0
  0
LINE
  5
255
  8
0
  6
CONTINUOUS
 62
     7
 10
34.6381371226528501
 20
202.6240066385506964
 30
0.0
 11
34.6381371226528501
 21
210.6240066385508953
 31
0.0
  0
LINE
  5
256
  8
0
  6
CONTINUOUS
 62
     7
 10
34.6381371226528501
 20
210.6240066385508953
 30
0.0
 11
31.6381371226528394
 21
210.624006638551009
 31
0.0
  0
CIRCLE
  5
257
  8
0
  6
CONTINUOUS
 62
     7
 10
422.1381371226527222
 20
457.8323910067792895
 30
0.0
 40
1.4999999999999429
  0
LINE
  5
258
  8
0
  6
CONTINUOUS
 62
     7
 10
112.6381371226527932
 20
319.6514712150247988
 30
0.0
 11
342.638137122652779
 21
319.6514712150247988
 31
0.0
  0
ARC
  5
259
  8
0
  6
CONTINUOUS
 62
     7
 10
342.638137122652779
 20
344.6514712150246851
 30
0.0
 40
25.0000000000000604
 50
270.0000000000007958
 51
90.0
  0
LINE
  5
25A
  8
0
  6
CONTINUOUS
 62
     7
 10
342.638137122652779
 20
369.6514712150246851
 30
0.0
 11
112.6381371226527932
 21
369.6514712150246851
 31
0.0
  0
ARC
  5
25B
  8
0
  6
CONTINUOUS
 62
     7
 10
112.6381371226527932
 20
344.6514712150246851
 30
0.0
 40
25.0000000000000604
 50
90.0
 51
270.0000000000007958
  0
LINE
  5
25C
  8
0
  6
CONTINUOUS
 62
     7
 10
28.6381371226528394
 20
143.0106045766949876
 30
0.0
 11
28.6381371226528394
 21
533.8323910067797442
 31
0.0
  0
LINE
  5
25D
  8
0
  6
CONTINUOUS
 62
     7
 10
426.6381371226527222
 20
533.8323910067797442
 30
0.0
 11
426.6381371226527222
 21
143.0106045766949876
 31
0.0
  0
ENDSEC
  0
EOF
