  0
SECTION
  2
HEADER
  9
$ACADVER
  1
AC1009
  9
$INSBASE
 10
0.0
 20
0.0
 30
0.0
  9
$EXTMIN
 10
7.8464242997116118
 20
9.3670473945070007
 30
0.0
  9
$EXTMAX
 10
383.6792895565137087
 20
243.0020394359673048
 30
0.0
  9
$LIMMIN
 10
0.0
 20
0.0
  9
$LIMMAX
 10
400.0
 20
250.0
  9
$ORTHOMODE
 70
     0
  9
$REGENMODE
 70
     1
  9
$FILLMODE
 70
     1
  9
$QTEXTMODE
 70
     0
  9
$MIRRTEXT
 70
     1
  9
$DRAGMODE
 70
     2
  9
$LTSCALE
 40
1.0
  9
$OSMODE
 70
    39
  9
$ATTMODE
 70
     1
  9
$TEXTSIZE
 40
3.5
  9
$TRACEWID
 40
1.0
  9
$TEXTSTYLE
  7
STANDARD
  9
$CLAYER
  8
0
  9
$CELTYPE
  6
BYLAYER
  9
$CECOLOR
 62
   256
  9
$DIMSCALE
 40
1.0
  9
$DIMASZ
 40
3.3019999999999992
  9
$DIMEXO
 40
1.0
  9
$DIMDLI
 40
3.75
  9
$DIMRND
 40
0.0
  9
$DIMDLE
 40
0.0
  9
$DIMEXE
 40
1.0
  9
$DIMTP
 40
0.0
  9
$DIMTM
 40
0.0
  9
$DIMTXT
 40
3.5
  9
$DIMCEN
 40
2.5
  9
$DIMTSZ
 40
0.0
  9
$DIMTOL
 70
     0
  9
$DIMLIM
 70
     0
  9
$DIMTIH
 70
     1
  9
$DIMTOH
 70
     1
  9
$DIMSE1
 70
     0
  9
$DIMSE2
 70
     0
  9
$DIMTAD
 70
     1
  9
$DIMZIN
 70
     0
  9
$DIMBLK
  1

  9
$DIMASO
 70
     1
  9
$DIMSHO
 70
     1
  9
$DIMPOST
  1

  9
$DIMAPOST
  1

  9
$DIMALT
 70
     0
  9
$DIMALTD
 70
     3
  9
$DIMALTF
 40
0.0393700787401575
  9
$DIMLFAC
 40
1.0
  9
$DIMTOFL
 70
     1
  9
$DIMTVP
 40
0.0
  9
$DIMTIX
 70
     0
  9
$DIMSOXD
 70
     0
  9
$DIMSAH
 70
     0
  9
$DIMBLK1
  1

  9
$DIMBLK2
  1

  9
$DIMSTYLE
  2
ISO-25
  9
$DIMCLRD
 70
     0
  9
$DIMCLRE
 70
     0
  9
$DIMCLRT
 70
     0
  9
$DIMTFAC
 40
1.0
  9
$DIMGAP
 40
1.524
  9
$LUNITS
 70
     2
  9
$LUPREC
 70
     2
  9
$SKETCHINC
 40
1.0
  9
$FILLETRAD
 40
10.0
  9
$AUNITS
 70
     0
  9
$AUPREC
 70
     2
  9
$MENU
  1
.
  9
$ELEVATION
 40
0.0
  9
$PELEVATION
 40
0.0
  9
$THICKNESS
 40
0.0
  9
$LIMCHECK
 70
     0
  9
$BLIPMODE
 70
     0
  9
$CHAMFERA
 40
0.0
  9
$CHAMFERB
 40
0.0
  9
$SKPOLY
 70
     0
  9
$TDCREATE
 40
2457912.9410995370708406
  9
$TDUPDATE
 40
2458038.1286342591047287
  9
$TDINDWG
 40
0.0011111227
  9
$TDUSRTIMER
 40
0.0011111227
  9
$USRTIMER
 70
     1
  9
$ANGBASE
 50
0.0
  9
$ANGDIR
 70
     0
  9
$PDMODE
 70
     0
  9
$PDSIZE
 40
-1.0
  9
$PLINEWID
 40
0.0
  9
$COORDS
 70
     1
  9
$SPLFRAME
 70
     0
  9
$SPLINETYPE
 70
     6
  9
$SPLINESEGS
 70
     8
  9
$ATTDIA
 70
     1
  9
$ATTREQ
 70
     1
  9
$HANDLING
 70
     1
  9
$HANDSEED
  5
295
  9
$SURFTAB1
 70
     6
  9
$SURFTAB2
 70
     6
  9
$SURFTYPE
 70
     6
  9
$SURFU
 70
     6
  9
$SURFV
 70
     6
  9
$UCSNAME
  2

  9
$UCSORG
 10
0.0
 20
0.0
 30
0.0
  9
$UCSXDIR
 10
1.0
 20
0.0
 30
0.0
  9
$UCSYDIR
 10
0.0
 20
1.0
 30
0.0
  9
$PUCSNAME
  2

  9
$PUCSORG
 10
0.0
 20
0.0
 30
0.0
  9
$PUCSXDIR
 10
1.0
 20
0.0
 30
0.0
  9
$PUCSYDIR
 10
0.0
 20
1.0
 30
0.0
  9
$USERI1
 70
     0
  9
$USERI2
 70
     0
  9
$USERI3
 70
     0
  9
$USERI4
 70
     0
  9
$USERI5
 70
     0
  9
$USERR1
 40
0.0
  9
$USERR2
 40
0.0
  9
$USERR3
 40
0.0
  9
$USERR4
 40
0.0
  9
$USERR5
 40
0.0
  9
$WORLDVIEW
 70
     1
  9
$SHADEDGE
 70
     3
  9
$SHADEDIF
 70
    70
  9
$TILEMODE
 70
     1
  9
$MAXACTVP
 70
    64
  9
$PLIMCHECK
 70
     0
  9
$PEXTMIN
 10
1.0000000000000000E+20
 20
1.0000000000000000E+20
 30
1.0000000000000000E+20
  9
$PEXTMAX
 10
-1.0000000000000000E+20
 20
-1.0000000000000000E+20
 30
-1.0000000000000000E+20
  9
$PLIMMIN
 10
0.0
 20
0.0
  9
$PLIMMAX
 10
420.0
 20
297.0
  9
$UNITMODE
 70
     0
  9
$VISRETAIN
 70
     1
  9
$PLINEGEN
 70
     0
  9
$PSLTSCALE
 70
     1
  0
ENDSEC
  0
SECTION
  2
TABLES
  0
TABLE
  2
VPORT
 70
     1
  0
VPORT
  2
*ACTIVE
 70
     0
 10
0.0
 20
0.0
 11
1.0
 21
1.0
 12
150.2371151963970135
 22
70.6135317198055645
 13
0.0
 23
0.0
 14
10.0
 24
10.0
 15
10.0
 25
10.0
 16
0.0
 26
0.0
 36
1.0
 17
0.0
 27
0.0
 37
0.0
 40
638.4100645673671579
 41
2.252669039145907
 42
50.0
 43
0.0
 44
0.0
 50
0.0
 51
0.0
 71
     0
 72
  2000
 73
     1
 74
     3
 75
     0
 76
     0
 77
     0
 78
     0
  0
ENDTAB
  0
TABLE
  2
LTYPE
 70
     6
  0
LTYPE
  2
CONTINUOUS
 70
     0
  3
Solid line
 72
    65
 73
     0
 40
0.0
  0
LTYPE
  2
HIDDEN
 70
     0
  3
Hidden __ __ __ __ __ __ __ __ __ __ __ __ __ __
 72
    65
 73
     2
 40
1.905
 49
1.27
 49
-0.635
  0
LTYPE
  2
PHANTOM
 70
     0
  3
Phantom ______  __  __  ______  __  __  ______
 72
    65
 73
     6
 40
12.6999999999999993
 49
6.3499999999999979
 49
-1.27
 49
1.27
 49
-1.27
 49
1.27
 49
-1.27
  0
LTYPE
  2
CENTER
 70
     0
  3
Center ____ _ ____ _ ____ _ ____ _ ____ _ ____
 72
    65
 73
     4
 40
10.1600000000000001
 49
6.3499999999999979
 49
-1.27
 49
1.27
 49
-1.27
  0
LTYPE
  2
CENTERX2
 70
     0
  3
Center (2x) ________  __  ________  __  _____
 72
    65
 73
     4
 40
20.3200000000000003
 49
12.6999999999999993
 49
-2.54
 49
2.54
 49
-2.54
  0
LTYPE
  2
DOT2
 70
     0
  3
Dot (.5x) ........................................
 72
    65
 73
     2
 40
0.635
 49
0.0
 49
-0.635
  0
ENDTAB
  0
TABLE
  2
LAYER
 70
     2
  0
LAYER
  2
0
 70
     0
 62
     7
  6
CONTINUOUS
  0
LAYER
  2
FORMAT
 70
     0
 62
     7
  6
CONTINUOUS
  0
ENDTAB
  0
TABLE
  2
STYLE
 70
     2
  0
STYLE
  2
STANDARD
 70
     0
 40
0.0
 41
1.0
 50
0.0
 71
     0
 42
3.5
  3
txt
  4

  0
STYLE
  2
ANNOTATIVE
 70
     0
 40
0.0
 41
1.0
 50
0.0
 71
     0
 42
0.2
  3
txt
  4

  0
ENDTAB
  0
TABLE
  2
VIEW
 70
     0
  0
ENDTAB
  0
TABLE
  2
UCS
 70
     0
  0
ENDTAB
  0
TABLE
  2
APPID
 70
     4
  0
APPID
  2
ACAD
 70
     0
  0
APPID
  2
ACADANNOTATIVE
 70
     0
  0
APPID
  2
ACAD_NAV_VCDISPLAY
 70
     0
  0
APPID
  2
ACAD_MLEADERVER
 70
     0
  0
ENDTAB
  0
TABLE
  2
DIMSTYLE
 70
     3
  0
DIMSTYLE
  2
STANDARD
 70
     0
  3

  4

  5

  6

  7

 40
1.0
 41
0.18
 42
0.0625
 43
0.38
 44
0.18
 45
0.0
 46
0.0
 47
0.0
 48
0.0
140
0.18
141
0.09
142
0.0
143
25.3999999999999986
144
1.0
145
0.0
146
1.0
147
0.09
 71
     0
 72
     0
 73
     1
 74
     1
 75
     0
 76
     0
 77
     0
 78
     0
170
     0
171
     2
172
     0
173
     0
174
     0
175
     0
176
     0
177
     0
178
     0
  0
DIMSTYLE
  2
ANNOTATIVE
 70
     0
  3

  4

  5

  6

  7

 40
1.0
 41
0.18
 42
0.0625
 43
0.38
 44
0.18
 45
0.0
 46
0.0
 47
0.0
 48
0.0
140
0.18
141
0.09
142
0.0
143
25.3999999999999986
144
1.0
145
0.0
146
1.0
147
0.09
 71
     0
 72
     0
 73
     1
 74
     1
 75
     0
 76
     0
 77
     0
 78
     0
170
     0
171
     2
172
     0
173
     0
174
     0
175
     0
176
     0
177
     0
178
     0
  0
DIMSTYLE
  2
ISO-25
 70
     0
  3

  4

  5

  6

  7

 40
1.0
 41
2.5
 42
0.625
 43
3.75
 44
1.25
 45
0.0
 46
0.0
 47
0.0
 48
0.0
140
2.5
141
2.5
142
0.0
143
0.03937007874016
144
1.0
145
0.0
146
1.0
147
0.625
 71
     0
 72
     0
 73
     0
 74
     0
 75
     0
 76
     0
 77
     1
 78
     8
170
     0
171
     3
172
     1
173
     0
174
     0
175
     0
176
     0
177
     0
178
     0
  0
ENDTAB
  0
ENDSEC
  0
SECTION
  2
BLOCKS
  0
BLOCK
  8
0
  2
$MODEL_SPACE
 70
     0
 10
0.0
 20
0.0
 30
0.0
  3
$MODEL_SPACE
  1

  0
ENDBLK
  5
230
  8
0
  0
BLOCK
 67
     1
  8
0
  2
$PAPER_SPACE
 70
     0
 10
0.0
 20
0.0
 30
0.0
  3
$PAPER_SPACE
  1

  0
ENDBLK
  5
22C
 67
     1
  8
0
  0
ENDSEC
  0
SECTION
  2
ENTITIES
  0
ARC
  5
74
  8
0
  6
CONTINUOUS
 62
     7
 10
173.373866241140405
 20
241.2964135089274009
 30
0.0
 40
1.5000000000000271
 50
0.0
 51
90.0
  0
ARC
  5
75
  8
0
  6
CONTINUOUS
 62
     7
 10
173.373866241140405
 20
50.2964135089274507
 30
0.0
 40
1.5
 50
270.0000000000007958
 51
0.0
  0
ARC
  5
76
  8
0
  6
CONTINUOUS
 62
     7
 10
12.3738662411404192
 20
50.2964135089274507
 30
0.0
 40
1.5000000000000011
 50
180.0
 51
270.0000000000007958
  0
ARC
  5
77
  8
0
  6
CONTINUOUS
 62
     7
 10
12.3738662411404192
 20
241.2964135089274009
 30
0.0
 40
1.5000000000000271
 50
90.0
 51
180.0
  0
ARC
  5
78
  8
0
  6
CONTINUOUS
 62
     7
 10
97.9551791247387627
 20
210.5588830022632862
 30
0.0
 40
1.0
 50
0.0
 51
90.0
  0
ARC
  5
79
  8
0
  6
CONTINUOUS
 62
     7
 10
91.3630480165426491
 20
210.5588830022632862
 30
0.0
 40
1.0
 50
90.0
 51
180.0
  0
ARC
  5
7A
  8
0
  6
CONTINUOUS
 62
     7
 10
91.3630480165426491
 20
208.5373952655205017
 30
0.0
 40
1.0
 50
180.0
 51
270.0000000000007958
  0
ARC
  5
7B
  8
0
  6
CONTINUOUS
 62
     7
 10
97.9551791247387627
 20
208.5373952655205017
 30
0.0
 40
1.0
 50
270.0000000000007958
 51
0.0
  0
LINE
  5
7C
  8
0
  6
CONTINUOUS
 62
     7
 10
10.8738662411404192
 20
50.2964135089274507
 30
0.0
 11
10.8738662411404192
 21
241.2964135089274009
 31
0.0
  0
CIRCLE
  5
7D
  8
0
  6
CONTINUOUS
 62
     7
 10
82.8577238290787648
 20
187.2161026124680916
 30
0.0
 40
19.4999999999999716
  0
CIRCLE
  5
7E
  8
0
  6
CONTINUOUS
 62
     7
 10
98.8577238290787648
 20
171.2161026124682053
 30
0.0
 40
1.5
  0
CIRCLE
  5
7F
  8
0
  6
CONTINUOUS
 62
     7
 10
66.8577238290787648
 20
203.2161026124682053
 30
0.0
 40
1.5
  0
CIRCLE
  5
80
  8
0
  6
CONTINUOUS
 62
     7
 10
98.8577238290787648
 20
203.2161026124682053
 30
0.0
 40
1.5
  0
CIRCLE
  5
81
  8
0
  6
CONTINUOUS
 62
     7
 10
66.8577238290787648
 20
171.2161026124682053
 30
0.0
 40
1.5
  0
LINE
  5
82
  8
0
  6
CONTINUOUS
 62
     7
 10
91.3630480165426491
 20
211.5588830022632862
 30
0.0
 11
97.9551791247387627
 21
211.5588830022632862
 31
0.0
  0
LINE
  5
83
  8
0
  6
CONTINUOUS
 62
     7
 10
90.3630480165426491
 20
208.5373952655205017
 30
0.0
 11
90.3630480165426491
 21
210.5588830022632862
 31
0.0
  0
LINE
  5
84
  8
0
  6
CONTINUOUS
 62
     7
 10
91.3630480165426491
 20
207.537395265520388
 30
0.0
 11
97.9551791247387627
 21
207.537395265520388
 31
0.0
  0
LINE
  5
85
  8
0
  6
CONTINUOUS
 62
     7
 10
98.9551791247387484
 20
208.5373952655205017
 30
0.0
 11
98.9551791247387484
 21
210.5588830022632862
 31
0.0
  0
LINE
  5
86
  8
0
  6
CONTINUOUS
 62
     7
 10
12.3738662411404192
 20
242.7964135089274862
 30
0.0
 11
173.373866241140405
 21
242.7964135089274862
 31
0.0
  0
LINE
  5
87
  8
0
  6
CONTINUOUS
 62
     7
 10
174.873866241140405
 20
50.2964135089274507
 30
0.0
 11
174.873866241140405
 21
241.2964135089274009
 31
0.0
  0
LINE
  5
88
  8
0
  6
CONTINUOUS
 62
     7
 10
12.3738662411404192
 20
48.796413508927472
 30
0.0
 11
173.373866241140405
 21
48.796413508927472
 31
0.0
  0
CIRCLE
  5
89
  8
0
  6
CONTINUOUS
 62
     7
 10
242.1792895565002084
 20
58.5020393167866075
 30
0.0
 40
1.5
  0
CIRCLE
  5
8A
  8
0
  6
CONTINUOUS
 62
     7
 10
242.1792895565002084
 20
107.5020393167702935
 30
0.0
 40
1.5
  0
CIRCLE
  5
8B
  8
0
  6
CONTINUOUS
 62
     7
 10
300.1792895565004073
 20
58.5020393167865009
 30
0.0
 40
1.499999999999992
  0
CIRCLE
  5
8C
  8
0
  6
CONTINUOUS
 62
     7
 10
300.1792895565004073
 20
107.5020393167702935
 30
0.0
 40
1.5
  0
CIRCLE
  5
8D
  8
0
  6
CONTINUOUS
 62
     7
 10
243.5092895565138065
 20
142.2020393167589987
 30
0.0
 40
1.5
  0
CIRCLE
  5
8E
  8
0
  6
CONTINUOUS
 62
     7
 10
237.1592895565138974
 20
190.4620393167591033
 30
0.0
 40
1.5
  0
CIRCLE
  5
8F
  8
0
  6
CONTINUOUS
 62
     7
 10
318.439289556513927
 20
142.2020393167589987
 30
0.0
 40
1.5
  0
CIRCLE
  5
90
  8
0
  6
CONTINUOUS
 62
     7
 10
319.7092895565139088
 20
190.4620393167591033
 30
0.0
 40
1.5
  0
CIRCLE
  5
91
  8
0
  6
CONTINUOUS
 62
     7
 10
193.679289556513595
 20
23.0020393167580401
 30
0.0
 40
1.5
  0
CIRCLE
  5
92
  8
0
  6
CONTINUOUS
 62
     7
 10
375.6792895565137087
 20
23.0020393167580401
 30
0.0
 40
1.499999999999984
  0
CIRCLE
  5
93
  8
0
  6
CONTINUOUS
 62
     7
 10
375.6792895565137087
 20
235.0020393167581005
 30
0.0
 40
1.5
  0
CIRCLE
  5
94
  8
0
  6
CONTINUOUS
 62
     7
 10
193.679289556513595
 20
235.0020393167581005
 30
0.0
 40
1.5
  0
ARC
  5
95
  8
0
  6
CONTINUOUS
 62
     7
 10
373.6792895565138224
 20
25.0020393167580401
 30
0.0
 40
10.0
 50
270.0000000000007958
 51
0.0
  0
LINE
  5
96
  8
0
  6
CONTINUOUS
 62
     7
 10
195.6792893329962908
 20
15.0020393167580401
 30
0.0
 11
373.6792831192120161
 21
15.0020393167580401
 31
0.0
  0
ARC
  5
97
  8
0
  6
CONTINUOUS
 62
     7
 10
195.679289556513595
 20
25.0020393167580401
 30
0.0
 40
10.0
 50
180.0
 51
270.0000000000007958
  0
LINE
  5
98
  8
0
  6
CONTINUOUS
 62
     7
 10
185.679289556513595
 20
233.0020340715493035
 30
0.0
 11
185.679289556513595
 21
25.0020390932406293
 31
0.0
  0
ARC
  5
99
  8
0
  6
CONTINUOUS
 62
     7
 10
195.679289556513595
 20
233.0020393167581005
 30
0.0
 40
10.0
 50
90.0
 51
180.0000000000011084
  0
LINE
  5
9A
  8
0
  6
CONTINUOUS
 62
     7
 10
373.6792831192120161
 20
243.0020394359673048
 30
0.0
 11
195.6792893329962908
 21
243.0020394359673048
 31
0.0
  0
ARC
  5
9B
  8
0
  6
CONTINUOUS
 62
     7
 10
373.6792895565138224
 20
233.0020393167581005
 30
0.0
 40
10.0
 50
0.0000000000005089
 51
90.0
  0
LINE
  5
9C
  8
0
  6
CONTINUOUS
 62
     7
 10
383.6792884836301027
 20
25.0020390932406293
 30
0.0
 11
383.6792884836301027
 21
233.0020340715493035
 31
0.0
  0
CIRCLE
  5
9D
  8
0
  6
CONTINUOUS
 62
     7
 10
53.6529394070525285
 20
34.9875862805915716
 30
0.0
 40
1.499999999999992
  0
LINE
  5
9E
  8
0
  6
CONTINUOUS
 62
     7
 10
77.6594268889711543
 20
25.1232232984012214
 30
0.0
 11
60.7240071320519874
 21
42.0586612161105577
 31
0.0
  0
LINE
  5
9F
  8
0
  6
CONTINUOUS
 62
     7
 10
77.6594268889711543
 20
20.3793194230502692
 30
0.0
 11
77.6594268889711543
 21
25.1232232984012214
 31
0.0
  0
LINE
  5
A0
  8
0
  6
CONTINUOUS
 62
     7
 10
68.8519614548967525
 20
11.5718688901370594
 30
0.0
 11
77.6594268889711543
 21
20.3793194230502692
 31
0.0
  0
LINE
  5
A1
  8
0
  6
CONTINUOUS
 62
     7
 10
62.9265324012921496
 20
11.5718688901370594
 30
0.0
 11
68.8519614548967525
 21
11.5718688901370594
 31
0.0
  0
LINE
  5
A2
  8
0
  6
CONTINUOUS
 62
     7
 10
46.5818715082095167
 20
27.9165055688327399
 30
0.0
 11
62.9265324012921496
 21
11.5718688901370594
 31
0.0
  0
ARC
  5
A3
  8
0
  6
CONTINUOUS
 62
     7
 10
53.6529394070525285
 20
34.9875862805915716
 30
0.0
 40
10.0000000000000302
 50
45.0000000000011511
 51
225.0000000000003979
  0
LINE
  5
A4
  8
0
  6
CONTINUOUS
 62
     7
 10
164.7221084662022008
 20
21.1333355689409714
 30
0.0
 11
168.750092105591591
 21
21.1333355689409714
 31
0.0
  0
LINE
  5
A5
  8
0
  6
CONTINUOUS
 62
     7
 10
168.750092105591591
 20
21.1333355689409714
 30
0.0
 11
168.750092105591591
 21
35.5292794117692523
 31
0.0
  0
LINE
  5
A6
  8
0
  6
CONTINUOUS
 62
     7
 10
168.750092105591591
 20
35.5292794117692523
 30
0.0
 11
164.7221084662022008
 21
35.5292794117692523
 31
0.0
  0
LINE
  5
A7
  8
0
  6
CONTINUOUS
 62
     7
 10
164.7221084662022008
 20
35.5292794117692523
 30
0.0
 11
164.7221084662022008
 21
21.1333355689409714
 31
0.0
  0
LINE
  5
A8
  8
0
  6
CONTINUOUS
 62
     7
 10
175.1443666383864866
 20
40.794036612844792
 30
0.0
 11
159.0443660483005033
 21
40.794036612844792
 31
0.0
  0
LINE
  5
A9
  8
0
  6
CONTINUOUS
 62
     7
 10
175.1443666383864866
 20
15.3340373942616903
 30
0.0
 11
175.1443666383864866
 21
40.794036612844792
 31
0.0
  0
LINE
  5
AA
  8
0
  6
CONTINUOUS
 62
     7
 10
159.0443660483005033
 20
15.3340373942616903
 30
0.0
 11
175.1443666383864866
 21
15.3340373942616903
 31
0.0
  0
LINE
  5
AB
  8
0
  6
CONTINUOUS
 62
     7
 10
159.0443660483005033
 20
40.794036612844792
 30
0.0
 11
159.0443660483005033
 21
15.3340373942616903
 31
0.0
  0
CIRCLE
  5
AC
  8
0
  6
CONTINUOUS
 62
     7
 10
172.1143660483006101
 20
37.5640373942617032
 30
0.0
 40
1.5
  0
CIRCLE
  5
AD
  8
0
  6
CONTINUOUS
 62
     7
 10
172.1143660483006101
 20
18.5640373942616783
 30
0.0
 40
1.5
  0
CIRCLE
  5
AE
  8
0
  6
CONTINUOUS
 62
     7
 10
91.0065274029189055
 20
34.361224147051729
 30
0.0
 40
1.5
  0
LINE
  5
AF
  8
0
  6
CONTINUOUS
 62
     7
 10
115.0130148848375029
 20
24.4968611648613894
 30
0.0
 11
98.0775951279183857
 21
41.4322990825707222
 31
0.0
  0
LINE
  5
B0
  8
0
  6
CONTINUOUS
 62
     7
 10
115.0130148848375029
 20
19.7529572895104302
 30
0.0
 11
115.0130148848375029
 21
24.4968611648613894
 31
0.0
  0
LINE
  5
B1
  8
0
  6
CONTINUOUS
 62
     7
 10
106.205549450763101
 20
10.9455067565972204
 30
0.0
 11
115.0130148848375029
 21
19.7529572895104302
 31
0.0
  0
LINE
  5
B2
  8
0
  6
CONTINUOUS
 62
     7
 10
100.2801203971584982
 20
10.9455067565972204
 30
0.0
 11
106.205549450763101
 21
10.9455067565972204
 31
0.0
  0
LINE
  5
B3
  8
0
  6
CONTINUOUS
 62
     7
 10
83.9354595040759222
 20
27.2901434352929115
 30
0.0
 11
100.2801203971584982
 21
10.9455067565972204
 31
0.0
  0
ARC
  5
B4
  8
0
  6
CONTINUOUS
 62
     7
 10
91.0065274029189055
 20
34.361224147051729
 30
0.0
 40
10.0000000000000302
 50
45.0000000000011511
 51
225.0000000000003979
  0
CIRCLE
  5
B5
  8
0
  6
CONTINUOUS
 62
     7
 10
17.8464242997116393
 20
32.7827647849615076
 30
0.0
 40
1.5
  0
LINE
  5
B6
  8
0
  6
CONTINUOUS
 62
     7
 10
41.8529117816302474
 20
22.9184018027711609
 30
0.0
 11
24.9174920247111196
 21
39.8538397204805079
 31
0.0
  0
LINE
  5
B7
  8
0
  6
CONTINUOUS
 62
     7
 10
41.8529117816302474
 20
18.1744979274202088
 30
0.0
 11
41.8529117816302474
 21
22.9184018027711609
 31
0.0
  0
LINE
  5
B8
  8
0
  6
CONTINUOUS
 62
     7
 10
33.0454463475558669
 20
9.3670473945070007
 30
0.0
 11
41.8529117816302474
 21
18.1744979274202088
 31
0.0
  0
LINE
  5
B9
  8
0
  6
CONTINUOUS
 62
     7
 10
27.1200172939512605
 20
9.3670473945070007
 30
0.0
 11
33.0454463475558669
 21
9.3670473945070007
 31
0.0
  0
LINE
  5
BA
  8
0
  6
CONTINUOUS
 62
     7
 10
10.77535640086864
 20
25.7116840732026795
 30
0.0
 11
27.1200172939512605
 21
9.3670473945070007
 31
0.0
  0
ARC
  5
BB
  8
0
  6
CONTINUOUS
 62
     7
 10
17.8464242997116393
 20
32.7827647849615076
 30
0.0
 40
10.0000000000000302
 50
45.0000000000011084
 51
225.0000000000003979
  0
CIRCLE
  5
BC
  8
0
  6
CONTINUOUS
 62
     7
 10
128.9033240964681966
 20
33.1297449484763433
 30
0.0
 40
1.5
  0
LINE
  5
BD
  8
0
  6
CONTINUOUS
 62
     7
 10
152.9098115783868082
 20
23.2653819662859789
 30
0.0
 11
135.974391821467691
 21
40.2008198839953366
 31
0.0
  0
LINE
  5
BE
  8
0
  6
CONTINUOUS
 62
     7
 10
152.9098115783868082
 20
18.5214780909350409
 30
0.0
 11
152.9098115783868082
 21
23.2653819662859789
 31
0.0
  0
LINE
  5
BF
  8
0
  6
CONTINUOUS
 62
     7
 10
144.1023461443124063
 20
9.7140275580218312
 30
0.0
 11
152.9098115783868082
 21
18.5214780909350409
 31
0.0
  0
LINE
  5
C0
  8
0
  6
CONTINUOUS
 62
     7
 10
138.1769170907078035
 20
9.7140275580218312
 30
0.0
 11
144.1023461443124063
 21
9.7140275580218312
 31
0.0
  0
LINE
  5
C1
  8
0
  6
CONTINUOUS
 62
     7
 10
121.832256197625199
 20
26.0586642367175116
 30
0.0
 11
138.1769170907078035
 21
9.7140275580218312
 31
0.0
  0
ARC
  5
C2
  8
0
  6
CONTINUOUS
 62
     7
 10
128.9033240964681966
 20
33.1297449484763433
 30
0.0
 40
10.0000000000000195
 50
45.0000000000010303
 51
225.0000000000005116
  0
ENDSEC
  0
EOF
